<svg width="150" height="61" viewBox="0 0 150 61" fill="none" xmlns="http://www.w3.org/2000/svg">
<path d="M31.2177 17.55C31.2177 17.55 31.9977 17.4968 33.5577 17.3904C36.075 17.3904 37.9363 17.8691 39.1418 18.8263C40.3827 19.7482 41.0031 21.0777 41.0031 22.815C41.0031 24.5168 40.2231 26.52 38.6631 28.8245C37.1031 31.1291 35.0822 33.2209 32.6004 35.1H35.6318C36.8727 35.1 37.7413 35.0468 38.2377 34.9404C38.7341 34.8341 39.0177 34.7809 39.0886 34.7809C39.585 34.7809 39.8331 35.0468 39.8331 35.5786C39.8331 36.1104 39.4786 36.3941 38.7695 36.4295C36.0395 36.4295 33.4159 36.3941 30.8986 36.3232C26.9277 38.8404 23.0277 40.0991 19.1986 40.0991C17.3904 40.0991 15.9545 39.7622 14.8909 39.0886C13.8273 38.415 13.2954 37.7413 13.2954 37.0677C13.2954 36.3586 13.5791 35.8091 14.1464 35.4191C14.7491 35.0291 15.5823 34.8341 16.6459 34.8341C20.7941 34.8341 25.4386 34.9227 30.5795 35.1C32.7068 33.3627 34.4086 31.3595 35.685 29.0904C36.9613 26.7859 37.5995 24.7118 37.5995 22.8682C37.5995 19.9254 36.0218 18.4541 32.8663 18.4541C31.6254 18.4541 30.3313 18.6491 28.9841 19.0391C27.6722 19.4291 26.8745 19.7127 26.5909 19.89C26.3427 20.0318 26.1832 20.1027 26.1122 20.1027C25.8995 20.1027 25.7932 19.9609 25.7932 19.6773C25.7932 19.3582 26.2541 18.9859 27.1759 18.5604C31.2177 16.6104 35.1709 14.0223 39.0354 10.7959C42.9 7.53408 44.8322 5.21181 44.8322 3.82909C44.8322 3.19091 44.3359 2.87182 43.3431 2.87182C39.3013 2.90727 33.7527 5.93863 26.6972 11.9659C25.2791 15.6177 22.9391 20.1027 19.6773 25.4209C16.4509 30.7391 13.065 35.49 9.51954 39.6736C5.97409 43.8927 3.33272 46.0022 1.59545 46.0022C0.531818 46.0022 0 45.4527 0 44.3536C0 41.8363 2.37545 37.3513 7.12636 30.8986C11.9127 24.4459 17.3195 18.5073 23.3468 13.0827C24.4104 10.4945 24.9422 8.61545 24.9422 7.44545C24.9422 6.23999 24.6586 5.30045 24.0913 4.62681C23.5241 3.91772 22.6909 3.40363 21.5918 3.08454C19.8545 2.62364 18.0109 2.39318 16.0609 2.39318C14.1464 2.39318 12.675 2.44636 11.6468 2.55272C10.6186 2.62363 9.35999 2.80091 7.8709 3.08454C6.41727 3.33272 5.22954 3.79363 4.30772 4.46727C3.38591 5.10545 2.925 5.93863 2.925 6.96681C2.925 7.95954 3.42136 8.73954 4.41409 9.30681C5.40681 9.83863 6.61227 10.2109 8.03045 10.4236C9.48408 10.6364 10.92 10.8668 12.3382 11.115C13.7564 11.3632 14.9618 11.8595 15.9545 12.6041C16.9473 13.3132 17.4436 14.3236 17.4436 15.6354C17.4436 15.99 17.355 16.1673 17.1777 16.1673C17.0359 16.1673 16.9118 16.1141 16.8054 16.0077C16.7345 15.9013 16.5927 15.6886 16.38 15.3695C16.0609 14.9086 15.5823 14.5541 14.9441 14.3059C14.3414 14.0577 13.3841 13.8273 12.0723 13.6145C10.7959 13.3664 9.57272 13.1182 8.40272 12.87C7.26818 12.5864 6.1159 12.2318 4.9459 11.8064C3.77591 11.3809 2.83636 10.7782 2.12727 9.99817C1.41818 9.21817 1.06364 8.31408 1.06364 7.2859C1.06364 6.22227 1.50682 5.28272 2.39318 4.46727C3.27954 3.65181 4.44954 3.01363 5.90318 2.55272C8.88136 1.66636 11.9836 1.22318 15.21 1.22318C23.5772 1.22318 27.7609 3.42136 27.7609 7.81772C27.7609 8.20772 27.6722 8.79272 27.495 9.57272C34.6568 3.79363 40.4713 0.904091 44.9386 0.904091C46.924 0.904091 47.9168 1.50682 47.9168 2.71227C47.9168 4.44954 46.0909 6.91363 42.439 10.1045C38.8227 13.2954 35.0822 15.7773 31.2177 17.55ZM2.925 44.46C3.95318 44.46 6.7009 41.1804 11.1682 34.6213C15.6709 28.0268 19.2695 21.8932 21.9641 16.2204C16.6459 21.2904 11.9304 26.5732 7.81772 32.0686C3.74045 37.5286 1.70182 41.2513 1.70182 43.2368C1.70182 44.0522 2.10954 44.46 2.925 44.46ZM28.9309 36.27L19.305 36.0572C16.575 36.0572 15.21 36.465 15.21 37.2804C15.21 37.7413 15.6709 38.1668 16.5927 38.5568C17.5145 38.9822 18.5782 39.195 19.7836 39.195C22.9391 39.195 25.9882 38.22 28.9309 36.27Z" fill="white"/>
<path d="M59.4572 29.6754C59.7054 29.4982 59.9359 29.4095 60.1486 29.4095C60.3613 29.4095 60.4677 29.5336 60.4677 29.7818V29.8882C56.7804 32.9372 53.7136 35.2241 51.2672 36.7486C48.8209 38.2731 46.605 39.0354 44.6195 39.0354C43.024 39.0354 42.2263 38.2554 42.2263 36.6954C42.2263 34.3909 43.3963 32.0332 45.7363 29.6222C48.0763 27.1759 50.044 25.9527 51.6395 25.9527C52.5259 25.9527 52.969 26.4491 52.969 27.4418C52.7918 29.3918 49.9909 32.0154 44.5663 35.3127V35.8445C44.5663 37.0145 45.169 37.5995 46.3745 37.5995C47.6154 37.5995 48.945 37.1918 50.3631 36.3763C53.1286 34.7454 55.7168 32.8841 58.1277 30.7922L59.4572 29.6754ZM50.2568 27.6013C49.4768 27.6013 48.4663 28.2572 47.2254 29.5691C46.02 30.8809 45.2045 32.37 44.779 34.0363C46.4809 33.0082 47.9168 31.9268 49.0868 30.7922C50.2568 29.6222 50.8418 28.8068 50.8418 28.3459C50.8418 27.8495 50.6468 27.6013 50.2568 27.6013Z" fill="white"/>
<path d="M70.8281 33.2386C69.9772 32.1041 68.8781 30.5263 67.5309 28.5054C58.2063 27.5836 53.5441 25.6336 53.5441 22.6554C53.5441 21.9818 53.8809 21.4323 54.5545 21.0068C55.2636 20.5813 56.3272 20.3686 57.7454 20.3686C61.2909 20.3686 64.8186 22.62 68.3286 27.1227C71.8741 27.4772 75.8981 27.6545 80.4009 27.6545H80.9859C85.524 24.9245 89.7431 22.1768 93.6431 19.4113C95.2386 16.5041 96.6213 14.1109 97.7913 12.2318C98.9613 10.3173 100.379 8.33181 102.046 6.27545C105.343 2.09182 108.818 0 112.469 0C113.427 0 113.905 0.425454 113.905 1.27636C113.905 3.33272 112.204 6.02727 108.8 9.35999C105.396 12.6927 100.876 16.2736 95.2386 20.1027C93.5368 23.3645 92.2604 25.74 91.4095 27.2291C96.3731 26.8391 99.954 26.2363 102.152 25.4209H102.312C102.454 25.4209 102.524 25.5272 102.524 25.74C102.524 25.9172 102.4 26.1832 102.152 26.5377C99.4931 27.3532 95.664 27.9913 90.6649 28.4522C88.7504 31.7495 86.889 34.32 85.0809 36.1636C83.3081 37.9718 81.5177 38.8759 79.7095 38.8759C76.8022 38.8759 74.0545 37.2627 71.4663 34.0363C66.3963 36.5891 61.9113 38.5391 58.0113 39.8863C57.4795 40.0636 56.8591 40.1522 56.15 40.1522C55.4763 40.1522 55.1395 39.8863 55.1395 39.3545C55.1395 39.0709 55.2813 38.805 55.565 38.5568C55.8486 38.3441 56.2209 38.2377 56.6818 38.2377C59.5182 38.2377 64.2336 36.5713 70.8281 33.2386ZM80.9859 28.9841C78.2913 30.5086 75.6322 31.9445 73.0086 33.2918C75.384 36.2345 77.5468 37.7059 79.4968 37.7059C80.9504 37.7059 82.3863 36.9259 83.8045 35.3659C85.2581 33.8059 86.8536 31.5545 88.5909 28.6118C86.4281 28.7891 83.8931 28.9132 80.9859 28.9841ZM110.98 1.27636C108.534 1.27636 106.07 2.90727 103.588 6.16909C101.532 8.93454 99.2804 12.5864 96.834 17.1245C101.301 13.8273 104.882 10.8314 107.577 8.13681C110.271 5.40681 111.619 3.29727 111.619 1.80818C111.619 1.45363 111.406 1.27636 110.98 1.27636ZM56.0968 22.4427C56.0968 24.4636 59.5182 25.935 66.3609 26.8568C63.5954 23.1695 60.8122 21.3259 58.0113 21.3259C56.735 21.3259 56.0968 21.6982 56.0968 22.4427ZM72.3704 32.4941C74.5686 31.3241 76.6781 30.1541 78.699 28.9841H78.4863C75.4018 28.9841 72.4236 28.8777 69.5518 28.665C70.899 30.5441 71.8386 31.8204 72.3704 32.4941ZM92.2072 22.1236C90.2927 23.4 87.3145 25.2436 83.2727 27.6545C86.0027 27.5836 88.0059 27.495 89.2822 27.3886C89.9559 26.2186 90.9309 24.4636 92.2072 22.1236Z" fill="white"/>
<path d="M118.799 29.6222C119.047 29.445 119.278 29.3563 119.49 29.3563C119.703 29.3563 119.809 29.4627 119.809 29.6754V29.835C117.008 32.175 114.261 34.2668 111.566 36.1104C108.872 38.1668 106.993 39.195 105.929 39.195C104.901 39.195 104.387 38.7695 104.387 37.9186C104.387 36.9968 105.06 35.4368 106.408 33.2386C107.755 31.0404 108.428 29.8704 108.428 29.7286C108.428 29.5513 108.358 29.4627 108.216 29.4627C107.755 29.4627 106.337 30.4909 103.961 32.5472C101.621 34.5681 99.5648 36.4472 97.7921 38.1845C97.1185 38.7872 96.6399 39.0886 96.3562 39.0886C96.108 39.0886 95.9839 38.8936 95.9839 38.5036C95.9839 38.1136 96.2144 37.6172 96.6753 37.0145L115.236 8.72181C115.626 8.11909 116.14 7.81772 116.778 7.81772C117.452 7.81772 117.788 8.03045 117.788 8.4559C117.788 8.70408 117.682 8.96999 117.469 9.25363C117.292 9.53726 116.104 11.2391 113.906 14.3591C111.708 17.4436 110.432 19.2695 110.077 19.8368C109.758 20.4041 108.216 22.7441 105.45 26.8568C102.72 30.9695 101.267 33.15 101.089 33.3982C100.948 33.6109 100.877 33.7882 100.877 33.93C100.877 34.0718 100.93 34.1427 101.036 34.1427C101.178 34.1427 101.267 34.125 101.302 34.0895C102.437 32.955 103.979 31.6432 105.929 30.1541C107.914 28.6295 109.279 27.8672 110.024 27.8672C110.308 27.8672 110.556 27.9736 110.768 28.1863C110.981 28.3636 111.088 28.6827 111.088 29.1436C111.088 29.5691 110.396 30.7745 109.013 32.76C107.631 34.71 106.939 35.9863 106.939 36.5891C106.939 37.1563 107.117 37.44 107.471 37.44C107.861 37.44 108.801 36.9436 110.29 35.9509C112.949 34.1782 115.395 32.3877 117.629 30.5795L118.799 29.6222Z" fill="white"/>
<path d="M122.854 33.93C124.839 33.93 127.215 32.8132 129.98 30.5795L130.884 30.8454C127.41 33.7527 124.414 35.2063 121.896 35.2063C121.613 35.2063 121.4 35.1886 121.258 35.1531C120.301 36.3231 119.255 37.2804 118.12 38.025C116.986 38.7341 115.993 39.0886 115.142 39.0886C113.795 39.0886 113.121 38.3441 113.121 36.855C113.121 35.3304 114.38 33.3095 116.897 30.7922C116.472 29.7641 116.259 28.6827 116.259 27.5482C116.259 26.4136 116.667 25.4918 117.482 24.7827C118.298 24.0736 119.237 23.7191 120.301 23.7191C121.4 23.7191 122.322 24.0736 123.066 24.7827C123.811 25.4918 124.183 26.5022 124.183 27.8141C124.183 29.835 123.527 31.8559 122.215 33.8768C122.357 33.9122 122.57 33.93 122.854 33.93ZM121.152 33.3982C122.251 31.5545 122.8 29.9945 122.8 28.7182C122.8 27.4063 122.481 26.4491 121.843 25.8463C121.205 25.2082 120.585 24.8891 119.982 24.8891C118.741 24.8891 118.12 25.5272 118.12 26.8036C118.12 28.08 118.404 29.3563 118.971 30.6327C119.539 31.8736 120.265 32.7954 121.152 33.3982ZM115.302 36.5359C115.302 37.245 115.763 37.5995 116.685 37.5995C117.606 37.5995 118.776 36.66 120.195 34.7809C119.237 34.2845 118.386 33.4159 117.642 32.175C116.082 33.8768 115.302 35.3304 115.302 36.5359Z" fill="white"/>
<path d="M150 29.835C142.519 36.075 137.892 39.195 136.12 39.195C135.091 39.195 134.577 38.7872 134.577 37.9718C134.577 37.1209 135.552 35.5609 137.502 33.2918C139.452 30.9872 140.427 29.5159 140.427 28.8777C140.356 28.8068 140.285 28.7713 140.215 28.7713C139.222 28.7713 137.626 29.5336 135.428 31.0582C121.175 51.019 113.074 60.9995 111.124 60.9995C110.734 60.9995 110.415 60.8577 110.167 60.574C109.883 60.3259 109.741 59.9359 109.741 59.404C109.741 56.9577 112.152 52.8627 116.974 47.119C121.796 41.3754 126.742 36.5359 131.812 32.6004L136.492 25.7932V25.74C136.492 25.6336 136.421 25.5804 136.279 25.5804C135.57 26.8213 133.655 28.6827 130.535 31.1645L128.993 32.3345L128.78 31.5368C131.475 29.3386 133.975 27.0695 136.279 24.7295C138.584 22.3895 140.215 20.5991 141.172 19.3582L142.608 17.4968C143.104 16.8232 143.654 16.4863 144.256 16.4863C144.859 16.4863 145.16 16.6636 145.16 17.0182C145.16 17.16 145.107 17.2841 145.001 17.3904C144.93 17.4968 144.522 18.0818 143.778 19.1454C143.069 20.1736 142.005 21.6982 140.587 23.7191C139.169 25.7045 137.839 27.5836 136.598 29.3563C138.655 28.1863 140.197 27.6013 141.225 27.6013C142.289 27.6013 142.82 27.8141 142.82 28.2395C142.82 29.6577 141.402 31.8382 138.566 34.7809C137.609 35.7736 137.13 36.4295 137.13 36.7486C137.13 37.0322 137.378 37.1741 137.875 37.1741C138.406 37.1741 139.328 36.7309 140.64 35.8445C143.228 34.1072 145.621 32.3522 147.82 30.5795L148.99 29.6222C149.238 29.445 149.468 29.3563 149.681 29.3563C149.894 29.3563 150 29.4627 150 29.6754V29.835ZM111.815 59.2445C112.915 59.2445 118.995 51.2318 130.057 35.2063C125.377 39.1772 121.122 43.5027 117.293 48.1827C113.429 52.8981 111.496 56.479 111.496 58.9254C111.496 59.1381 111.603 59.2445 111.815 59.2445Z" fill="white"/>
</svg>
