<svg width="80" height="68" viewBox="0 0 80 68" fill="none" xmlns="http://www.w3.org/2000/svg">
<path opacity="0.2" fill-rule="evenodd" clip-rule="evenodd" d="M15.0242 25.0484C12.9182 26.5963 10.8551 28.1382 8.83059 29.7336C6.4938 31.575 3.07654 31.2109 1.19794 28.9203C-0.680665 26.6297 -0.309224 23.28 2.02757 21.4385C5.13491 18.9899 8.35928 16.6377 11.4879 14.3555C12.2931 13.7681 13.0921 13.1853 13.881 12.6066C17.788 9.74122 21.5198 6.92923 24.9856 3.90945C26.255 2.80343 27.7065 1.73187 29.1243 0.842389L29.1304 0.83857C29.4205 0.656429 31.0605 -0.373015 33.2987 0.143628C36.1715 0.806736 37.0963 3.16783 37.3151 4.00458C37.5401 4.86492 37.484 5.5664 37.4669 5.76926C37.4419 6.06674 37.3963 6.30147 37.3695 6.42739C37.2842 6.82774 37.1632 7.15192 37.1404 7.21304C37.1394 7.21591 37.1385 7.21819 37.1379 7.21988C37.0602 7.43025 36.9703 7.63981 36.9119 7.7742C36.7775 8.08316 36.5908 8.49138 36.384 8.9361C35.9633 9.84089 35.3847 11.0573 34.7895 12.3004C34.1739 13.5862 33.5468 14.8876 33.0361 15.9476C32.5387 16.9799 32.1516 17.7833 31.9928 18.1204C29.7452 22.8904 26.7496 27.1392 24.0684 30.9422C23.7579 31.3826 23.4517 31.8169 23.1513 32.2454C22.9696 32.5047 22.7896 32.7623 22.6114 33.0185C23.991 31.9031 25.3416 30.6597 26.7214 29.2764C30.6446 25.3434 35.3328 22.5493 39.4602 20.1511C43.034 15.8173 47.2884 11.8809 52.0904 9.04457C52.6513 8.71327 53.2493 8.39556 53.861 8.14539C54.3743 7.93545 55.3595 7.57514 56.5635 7.56776C57.9605 7.5592 60.3872 8.11049 61.6963 10.5451C62.6876 12.3887 62.309 14.1209 62.1805 14.6428C61.8651 15.9237 61.1709 16.99 60.7985 17.5249C60.6144 17.7894 60.4146 18.0555 60.2037 18.3163C60.4746 18.2524 60.8601 18.1833 61.3124 18.169C61.6913 18.1571 64.6479 18.0927 66.2403 20.9113C67.5818 23.2858 66.5528 25.4447 66.4351 25.6917C66.4322 25.6979 66.4298 25.7029 66.428 25.7067C66.1675 26.2653 65.8664 26.6491 65.7662 26.775C65.6279 26.949 65.5053 27.0809 65.4334 27.1561C65.2003 27.3996 64.9764 27.5866 64.9157 27.6372L64.9101 27.6419C64.6038 27.8981 64.1295 28.2529 63.7585 28.5286C63.3548 28.8287 62.9436 29.1306 62.5649 29.4086C62.5074 29.4508 62.4506 29.4926 62.3946 29.5336C61.5002 30.4755 60.6279 31.7225 59.4667 33.3825C59.1802 33.7921 58.8761 34.2268 58.5498 34.6883C57.0869 36.7571 55.7613 38.964 54.4812 41.2934C56.8351 39.8305 59.0947 38.4155 61.385 36.84C62.734 35.912 64.2286 35.0371 65.5105 34.2867C65.746 34.1489 65.9743 34.0152 66.1932 33.8862C67.0954 33.1054 68.0256 32.3304 68.9879 31.5587C69.4599 31.1801 70.5541 30.4627 71.2399 30.0633C71.4272 29.9543 71.7251 29.7852 72.0508 29.6335C72.189 29.5691 72.5266 29.4151 72.9599 29.2892C73.1644 29.2299 73.6085 29.111 74.1836 29.0737C74.5864 29.0476 76.0898 28.9746 77.6058 29.9791C79.6332 31.3226 80.0934 33.4306 79.9854 34.8119C79.8995 35.9088 79.4869 36.691 79.3516 36.9396C79.0328 37.5257 78.6635 37.9371 78.5577 38.0549L78.5543 38.0587C78.259 38.3877 77.9275 38.691 77.6798 38.911C76.0474 40.3611 74.2678 41.5164 72.6834 42.4738C67.5468 47.0202 63.3792 51.8551 59.0687 57.7705C57.326 60.1621 53.9354 60.716 51.4956 59.0077C50.7705 58.5001 50.211 57.8498 49.8285 57.1237C47.6766 58.6956 45.6845 60.3288 43.8867 62.1072C43.878 62.12 43.8688 62.1337 43.8591 62.1482C43.7127 62.3666 43.5393 62.6381 43.3406 62.9492L43.3107 62.9961C43.1527 63.2436 42.925 63.6003 42.744 63.8584C42.6911 63.9337 42.5974 64.0653 42.4813 64.2112C42.4241 64.2832 42.3236 64.4065 42.1913 64.5491L42.1897 64.5508C42.1044 64.6428 41.7888 64.983 41.3077 65.3191C41.0821 65.4768 40.5233 65.8472 39.7097 66.0865C38.8771 66.3312 37.1194 66.6075 35.3211 65.5336C33.5851 64.4969 33.0318 62.9216 32.8601 62.21C32.681 61.4678 32.7088 60.8629 32.7272 60.6053C32.7664 60.0576 32.8857 59.6381 32.9195 59.5193C32.9711 59.3381 33.0229 59.1912 33.0553 59.1031C33.7343 57.2543 34.7614 55.3849 35.6494 53.8505C35.5768 53.9055 35.5041 53.9603 35.4312 54.015C33.7949 55.2429 31.7482 56.5686 29.8824 57.7773C28.8719 58.4318 27.9144 59.0521 27.1038 59.6038C24.4515 61.4092 22.4435 63.0432 21.1352 64.7783C21.1316 64.783 21.1267 64.7897 21.1204 64.7981C21.0241 64.9276 20.6188 65.4724 20.1125 65.918C20.1096 65.9206 20.1059 65.9239 20.1014 65.9279C19.9874 66.0294 19.3614 66.587 18.3954 66.9489C17.8811 67.1417 16.5756 67.5463 14.966 67.0985C13.0422 66.5632 11.9206 65.1806 11.4256 64.0055C11.0122 63.0241 11.0065 62.1757 11.0148 61.8373C11.0248 61.4256 11.0816 61.0988 11.1182 60.917C11.1916 60.553 11.2887 60.2712 11.3313 60.1512C11.5313 59.5888 11.9153 58.8709 12.0682 58.5849C12.0817 58.5598 12.0934 58.538 12.103 58.5199C12.1793 58.3762 12.2537 58.2368 12.3263 58.101C12.4947 57.7855 12.6529 57.4894 12.8006 57.2026C12.9224 56.9663 12.9844 56.8356 13.0082 56.7861C14.1429 53.2905 16.1359 50.7028 18.0658 48.6387C18.4298 48.2494 18.8019 47.8682 19.1715 47.499C18.9597 47.5892 18.7461 47.6782 18.5307 47.7659C18.5309 47.7658 18.5018 47.7779 18.4056 47.8194C18.3807 47.8302 18.347 47.8447 18.3086 47.8613C18.239 47.8914 18.1539 47.9282 18.0777 47.961C17.8148 48.074 17.4719 48.2197 17.0859 48.3742C16.3544 48.667 15.3026 49.0597 14.2187 49.3223C13.6778 49.4533 12.9762 49.5902 12.2099 49.6282C11.528 49.6621 10.2655 49.6503 8.93029 49.0518C7.30221 48.322 5.94561 46.8712 5.50542 44.8884C5.1448 43.2641 5.53318 41.8585 5.83043 41.0491C7.92695 35.3405 11.1939 30.5098 14.2025 26.2179C14.4791 25.8233 14.7531 25.4338 15.0242 25.0484ZM46.7565 28.2853C46.3452 28.8221 45.9439 29.3673 45.5535 29.9192C46.3791 29.115 47.2208 28.31 48.0814 27.5107C47.6347 27.774 47.1925 28.0319 46.7565 28.2853ZM12.3153 58.5646C12.3162 58.5625 12.3352 58.5377 12.3697 58.4966C12.3317 58.5462 12.3144 58.5667 12.3153 58.5646ZM44.0006 61.9445C44.0004 61.9449 43.9952 61.9522 43.9852 61.9652C43.9958 61.9506 44.0008 61.9441 44.0006 61.9445ZM51.9085 11.402C51.9098 11.4017 51.8994 11.4213 51.8732 11.4616C51.894 11.4225 51.9071 11.4023 51.9085 11.402ZM16.0544 44.6323C16.0517 44.6396 16.0491 44.6469 16.0464 44.6542L16.0474 44.6514C16.0488 44.6476 16.0512 44.6413 16.0544 44.6323Z" fill="#999999"/>
</svg>
