<svg width="167" height="101" viewBox="0 0 167 101" fill="none" xmlns="http://www.w3.org/2000/svg">
<path d="M41.8254 41.3111C42.0651 41.3454 42.5959 41.4138 43.4177 41.5166C44.2738 41.6193 44.8217 41.7734 45.0614 41.9789C45.3011 42.1501 45.421 42.4069 45.421 42.7493C45.421 43.0575 45.2498 43.3657 44.9073 43.6739C44.5991 43.9479 44.2738 44.0677 43.9314 44.0335L42.185 43.828C42.3219 45.232 42.5959 47.5777 43.0068 50.8651C43.4177 54.1183 43.6574 55.6592 43.7259 55.488C43.6917 55.8305 43.5376 56.1215 43.2636 56.3612C42.9897 56.601 42.6986 56.7208 42.3904 56.7208C41.774 56.7208 41.2604 55.8476 40.8494 54.1012C40.644 53.1081 40.4214 51.3445 40.1817 48.8105C39.8735 45.8313 39.6852 44.0677 39.6167 43.5198C36.8087 43.2801 33.2131 43.126 28.8299 43.0575L25.7479 43.0062C21.3305 49.6495 17.1699 53.8786 13.2661 55.6935C11.9648 56.3441 10.9375 56.6694 10.1841 56.6694C9.2938 56.6694 8.84863 56.2414 8.84863 55.3853C8.84863 54.9744 9.00273 54.6148 9.31092 54.3066C9.61912 53.9642 9.92731 53.793 10.2355 53.793C10.5437 53.793 10.8005 53.9299 11.006 54.2039C13.3346 53.2793 15.4063 51.9438 17.2212 50.1974C19.0362 48.4167 21.0394 46.0025 23.231 42.9548L21.1764 42.8521C19.5669 42.7836 18.4198 42.698 17.7349 42.5952C17.05 42.4583 16.7076 42.1672 16.7076 41.722C16.7076 41.3796 16.8446 41.0543 17.1185 40.7461C17.4267 40.4379 17.7691 40.2495 18.1458 40.1811C19.0019 40.318 21.2278 40.4721 24.8234 40.6434C28.1108 35.7122 31.5009 29.8737 34.9938 23.1277C38.4866 16.3474 40.6269 11.1766 41.4145 7.61522C41.5514 7.27278 41.774 6.98171 42.0822 6.74201C42.3904 6.5023 42.6815 6.38245 42.9554 6.38245C43.1951 6.38245 43.4177 6.57079 43.6232 6.94747C43.8629 7.32415 43.9827 7.70083 43.9827 8.07751C43.9827 8.41995 43.8971 8.67678 43.7259 8.848C43.178 10.8684 42.613 14.5667 42.0309 19.943C41.483 25.3193 41.209 29.1374 41.209 31.3975C41.209 34.1028 41.4145 37.4073 41.8254 41.3111ZM38.9489 31.9626C38.9489 28.093 39.3085 23.4359 40.0276 17.9911C38.1784 21.8606 36.0382 25.9356 33.6069 30.2161C31.1756 34.4966 29.0867 37.9895 27.3403 40.6947C32.0317 40.6947 36.0382 40.8146 39.3598 41.0543C39.0859 38.6915 38.9489 35.6609 38.9489 31.9626ZM43.7259 55.3339V55.488V55.3339Z" fill="#222222"/>
<path d="M126.776 57.3373C126.468 57.3373 126.211 57.1832 126.006 56.875C125.801 56.5668 125.698 56.173 125.698 55.6936C125.698 51.4816 125.527 47.5435 125.184 43.8794C124.876 40.1811 124.465 36.3972 123.951 32.5276C123.403 28.2814 122.958 24.4461 122.616 21.0217C122.308 17.5631 122.154 13.8305 122.154 9.82401C122.154 8.76245 122.359 8.07758 122.77 7.76938C123.249 7.46119 123.643 7.30709 123.951 7.30709C124.397 7.30709 124.619 7.61528 124.619 8.23167L124.362 11.4163C124.362 13.0943 124.534 16.1762 124.876 20.6622C125.253 25.1481 125.801 30.2675 126.52 36.0205C127.444 43.3487 128.009 48.9989 128.215 52.9712L130.269 48.3483C131.879 44.6842 133.077 41.8591 133.865 39.8729C134.653 37.8868 135.509 35.4212 136.433 32.4763C137.358 29.5313 138.488 25.5077 139.823 20.4053C139.755 18.6247 139.721 16.9981 139.721 15.5256C139.721 12.6491 139.892 10.5774 140.234 9.31035C140.611 8.18031 141.176 7.61528 141.929 7.61528C142.409 7.61528 142.768 7.97484 143.008 8.69396C143.248 9.37884 143.368 10.3034 143.368 11.4677C143.368 13.9675 142.974 16.9638 142.186 20.4567C142.22 21.3128 142.238 22.9051 142.238 25.2337C142.272 31.74 142.46 37.3731 142.803 42.133C143.179 46.8929 144.018 50.7111 145.319 53.5876C149.497 45.4718 152.648 38.195 154.771 31.7572C156.894 25.3193 157.955 19.1897 157.955 13.3682C157.955 11.4506 157.647 9.72128 157.031 8.18031C156.414 6.63934 155.558 5.86885 154.463 5.86885C153.606 5.86885 152.733 6.17705 151.843 6.79343L151.072 9.15625C150.696 9.84113 150.199 10.1836 149.583 10.1836C149.069 10.1836 148.812 9.8925 148.812 9.31035C148.812 8.93367 148.966 8.21455 149.275 7.15299C149.96 4.79017 151.774 3.60876 154.719 3.60876C155.781 3.60876 156.74 4.07105 157.596 4.99564C158.486 5.88597 159.171 6.9989 159.651 8.3344C160.164 9.63567 160.421 10.8171 160.421 11.8786C160.421 25.1995 156.158 39.3593 147.631 54.358C146.501 56.173 145.559 57.0804 144.806 57.0804C144.052 57.0804 143.179 55.334 142.186 51.8411C140.679 46.3621 139.926 38.623 139.926 28.6238C138.796 32.5276 137.426 36.7054 135.817 41.1571C134.207 45.6088 132.581 49.4269 130.937 52.6116C129.293 55.762 127.907 57.3373 126.776 57.3373Z" fill="#222222"/>
<path d="M103.147 26.7001L102.987 25.3777L83.4148 45.2675V28.8624C83.9425 28.4308 84.4418 27.9652 84.9094 27.4685C88.742 26.8211 92.2763 24.9837 95.0156 22.2146C98.3573 18.7566 100.233 14.1311 100.247 9.31212V8.74027H99.695C97.8334 8.44054 95.931 8.51526 94.0984 8.96008C92.2657 9.40491 90.5393 10.211 89.0194 11.3315C87.5409 7.70662 85.6418 4.26961 83.3614 1.0917L82.8988 0.448364L82.365 1.05596C79.6222 4.14605 77.3498 7.6268 75.6216 11.3851C74.0901 10.2391 72.3447 9.41434 70.4893 8.95996C68.6338 8.50559 66.7063 8.43087 64.8215 8.74027H64.2699V9.31212C64.2686 13.904 65.9762 18.3305 69.0574 21.7228C72.1387 25.1151 76.3711 27.2282 80.9238 27.6472C81.3508 28.0583 81.7779 28.4693 82.2227 28.8624V44.5348L63.238 25.3777L63.0778 26.7001C62.7744 29.3665 63.0673 32.0674 63.9354 34.6056C64.8034 37.1438 66.2246 39.4554 68.0954 41.3718C69.8916 43.2648 72.0458 44.7788 74.4319 45.8252C76.818 46.8716 79.388 47.4292 81.9914 47.4656V68.9102H83.2724V47.4656H84.0731C86.6749 47.4359 89.2443 46.8812 91.6284 45.8343C94.0125 44.7874 96.1628 43.2699 97.9513 41.3718C99.8634 39.4785 101.324 37.1751 102.224 34.6342C103.124 32.0933 103.439 29.3809 103.147 26.7001ZM76.2266 13.4938L76.8137 13.9942C78.4505 15.6158 79.7203 17.5724 80.537 19.731C81.3537 21.8895 81.698 24.1994 81.5466 26.5035H81.3864C79.6857 25.0351 78.3264 23.21 77.4041 21.1567C76.4819 19.1034 76.0192 16.872 76.0486 14.6197C76.067 14.239 76.1266 13.8615 76.2266 13.4938ZM88.4501 14.5839C88.5568 16.7185 88.2389 18.8531 87.5148 20.8628C86.7908 22.8726 85.6752 24.7173 84.2332 26.2891C83.7737 26.3632 83.3104 26.411 82.8454 26.432C82.6963 24.1266 83.0434 21.8159 83.8632 19.6573C84.6829 17.4987 85.9561 15.5428 87.596 13.9227L88.2366 13.3509C88.341 13.7554 88.4124 14.1677 88.4501 14.5839ZM97.3464 9.79463C97.8855 9.75935 98.4264 9.75935 98.9655 9.79463C98.8733 13.4945 97.586 17.064 95.2978 19.9651C93.0095 22.8661 89.8444 24.9414 86.2794 25.8781C88.8164 22.637 90.0824 18.5743 89.8379 14.4588C89.7536 13.8128 89.6227 13.1737 89.4465 12.5467C91.6922 10.7801 94.4583 9.81212 97.3108 9.79463H97.3464ZM82.7031 2.44986C84.7957 5.44464 86.5278 8.67791 87.8629 12.082C87.4666 12.3896 87.0865 12.7177 86.7242 13.0649C84.5229 15.1658 82.9565 17.8479 82.2049 20.8028C81.4594 17.835 79.8926 15.1398 77.6856 13.0292L76.6002 12.082C78.1315 8.57643 80.1898 5.32782 82.7031 2.44986ZM65.462 9.88398C67.1856 9.65644 68.9371 9.77967 70.6122 10.2463C72.2873 10.713 73.8518 11.5136 75.2124 12.6003C75.036 13.2227 74.9403 13.8654 74.9277 14.5124C74.8118 18.832 76.4049 23.0216 79.3581 26.164C75.9287 25.5107 72.7772 23.8283 70.3194 21.339C67.3409 18.2585 65.6095 14.1755 65.462 9.88398ZM64.2344 28.2191L82.027 46.1789C79.5965 46.1465 77.1973 45.6235 74.9721 44.6411C72.7469 43.6587 70.7411 42.237 69.0739 40.4604C67.4928 38.849 66.2497 36.9353 65.4184 34.8326C64.5871 32.7299 64.1845 30.481 64.2344 28.2191ZM97.1507 40.4604C95.4952 42.2279 93.504 43.6445 91.2946 44.6266C89.0852 45.6088 86.7024 46.1366 84.2866 46.1789L101.99 28.3084C102.036 30.5564 101.632 32.7908 100.8 34.8784C99.9687 36.9661 98.7276 38.8644 97.1507 40.4604Z" fill="#F2A89A"/>
<path d="M166.144 66.3089L0.0957031 68.1136L0.115919 69.9899L166.165 68.1852L166.144 66.3089Z" fill="#222222"/>
<path d="M58.9139 84.3546H56.364L55.7913 85.9431H54.9636L57.2878 79.8568H57.9901L60.3184 85.9431H59.4949L58.9139 84.3546ZM56.6064 83.6942H58.6756L57.6389 80.8475L56.6064 83.6942Z" fill="#222222"/>
<path d="M61.9445 85.2868H64.8288V85.9431H61.1377V79.8568H61.9445V85.2868Z" fill="#222222"/>
<path d="M65.7442 85.9431V79.8568H67.734C68.3944 79.8568 68.8905 79.9933 69.2221 80.2665C69.5565 80.5396 69.7237 80.9436 69.7237 81.4787C69.7237 81.7629 69.6429 82.0151 69.4813 82.2353C69.3196 82.4527 69.0995 82.6213 68.8208 82.7411C69.1497 82.8331 69.4088 83.0086 69.5983 83.2678C69.7906 83.5242 69.8868 83.8307 69.8868 84.1874C69.8868 84.7336 69.7098 85.1628 69.3559 85.4749C69.002 85.787 68.5017 85.9431 67.8552 85.9431H65.7442ZM66.5468 83.0964V85.2868H67.8719C68.2453 85.2868 68.5394 85.1907 68.7539 84.9984C68.9713 84.8033 69.08 84.5358 69.08 84.1958C69.08 83.4629 68.6815 83.0964 67.8845 83.0964H66.5468ZM66.5468 82.4527H67.7591C68.1102 82.4527 68.3903 82.3649 68.5993 82.1893C68.8111 82.0138 68.917 81.7755 68.917 81.4745C68.917 81.1401 68.8194 80.8977 68.6243 80.7472C68.4293 80.5939 68.1325 80.5173 67.734 80.5173H66.5468V82.4527Z" fill="#222222"/>
<path d="M74.4389 84.3546H71.889L71.3164 85.9431H70.4887L72.8129 79.8568H73.5151L75.8435 85.9431H75.02L74.4389 84.3546ZM72.1315 83.6942H74.2007L73.164 80.8475L72.1315 83.6942Z" fill="#222222"/>
<path d="M81.3404 85.9431H80.5336L77.4695 81.253V85.9431H76.6628V79.8568H77.4695L80.542 84.5678V79.8568H81.3404V85.9431Z" fill="#222222"/>
<path d="M86.2019 84.0244L86.3189 84.827L86.4903 84.1038L87.6942 79.8568H88.3714L89.546 84.1038L89.7132 84.8395L89.8428 84.0202L90.7875 79.8568H91.5943L90.1187 85.9431H89.3871L88.1331 81.508L88.037 81.044L87.9408 81.508L86.6408 85.9431H85.9093L84.4379 79.8568H85.2404L86.2019 84.0244Z" fill="#222222"/>
<path d="M95.6657 84.3546H93.1158L92.5432 85.9431H91.7155L94.0397 79.8568H94.7419L97.0703 85.9431H96.2468L95.6657 84.3546ZM93.3583 83.6942H95.4275L94.3908 80.8475L93.3583 83.6942Z" fill="#222222"/>
<path d="M98.6963 85.2868H101.581V85.9431H97.8896V79.8568H98.6963V85.2868Z" fill="#222222"/>
<path d="M104.289 83.2302C103.601 83.0323 103.099 82.7899 102.785 82.5028C102.472 82.213 102.316 81.8563 102.316 81.4327C102.316 80.9534 102.507 80.5577 102.889 80.2456C103.274 79.9306 103.772 79.7732 104.386 79.7732C104.804 79.7732 105.176 79.854 105.502 80.0156C105.83 80.1773 106.084 80.4002 106.262 80.6845C106.444 80.9687 106.534 81.2794 106.534 81.6166H105.727C105.727 81.2488 105.61 80.9604 105.376 80.7513C105.142 80.5396 104.812 80.4337 104.386 80.4337C103.99 80.4337 103.68 80.5214 103.458 80.697C103.237 80.8698 103.127 81.1108 103.127 81.4202C103.127 81.6682 103.232 81.8786 103.441 82.0514C103.653 82.2214 104.011 82.3774 104.515 82.5196C105.022 82.6617 105.418 82.8191 105.702 82.9919C105.989 83.1619 106.201 83.3612 106.338 83.5897C106.477 83.8182 106.547 84.0871 106.547 84.3964C106.547 84.8897 106.354 85.2854 105.97 85.5836C105.585 85.879 105.071 86.0267 104.427 86.0267C104.009 86.0267 103.619 85.9473 103.257 85.7884C102.895 85.6268 102.615 85.4066 102.417 85.128C102.222 84.8493 102.124 84.533 102.124 84.1791H102.931C102.931 84.5469 103.066 84.8381 103.336 85.0527C103.609 85.2645 103.973 85.3704 104.427 85.3704C104.851 85.3704 105.176 85.284 105.401 85.1112C105.627 84.9385 105.74 84.703 105.74 84.4048C105.74 84.1066 105.635 83.8767 105.426 83.7151C105.217 83.5507 104.838 83.389 104.289 83.2302Z" fill="#222222"/>
<path d="M112.257 85.9431H111.45V83.1299H108.382V85.9431H107.579V79.8568H108.382V82.4736H111.45V79.8568H112.257V85.9431Z" fill="#222222"/>
<path d="M52.3702 97.5515H49.7325V99.7084H52.7966V100.365H48.9299V94.2784H52.7548V94.9389H49.7325V96.8952H52.3702V97.5515Z" fill="#222222"/>
<path d="M53.7956 100.365V94.2784H55.5137C56.0432 94.2784 56.5113 94.3955 56.9182 94.6296C57.3251 94.8636 57.6386 95.1967 57.8587 95.6286C58.0817 96.0606 58.1945 96.5566 58.1973 97.1167V97.5055C58.1973 98.0796 58.0859 98.5826 57.8629 99.0145C57.6428 99.4465 57.3265 99.7781 56.914 100.009C56.5044 100.241 56.0264 100.359 55.4802 100.365H53.7956ZM54.5982 94.9389V99.7084H55.4426C56.0613 99.7084 56.542 99.5162 56.8848 99.1316C57.2303 98.747 57.4031 98.1994 57.4031 97.4888V97.1335C57.4031 96.4424 57.2401 95.9059 56.914 95.5241C56.5908 95.1395 56.1309 94.9445 55.5346 94.9389H54.5982Z" fill="#222222"/>
<path d="M59.4137 100.365V94.2784H61.1318C61.6613 94.2784 62.1294 94.3955 62.5363 94.6296C62.9432 94.8636 63.2567 95.1967 63.4769 95.6286C63.6998 96.0606 63.8127 96.5566 63.8154 97.1167V97.5055C63.8154 98.0796 63.704 98.5826 63.481 99.0145C63.2609 99.4465 62.9446 99.7781 62.5321 100.009C62.1225 100.241 61.6446 100.359 61.0983 100.365H59.4137ZM60.2163 94.9389V99.7084H61.0607C61.6794 99.7084 62.1601 99.5162 62.5029 99.1316C62.8484 98.747 63.0212 98.1994 63.0212 97.4888V97.1335C63.0212 96.4424 62.8582 95.9059 62.5321 95.5241C62.2089 95.1395 61.7491 94.9445 61.1527 94.9389H60.2163Z" fill="#222222"/>
<path d="M65.893 100.365H65.0904V94.2784H65.893V100.365Z" fill="#222222"/>
<path d="M72.042 100.365H71.2352L68.1712 95.6746V100.365H67.3644V94.2784H68.1712L71.2436 98.9895V94.2784H72.042V100.365Z" fill="#222222"/>
<path d="M77.9611 99.5663C77.7548 99.8617 77.4664 100.083 77.0958 100.231C76.7279 100.376 76.2988 100.448 75.8083 100.448C75.3122 100.448 74.8719 100.333 74.4874 100.101C74.1028 99.8673 73.8046 99.5357 73.5928 99.1065C73.3838 98.6773 73.2765 98.1799 73.2709 97.6142V97.0833C73.2709 96.1665 73.4841 95.4558 73.9105 94.9514C74.3397 94.447 74.9416 94.1948 75.7163 94.1948C76.3517 94.1948 76.8631 94.3579 77.2504 94.6839C77.6378 95.0072 77.8747 95.467 77.9611 96.0634H77.1585C77.008 95.258 76.5287 94.8553 75.7205 94.8553C75.1827 94.8553 74.7744 95.0448 74.4957 95.4238C74.2198 95.8 74.0805 96.3462 74.0777 97.0624V97.5598C74.0777 98.2426 74.2338 98.786 74.5459 99.1901C74.858 99.5914 75.2802 99.792 75.8125 99.792C76.1134 99.792 76.3768 99.7586 76.6025 99.6917C76.8282 99.6248 77.015 99.512 77.1627 99.3531V97.9862H75.7539V97.3341H77.9611V99.5663Z" fill="#222222"/>
<path d="M82.229 97.982V100.365H81.4264V94.2784H83.6712C84.3372 94.2784 84.8583 94.4484 85.2345 94.7884C85.6135 95.1284 85.803 95.5785 85.803 96.1386C85.803 96.7294 85.6177 97.185 85.2471 97.5055C84.8792 97.8232 84.3511 97.982 83.6628 97.982H82.229ZM82.229 97.3258H83.6712C84.1003 97.3258 84.4291 97.2254 84.6577 97.0248C84.8862 96.8214 85.0004 96.5287 85.0004 96.147C85.0004 95.7847 84.8862 95.4949 84.6577 95.2775C84.4291 95.0601 84.1156 94.9473 83.7171 94.9389H82.229V97.3258Z" fill="#222222"/>
<path d="M87.6339 99.7084H90.5182V100.365H86.8272V94.2784H87.6339V99.7084Z" fill="#222222"/>
<path d="M94.8781 98.7763H92.3282L91.7556 100.365H90.9279L93.2521 94.2784H93.9543L96.2827 100.365H95.4592L94.8781 98.7763ZM92.5707 98.1158H94.6399L93.6032 95.2691L92.5707 98.1158Z" fill="#222222"/>
<path d="M101.78 100.365H100.973L97.9087 95.6746V100.365H97.102V94.2784H97.9087L100.981 98.9895V94.2784H101.78V100.365Z" fill="#222222"/>
<path d="M107.883 100.365H107.076L104.012 95.6746V100.365H103.205V94.2784H104.012L107.084 98.9895V94.2784H107.883V100.365Z" fill="#222222"/>
<path d="M112.748 97.5515H110.111V99.7084H113.175V100.365H109.308V94.2784H113.133V94.9389H110.111V96.8952H112.748V97.5515Z" fill="#222222"/>
<path d="M116.406 97.9026H114.976V100.365H114.17V94.2784H116.184C116.87 94.2784 117.397 94.4345 117.764 94.7466C118.135 95.0587 118.32 95.513 118.32 96.1093C118.32 96.4883 118.217 96.8186 118.011 97.1C117.808 97.3815 117.523 97.5919 117.158 97.7312L118.588 100.315V100.365H117.727L116.406 97.9026ZM114.976 97.2463H116.209C116.608 97.2463 116.924 97.1432 117.158 96.937C117.395 96.7308 117.514 96.4549 117.514 96.1093C117.514 95.7331 117.401 95.4447 117.175 95.244C116.952 95.0434 116.629 94.9417 116.205 94.9389H114.976V97.2463Z" fill="#222222"/>
</svg>
