<svg width="130" height="101" viewBox="0 0 130 101" fill="none" xmlns="http://www.w3.org/2000/svg">
<path d="M20.0497 20.0525L20.5296 20.5331L20.2835 19.9622L18.9708 16.5114L19.4264 16.1742L22.3397 18.441L22.8199 18.8518L22.4976 18.2371L21.0523 14.9714L21.5952 14.5698L23.6444 19.3908L23.1521 19.755L20.0914 17.4015L19.7948 17.1378L19.962 17.4972L21.3041 21.1222L20.8118 21.4864L16.7795 18.1324L17.3196 17.7329L20.0497 20.0525Z" fill="#222222"/>
<path d="M29.0453 13.1182L27.1382 14.2305L28.052 15.7876L30.2675 14.4955L30.5455 14.9693L27.7497 16.5999L25.1711 12.2062L27.9367 10.5932L28.2165 11.07L26.0313 12.3445L26.8601 13.7568L28.7673 12.6445L29.0453 13.1182Z" fill="#222222"/>
<path d="M33.0232 13.609L30.8767 8.98877L32.1823 8.38598C32.5847 8.20021 32.9818 8.1248 33.3736 8.15975C33.7653 8.1947 34.121 8.3375 34.4407 8.58816C34.7624 8.83784 35.0231 9.1748 35.2228 9.59903L35.3599 9.89414C35.5624 10.3299 35.655 10.7509 35.638 11.157C35.623 11.5622 35.4996 11.9249 35.2677 12.2452C35.0379 12.5645 34.7165 12.8221 34.3034 13.0179L33.0232 13.609ZM31.7196 9.20855L33.4016 12.8292L34.0433 12.5329C34.5135 12.3159 34.811 12.0013 34.9359 11.5891C35.0629 11.1759 35.001 10.6996 34.7504 10.1601L34.6251 9.89039C34.3814 9.36574 34.0683 9.01571 33.6859 8.84029C33.3046 8.66177 32.8863 8.67501 32.4312 8.88002L31.7196 9.20855Z" fill="#222222"/>
<path d="M39.6704 10.6475L38.0181 5.82837L39.3793 5.36457C39.7988 5.22163 40.2015 5.18791 40.5874 5.26343C40.9734 5.33894 41.3122 5.51798 41.6039 5.80057C41.8978 6.08239 42.1218 6.44469 42.2761 6.88745L42.3817 7.19527C42.5375 7.64981 42.5857 8.07819 42.5264 8.48039C42.4692 8.88183 42.3086 9.2298 42.0446 9.52429C41.7829 9.81802 41.4363 10.0408 41.0051 10.1927L39.6704 10.6475ZM38.8333 6.13465L40.1281 9.91115L40.7971 9.6832C41.2873 9.51619 41.616 9.23416 41.7831 8.83712C41.9525 8.43933 41.9408 7.95911 41.7478 7.39644L41.6514 7.1151C41.4638 6.56788 41.189 6.18713 40.827 5.97285C40.4665 5.75562 40.0492 5.72529 39.5752 5.88188L38.8333 6.13465Z" fill="#222222"/>
<path d="M47.3441 8.23327L46.6934 8.40044L45.4182 3.46814L46.0689 3.30097L47.3441 8.23327Z" fill="#222222"/>
<path d="M53.4937 6.95479L52.8293 7.07575L49.5986 3.67358L50.3061 7.53514L49.6417 7.65609L48.7236 2.64502L49.388 2.52406L52.6288 5.94219L51.9182 2.06342L52.5756 1.94372L53.4937 6.95479Z" fill="#222222"/>
<path d="M60.4647 5.47019C60.3124 5.73038 60.0866 5.93442 59.7872 6.08232C59.49 6.22771 59.1368 6.31672 58.7275 6.34936C58.3136 6.38236 57.9385 6.31517 57.6021 6.14777C57.2656 5.97805 56.9945 5.7212 56.7891 5.37722C56.586 5.03305 56.4631 4.62515 56.4206 4.15351L56.3851 3.71057C56.3237 2.94559 56.454 2.33849 56.776 1.88926C57.1003 1.43985 57.5856 1.18937 58.2321 1.13781C58.7622 1.09553 59.1998 1.19753 59.5449 1.4438C59.8897 1.68774 60.1182 2.05563 60.2302 2.54746L59.5605 2.60087C59.381 1.93891 58.9541 1.63482 58.2798 1.6886C57.831 1.72439 57.503 1.90967 57.2959 2.24443C57.0909 2.57669 57.0112 3.04169 57.0568 3.63944L57.0901 4.05448C57.1358 4.62415 57.3024 5.06717 57.5899 5.38355C57.8772 5.6976 58.2429 5.83692 58.6871 5.8015C58.9382 5.78147 59.1557 5.73605 59.3396 5.66522C59.5234 5.5944 59.6717 5.48781 59.7843 5.34544L59.6927 4.20495L58.5173 4.29869L58.4737 3.7546L60.3153 3.60774L60.4647 5.47019Z" fill="#222222"/>
<path d="M67.2178 4.05907L67.1179 6.05097L66.4469 6.01752L66.7021 0.929443L68.5788 1.02298C69.1356 1.05073 69.5641 1.21456 69.8644 1.51446C70.1669 1.81448 70.3065 2.19862 70.283 2.66689C70.2582 3.16079 70.0842 3.53398 69.7609 3.78645C69.4401 4.03671 68.9919 4.1475 68.4165 4.11881L67.2178 4.05907ZM67.2453 3.51042L68.451 3.57052C68.8098 3.5884 69.0889 3.51823 69.2883 3.36002C69.4879 3.19947 69.5957 2.95961 69.6117 2.64044C69.6269 2.33758 69.5435 2.09053 69.3616 1.89929C69.1797 1.70805 68.9223 1.60063 68.5895 1.57704L67.3454 1.51503L67.2453 3.51042Z" fill="#222222"/>
<path d="M73.5469 6.01611L75.9376 6.35312L75.8604 6.89701L72.8011 6.46573L73.5166 1.42175L74.1853 1.51602L73.5469 6.01611Z" fill="#222222"/>
<path d="M81.1717 6.57469L79.0884 6.11048L78.3296 7.30361L77.6534 7.15293L80.6669 2.605L81.2407 2.73285L82.0283 8.12777L81.3555 7.97785L81.1717 6.57469ZM79.4075 5.61517L81.098 5.99187L80.7724 3.47809L79.4075 5.61517Z" fill="#222222"/>
<path d="M88.0268 9.92341L87.385 9.71353L86.1743 5.18729L84.9473 8.91643L84.3054 8.70656L85.8977 3.86731L86.5396 4.07719L87.7514 8.62222L88.9839 4.87646L89.6191 5.08416L88.0268 9.92341Z" fill="#222222"/>
<path d="M94.7228 12.6452L94.1061 12.37L93.3717 7.74362L91.7639 11.3251L91.1472 11.05L93.2336 6.40234L93.8504 6.67748L94.5839 11.3227L96.199 7.72527L96.8093 7.99755L94.7228 12.6452Z" fill="#222222"/>
<path d="M101.356 13.4643L99.4336 12.3781L98.5411 13.9475L100.774 15.2094L100.502 15.6869L97.6847 14.0945L100.203 9.66602L102.99 11.2412L102.717 11.7218L100.515 10.4771L99.7052 11.9005L101.627 12.9868L101.356 13.4643Z" fill="#222222"/>
<path d="M105.604 16.5056L104.618 15.8268L103.445 17.5207L102.888 17.1376L105.79 12.9504L107.179 13.907C107.652 14.2325 107.94 14.59 108.045 14.9793C108.152 15.37 108.063 15.7705 107.779 16.1808C107.598 16.4416 107.37 16.6198 107.093 16.7155C106.819 16.8126 106.522 16.8224 106.204 16.7449L105.958 19.2009L105.934 19.2354L105.341 18.8266L105.604 16.5056ZM104.931 15.3753L105.781 15.9608C106.056 16.15 106.323 16.2292 106.583 16.1985C106.845 16.1691 107.058 16.0355 107.223 15.7978C107.402 15.5389 107.462 15.2869 107.402 15.0417C107.344 14.7978 107.169 14.5744 106.879 14.3713L106.032 13.7879L104.931 15.3753Z" fill="#222222"/>
<path d="M0.170278 86.6838C0.136838 86.4665 0.120117 86.3327 0.120117 86.2826C0.354202 85.0285 1.58315 83.833 3.80695 82.696C5.56259 81.8767 7.63591 81.4671 10.0269 81.4671C11.4983 81.4671 12.953 81.6677 14.3909 82.069C15.3607 82.4034 16.0964 82.88 16.598 83.4986C17.0996 84.1173 17.3504 84.7443 17.3504 85.3797C17.3504 86.3494 16.9659 87.2105 16.1967 87.9629C15.4276 88.6986 14.5665 89.2671 13.6134 89.6684C11.4899 90.588 9.0655 91.098 6.34008 91.1983C6.55745 91.4659 6.90857 91.9089 7.39346 92.5276C7.87835 93.1295 8.2462 93.581 8.49701 93.8819C8.74781 94.1829 9.1073 94.6093 9.57547 95.161C10.0604 95.6961 10.4616 96.1057 10.7793 96.39C11.1137 96.691 11.5317 97.0421 12.0334 97.4434C12.535 97.8614 13.0115 98.1874 13.4629 98.4215C15.0347 99.2575 16.4057 99.6755 17.5761 99.6755L18.4289 99.6003C18.9974 99.5 19.4488 99.2659 19.7832 98.898C20.1176 98.5469 20.2848 98.154 20.2848 97.7193C20.2848 97.5521 20.2598 97.3681 20.2096 97.1675C20.1762 96.9836 20.2347 96.8916 20.3852 96.8916C20.5524 96.9083 20.661 97.0254 20.7112 97.2427C20.7781 97.4768 20.8115 97.7611 20.8115 98.0955C20.8115 98.4299 20.7279 98.8144 20.5607 99.2492C20.3768 99.8511 19.8668 100.311 19.0308 100.629C18.4958 100.829 17.9942 100.93 17.526 100.93C16.1215 100.93 14.7002 100.537 13.2623 99.7508C12.3092 99.2157 11.4481 98.5469 10.679 97.7443C9.92659 96.9585 9.29122 96.2479 8.77289 95.6125C8.27128 94.9771 7.70279 94.1913 7.06742 93.2549C6.44876 92.3019 6.01404 91.6665 5.76323 91.3488L5.58767 91.3237C4.31692 93.6646 3.68155 95.0774 3.68155 95.5623C3.68155 95.8131 3.79023 95.9385 4.0076 95.9385C4.22496 95.9385 4.51757 95.7128 4.88541 95.2614C5.25326 94.7932 5.50407 94.5675 5.63783 94.5842C5.73815 94.6845 5.62947 94.9019 5.31178 95.2363C5.27834 95.2697 5.21982 95.3617 5.13622 95.5122C5.05262 95.6459 4.97738 95.7546 4.91049 95.8382C4.86033 95.9218 4.78509 96.0305 4.68477 96.1643C4.58445 96.298 4.49249 96.4067 4.40888 96.4903C4.32528 96.5739 4.23332 96.6575 4.133 96.7411C3.93235 96.9083 3.75679 96.9919 3.60631 96.9919C3.45582 96.9919 3.24682 96.9585 2.9793 96.8916C2.71177 96.8414 2.57801 96.7328 2.57801 96.5656C2.57801 95.8131 3.26354 94.0659 4.63461 91.3237C4.08284 91.2736 3.80695 91.0729 3.80695 90.7218C3.80695 90.6549 3.81531 90.5713 3.83203 90.471C3.94907 90.1867 4.15808 90.0446 4.45904 90.0446C4.77673 90.0446 5.02754 90.1199 5.21146 90.2704C5.34522 90.0028 5.50407 89.7019 5.68799 89.3675C6.34008 88.197 6.66613 87.453 6.66613 87.1353C6.66613 87.0517 6.65777 86.9681 6.64105 86.8845C6.70793 86.4163 7.10922 85.806 7.84491 85.0536C8.59733 84.2845 9.2745 83.8999 9.87643 83.8999C10.0771 83.8999 10.3446 83.9751 10.679 84.1256C11.0134 84.2761 11.2141 84.4851 11.2809 84.7526C11.2977 84.8697 11.2977 84.9449 11.2809 84.9784C11.2809 84.9951 11.2391 84.9867 11.1555 84.9533C11.0719 84.9198 11.0218 84.9031 11.0051 84.9031C9.83463 84.9031 8.1626 86.8009 5.98896 90.5964C6.1896 90.68 6.38188 90.7218 6.56581 90.7218C6.76645 90.7218 6.93365 90.7134 7.06742 90.6967C8.77289 90.5128 10.4366 90.1115 12.0584 89.4929C13.697 88.8742 14.9678 88.0967 15.8707 87.1604C16.4559 86.5919 16.7485 85.9899 16.7485 85.3546C16.7485 83.4819 14.834 82.5456 11.0051 82.5456C8.81469 82.5456 6.72465 82.88 4.73493 83.5488C3.69827 83.9166 2.81209 84.4099 2.0764 85.0285C1.35742 85.6472 0.931053 86.3494 0.797291 87.1353C0.78057 87.2189 0.77221 87.3276 0.77221 87.4613C0.77221 87.5951 0.822371 87.7623 0.922693 87.9629C1.03974 88.1469 1.1735 88.289 1.32398 88.3893C1.47446 88.4896 1.68347 88.6067 1.95099 88.7404C2.23524 88.8742 2.41916 88.9745 2.50277 89.0414C2.60309 89.1083 2.62817 89.1835 2.57801 89.2671C2.52785 89.334 2.41916 89.3507 2.25196 89.3173C1.73363 89.2337 1.24874 88.9745 0.797291 88.5398C0.345842 88.1051 0.120117 87.6369 0.120117 87.1353C0.120117 86.9848 0.136838 86.8343 0.170278 86.6838Z" fill="#222222"/>
<path d="M19.0324 93.28C19.3334 92.6614 19.4838 92.1848 19.4838 91.8504C19.4838 91.516 19.442 91.2569 19.3584 91.0729C19.2915 90.8723 19.325 90.7051 19.4588 90.5713C19.6092 90.4376 19.7932 90.3874 20.0105 90.4208C20.3449 90.5044 20.5121 90.8806 20.5121 91.5495C20.5121 92.2183 20.1192 93.0961 19.3334 94.1829C19.3501 94.6344 19.5842 94.8601 20.0356 94.8601C20.4871 94.8601 21.1726 94.3752 22.0922 93.4054C22.5269 92.9038 22.7945 92.5778 22.8948 92.4273C23.0118 92.2768 23.1121 92.2266 23.1957 92.2768C23.2794 92.3102 23.3212 92.3437 23.3212 92.3771C23.3212 92.5443 23.0202 92.979 22.4183 93.6813C21.4652 94.8517 20.6208 95.4369 19.8851 95.4369C19.4002 95.4369 19.0575 95.2279 18.8568 94.8099C18.5224 95.161 18.1964 95.4871 17.8787 95.7881C17.2266 96.3398 16.4993 96.6157 15.6967 96.6157C15.2452 96.6157 14.869 96.507 14.5681 96.2897C13.9828 95.9385 13.6902 95.3115 13.6902 94.4086C13.6902 93.4221 14.0246 92.4189 14.6935 91.399C15.078 90.797 15.5295 90.2704 16.0478 89.8189C16.8671 89.0999 17.6446 88.7404 18.3803 88.7404C18.5642 88.7404 18.7398 88.7655 18.907 88.8157C19.4086 88.9829 19.6594 89.3006 19.6594 89.7687C19.6594 90.1533 19.5591 90.3456 19.3584 90.3456C19.2748 90.3122 19.233 90.1867 19.233 89.9694C19.233 89.6684 19.0658 89.5179 18.7314 89.5179C18.1462 89.5179 17.3938 90.053 16.4742 91.1231C15.5546 92.1932 15.0028 93.2717 14.8189 94.3585C14.7854 94.5424 14.7687 94.7514 14.7687 94.9855C14.7687 95.2029 14.8439 95.462 14.9944 95.763C15.1449 96.0472 15.4208 96.1893 15.8221 96.1893C16.2401 96.1893 16.6915 96.0054 17.1764 95.6376C17.6613 95.2697 18.096 94.8016 18.4806 94.2331L18.4054 94.0826C18.3385 93.8151 18.3719 93.5977 18.5057 93.4305C18.6395 93.2633 18.815 93.2131 19.0324 93.28Z" fill="#222222"/>
<path d="M31.3365 83.2478C31.5372 82.88 31.6375 82.5957 31.6375 82.3951C31.6375 82.0439 31.4954 81.8684 31.2111 81.8684C30.977 81.8684 30.6844 82.0021 30.3333 82.2697C28.9957 83.3063 27.6999 84.9449 26.4458 87.1854C25.4426 88.9912 24.7069 90.5379 24.2387 91.8253C25.3924 91.0395 26.6799 89.7604 28.1011 87.988C29.5391 86.2157 30.6176 84.6356 31.3365 83.2478ZM23.8625 92.8286C23.6619 93.3971 23.5532 93.7816 23.5365 93.9823C23.5198 94.1662 23.5114 94.4254 23.5114 94.7598C23.5114 95.0774 23.595 95.3701 23.7622 95.6376C24.0465 96.089 24.523 96.1225 25.1918 95.7379C25.6934 95.4704 26.3288 94.9855 27.0979 94.2832C27.8671 93.5643 28.4606 92.9122 28.8786 92.327C28.9121 92.2768 28.9622 92.2517 29.0291 92.2517C29.1796 92.2517 29.2214 92.3604 29.1545 92.5778C28.9037 93.0292 28.4356 93.6061 27.75 94.3083C27.0812 95.0106 26.4709 95.5707 25.9191 95.9887C25.3674 96.39 24.8156 96.5906 24.2638 96.5906C22.9931 96.5906 22.3577 95.972 22.3577 94.7347C22.3577 94.6845 22.3577 94.6344 22.3577 94.5842C22.4246 93.4138 23.0182 91.6498 24.1384 89.2922C25.2587 86.9179 26.2703 85.1288 27.1732 83.925L27.9507 82.9468C28.1346 82.7295 28.4021 82.462 28.7532 82.1443C29.422 81.5089 30.1076 81.1912 30.8098 81.1912C31.5288 81.1912 32.0137 81.4086 32.2645 81.8433C32.3481 81.9938 32.3899 82.2111 32.3899 82.4954C32.3899 82.7796 32.2645 83.1809 32.0137 83.6993C30.2915 86.6922 27.5745 89.7353 23.8625 92.8286Z" fill="#222222"/>
<path d="M29.7904 96.3148C29.5228 96.3148 29.2302 96.2312 28.9125 96.0639C28.6116 95.9135 28.3524 95.6961 28.135 95.4119C27.9177 95.1109 27.809 94.7932 27.809 94.4588C27.809 94.1244 27.8842 93.8067 28.0347 93.5057C28.3691 92.8035 28.9042 92.1263 29.6399 91.4742C30.3923 90.8054 31.1698 90.2369 31.9724 89.7687C32.7749 89.3006 33.4103 89.008 33.8785 88.8909C34.3466 88.7739 34.7981 88.7154 35.2328 88.7154C35.6843 88.7154 36.0688 88.8324 36.3865 89.0665C36.7042 89.2839 36.8631 89.5179 36.8631 89.7687C36.8631 89.8523 36.8547 89.9025 36.838 89.9192C36.8213 89.9359 36.7795 89.9276 36.7126 89.8941C36.5119 89.5765 36.0939 89.4176 35.4585 89.4176C34.8399 89.4176 34.1293 89.6266 33.3267 90.0446C32.5408 90.4459 31.7968 90.9559 31.0945 91.5745C30.5093 92.1263 29.991 92.7533 29.5395 93.4556C29.1048 94.1411 28.8875 94.6427 28.8875 94.9604C28.8875 95.5791 29.063 95.8884 29.4141 95.8884C29.7653 95.8884 30.3003 95.6041 31.0193 95.0356C32.2064 94.0324 33.0174 93.2967 33.4521 92.8286C34.9904 91.1732 35.818 90.3456 35.9351 90.3456C36.1357 90.3456 36.3782 90.4041 36.6624 90.5212C36.9467 90.6382 37.0386 90.7803 36.9383 90.9475C36.0856 92.1514 35.584 93.3636 35.4335 94.5842C35.4167 94.7347 35.4084 94.927 35.4084 95.161C35.4084 95.3951 35.4753 95.5874 35.609 95.7379C35.8598 96.0054 36.2026 96.0221 36.6373 95.7881C37.0721 95.554 37.674 95.0858 38.4431 94.3836C39.229 93.6813 39.856 92.9958 40.3242 92.327C40.391 92.2434 40.4663 92.2266 40.5499 92.2768C40.6335 92.3102 40.6753 92.3437 40.6753 92.3771C40.6753 92.6279 40.274 93.1797 39.4714 94.0324C38.6856 94.8684 38.0836 95.4369 37.6656 95.7379C36.8798 96.3231 36.1524 96.6157 35.4836 96.6157C34.8483 96.6157 34.4219 96.298 34.2045 95.6627C34.1544 95.462 34.1293 95.2363 34.1293 94.9855C34.1293 94.2331 34.2881 93.4389 34.6058 92.6028C34.5389 92.6363 34.2296 92.9707 33.6778 93.6061C33.1261 94.2414 32.4823 94.8517 31.7466 95.4369C31.0277 96.0221 30.3756 96.3148 29.7904 96.3148Z" fill="#222222"/>
<path d="M46.9964 88.916C47.3809 88.916 47.5732 89.125 47.5732 89.543C47.5732 89.9443 47.3809 90.5044 46.9964 91.2234C46.6118 91.9424 46.3275 92.5276 46.1436 92.979C45.8259 93.7482 45.6671 94.3668 45.6671 94.835C45.6671 95.2865 45.734 95.5874 45.8677 95.7379C46.1185 96.0054 46.4613 96.0221 46.896 95.7881C47.3308 95.5373 47.9327 95.0691 48.7018 94.3836C49.4877 93.6813 50.1147 92.9958 50.5829 92.327C50.6498 92.2434 50.725 92.2266 50.8086 92.2768C50.9089 92.3102 50.9591 92.352 50.9591 92.4022C50.9591 92.4356 50.9424 92.4774 50.9089 92.5276C50.6581 92.979 50.2067 93.5559 49.5546 94.2582C48.9025 94.9604 48.2755 95.5289 47.6735 95.9636C47.0716 96.3816 46.478 96.5906 45.8928 96.5906C45.3243 96.5739 44.923 96.4402 44.689 96.1893C44.4549 95.9553 44.3378 95.6543 44.3378 95.2865C44.3378 94.9186 44.3713 94.5675 44.4382 94.2331C44.505 93.8819 44.6304 93.4807 44.8144 93.0292C45.1153 92.3102 45.3745 91.7501 45.5919 91.3488C45.8259 90.9475 45.943 90.6884 45.943 90.5713C45.943 90.4376 45.8761 90.3707 45.7423 90.3707C45.4748 90.3707 44.9648 90.6967 44.2124 91.3488C43.6941 91.8337 42.925 92.7533 41.905 94.1077C40.9018 95.4453 40.3333 96.1559 40.1995 96.2395C39.5976 96.5405 39.2214 96.691 39.0709 96.691C38.9204 96.691 38.8452 96.6659 38.8452 96.6157C38.8452 96.5656 38.8619 96.4903 38.8954 96.39C38.9288 96.3064 39.0876 95.8549 39.3719 95.0356C39.6729 94.2164 39.9905 93.3218 40.3249 92.352C40.6761 91.3655 40.8851 90.772 40.952 90.5713C41.0356 90.3707 41.0857 90.2035 41.1024 90.0697C41.1359 89.9192 41.1693 89.7938 41.2028 89.6935C41.2362 89.5932 41.2947 89.4845 41.3783 89.3675C41.4787 89.2337 41.6041 89.1668 41.7545 89.1668C41.905 89.1501 42.0973 89.1668 42.3314 89.217C42.5655 89.2504 42.6825 89.3507 42.6825 89.5179C42.6825 89.635 42.5906 89.8941 42.4066 90.2954C42.2227 90.68 41.696 92.026 40.8266 94.3334C41.4285 93.5977 42.1893 92.7533 43.1089 91.8003C44.0285 90.8305 44.806 90.0948 45.4414 89.5932C46.0767 89.1417 46.5951 88.916 46.9964 88.916Z" fill="#222222"/>
<path d="M51.3649 91.4742C52.1173 90.8054 52.8948 90.2369 53.6974 89.7687C54.4999 89.3006 55.1353 89.008 55.6035 88.8909C56.0717 88.7739 56.5315 88.7154 56.9829 88.7154C57.4344 88.7154 57.8607 88.8658 58.262 89.1668C60.5527 83.8497 62.7431 81.1912 64.8331 81.1912C65.5354 81.1912 66.0119 81.3919 66.2627 81.7931C66.3797 81.9938 66.4383 82.1693 66.4383 82.3198C66.4383 82.7378 66.2543 83.2729 65.8865 83.925C65.5354 84.5604 64.9836 85.2626 64.2312 86.0317C63.4788 86.8009 62.4003 87.7539 60.9958 88.8909C59.5913 90.0112 58.8138 90.6382 58.6633 90.772C58.1283 92.0093 57.7102 93.2048 57.4093 94.3585C57.1083 95.5122 56.9578 96.3733 56.9578 96.9418C56.9578 97.5103 57.0582 97.9617 57.2588 98.2961C57.3591 98.5135 57.5096 98.6389 57.7102 98.6723C57.9109 98.7225 58.0781 98.6974 58.2119 98.5971C58.3623 98.5135 58.471 98.4382 58.5379 98.3714C58.6215 98.3045 58.7135 98.2376 58.8138 98.1707C58.9308 98.1205 59.0144 98.1122 59.0646 98.1456C59.1147 98.1791 59.1064 98.271 59.0395 98.4215C58.9057 98.5887 58.7803 98.7308 58.6633 98.8479C58.3958 99.0318 58.0781 99.1238 57.7102 99.1238C57.3591 99.1238 57.125 99.1154 57.008 99.0987C56.2054 98.9649 55.8041 98.3797 55.8041 97.3431C55.8041 96.3398 55.9379 95.4119 56.2054 94.5591C56.5733 93.3887 56.9077 92.4189 57.2086 91.6498C54.5334 94.7598 52.6356 96.3148 51.5154 96.3148C51.2478 96.3148 50.9552 96.2312 50.6375 96.0639C50.3366 95.9135 50.0774 95.6961 49.86 95.4119C49.6427 95.1109 49.534 94.7932 49.534 94.4588C49.534 94.1244 49.6092 93.8067 49.7597 93.5057C50.0941 92.8035 50.6292 92.1263 51.3649 91.4742ZM58.0614 89.5681C57.8607 89.4678 57.5096 89.4176 57.008 89.4176C56.5064 89.4176 55.8543 89.6266 55.0517 90.0446C54.2659 90.4459 53.5218 90.9559 52.8195 91.5745C52.2343 92.1263 51.716 92.7533 51.2646 93.4556C50.8298 94.1411 50.6125 94.6427 50.6125 94.9604C50.6125 95.5791 50.788 95.8884 51.1391 95.8884C51.4903 95.8884 52.0253 95.6041 52.7443 95.0356C54.6003 93.5141 56.2556 91.9758 57.7102 90.4208L58.0614 89.5681ZM65.41 83.2478C65.6273 82.8465 65.736 82.5121 65.736 82.2446C65.736 81.9603 65.6106 81.8182 65.3598 81.8182C65.1257 81.8182 64.808 81.9687 64.4067 82.2697C62.5675 83.6742 60.9038 86.0234 59.4157 89.3173C60.5025 88.615 61.6395 87.6787 62.8267 86.5083C64.0138 85.3379 64.8749 84.251 65.41 83.2478Z" fill="#222222"/>
<path d="M66.4571 98.3212C65.1362 98.3212 64.4757 97.853 64.4757 96.9167C64.4757 96.3148 64.7098 95.6125 65.178 94.8099C65.6628 93.9906 66.131 93.2382 66.5825 92.5527C67.0339 91.8504 67.5773 91.0311 68.2127 90.0948C68.8481 89.1417 69.2995 88.4646 69.567 88.0633C71.3561 85.5051 72.468 83.7912 72.9028 82.9218C72.5182 82.8883 72.0417 82.8716 71.4732 82.8716C69.4835 82.8716 67.8281 83.2645 66.5072 84.0504C65.6879 84.5353 65.2783 85.1372 65.2783 85.8562C65.2783 86.0903 65.3452 86.3076 65.4789 86.5083C65.6127 86.7089 65.7465 86.851 65.8802 86.9346C66.1477 87.1018 66.4487 87.2691 66.7831 87.4363C66.9838 87.5867 67.0172 87.6787 66.8834 87.7121C66.8333 87.7121 66.7747 87.7038 66.7079 87.6871C66.3233 87.6035 65.9053 87.361 65.4538 86.9597C65.0024 86.5584 64.7683 86.0986 64.7516 85.5803C64.6847 85.4131 64.6513 85.271 64.6513 85.1539C64.6513 84.435 64.9272 83.8163 65.4789 83.298C66.0474 82.7629 66.7748 82.3951 67.6609 82.1944C68.8648 81.9269 69.9349 81.7931 70.8712 81.7931C71.8243 81.7931 72.6269 81.8684 73.279 82.0189C73.3291 81.7681 73.3208 81.5674 73.2539 81.4169C73.187 81.2665 73.2455 81.1745 73.4294 81.141C73.4629 81.1243 73.488 81.116 73.5047 81.116C73.6886 81.116 73.8307 81.2497 73.9311 81.5173C73.9645 81.7012 73.9561 81.9185 73.906 82.1693C74.2069 82.2529 74.5079 82.3616 74.8089 82.4954C75.1266 82.6124 75.3606 82.7964 75.5111 83.0472C75.6616 83.2813 75.6115 83.3899 75.3606 83.3732C75.2102 83.3732 74.9677 83.3231 74.6333 83.2227C74.3156 83.1057 73.9896 83.0304 73.6552 82.997C73.1368 84.5018 72.1754 86.2993 70.7709 88.3893C67.7445 92.8536 66.2313 95.7045 66.2313 96.9418C66.2313 97.4935 66.4989 97.7694 67.0339 97.7694C67.8699 97.7694 69.2159 97.1508 71.0719 95.9135C73.9311 93.9237 76.3555 91.5244 78.3452 88.7154C78.3285 88.2472 78.3201 87.6787 78.3201 87.0099C78.3201 86.3411 78.3703 85.6806 78.4706 85.0285C78.5208 84.6774 78.7047 84.3514 79.0224 84.0504C79.3568 83.7494 79.6076 83.5989 79.7748 83.5989C79.9922 83.5989 80.1343 83.7912 80.2012 84.1758L80.2513 84.6272C80.2513 84.7777 80.2513 84.9282 80.2513 85.0787C80.2513 86.3662 80.0005 87.5282 79.4989 88.5649C79.4989 88.6318 79.4989 88.707 79.4989 88.7906C79.4989 90.6633 79.9086 92.352 80.7279 93.8569C81.5639 95.3617 82.5253 96.1141 83.6121 96.1141C84.5485 96.1141 85.3761 95.6292 86.0951 94.6594C87.2822 93.0376 87.8758 91.0562 87.8758 88.7154C87.8758 86.5919 87.4076 85.0285 86.4713 84.0253C85.9195 83.4401 85.2591 83.1475 84.49 83.1475C83.8546 83.1475 83.3112 83.3147 82.8597 83.6491C82.6758 83.7661 82.542 83.7578 82.4584 83.624C82.3748 83.4903 82.3832 83.3816 82.4835 83.298C83.3697 82.6459 84.2141 82.3198 85.0166 82.3198C85.8192 82.3198 86.4797 82.5038 86.998 82.8716C88.2855 83.7076 88.9292 85.3546 88.9292 87.8125C88.9292 88.8658 88.7787 89.9359 88.4778 91.0228C88.043 92.6112 87.3157 94.0157 86.2957 95.2363C85.2758 96.4569 84.1555 97.0672 82.935 97.0672C82.9182 97.0672 82.9015 97.0672 82.8848 97.0672C81.5639 97.0672 80.4604 96.4067 79.5742 95.0858C78.7047 93.7649 78.27 92.2852 78.27 90.6466C78.27 90.4459 78.2783 90.2369 78.2951 90.0195C77.4758 91.0562 76.4391 92.1681 75.1851 93.3553C73.9478 94.5257 72.7857 95.4871 71.6989 96.2395C69.8262 97.6273 68.0789 98.3212 66.4571 98.3212Z" fill="#222222"/>
<path d="M92.886 89.0916C93.304 89.0916 93.5549 89.2253 93.6385 89.4929C93.6719 89.6433 93.6468 89.7938 93.5632 89.9443C93.4963 90.0781 93.4462 90.1867 93.4127 90.2704C93.3793 90.354 93.3542 90.4208 93.3375 90.471C93.2539 90.6382 93.1703 90.797 93.0867 90.9475C92.1336 92.8536 91.632 94.0659 91.5819 94.5842C91.5651 94.7347 91.5568 94.927 91.5568 95.161C91.5568 95.3951 91.6236 95.5874 91.7574 95.7379C91.9915 96.0054 92.3259 96.0221 92.7607 95.7881C93.1954 95.554 93.7973 95.0858 94.5664 94.3836C95.3523 93.6813 95.9877 92.9958 96.4726 92.327C96.5394 92.2434 96.6147 92.2266 96.6983 92.2768C96.7819 92.3102 96.8237 92.352 96.8237 92.4022C96.8237 92.4356 96.807 92.4774 96.7735 92.5276C96.5227 92.979 96.0713 93.5559 95.4192 94.2582C94.3491 95.4119 93.4545 96.1225 92.7356 96.39C92.3176 96.5405 91.9664 96.6157 91.6822 96.6157C91.0134 96.6157 90.5703 96.298 90.3529 95.6627C90.3195 95.5456 90.3027 95.4035 90.3027 95.2363C90.3027 94.6511 90.5703 93.7649 91.1053 92.5778C91.0217 92.7617 90.6957 93.1797 90.1272 93.8318C89.9767 93.999 89.8597 93.999 89.7761 93.8318C89.7593 93.7983 89.751 93.7565 89.751 93.7064C89.751 93.6395 89.7844 93.5643 89.8513 93.4807C90.6706 92.4607 91.3143 91.5996 91.7825 90.8974C91.7491 90.8138 91.7658 90.7051 91.8327 90.5713C92.1671 89.635 92.4597 89.1417 92.7105 89.0916C92.7606 89.0916 92.8192 89.0916 92.886 89.0916ZM94.8674 85.7559L94.6668 86.5584C94.6668 86.7089 94.5581 86.9514 94.3407 87.2858C94.1233 87.6202 93.9561 87.7874 93.8391 87.7874C93.1201 87.7874 92.7607 87.6118 92.7607 87.2607C92.7607 87.1938 93.1201 86.8845 93.8391 86.3327L94.2655 86.0067C94.533 85.7726 94.7002 85.6555 94.7671 85.6555C94.834 85.6555 94.8674 85.689 94.8674 85.7559Z" fill="#222222"/>
<path d="M104.839 83.2478C105.04 82.88 105.14 82.5957 105.14 82.3951C105.14 82.0439 104.998 81.8684 104.714 81.8684C104.48 81.8684 104.187 82.0021 103.836 82.2697C102.498 83.3063 101.202 84.9449 99.9484 87.1854C98.9451 88.9912 98.2094 90.5379 97.7413 91.8253C98.895 91.0395 100.182 89.7604 101.604 87.988C103.042 86.2157 104.12 84.6356 104.839 83.2478ZM97.3651 92.8286C97.1644 93.3971 97.0557 93.7816 97.039 93.9823C97.0223 94.1662 97.0139 94.4254 97.0139 94.7598C97.0139 95.0774 97.0975 95.3701 97.2648 95.6376C97.549 96.089 98.0255 96.1225 98.6943 95.7379C99.1959 95.4704 99.8313 94.9855 100.6 94.2832C101.37 93.5643 101.963 92.9122 102.381 92.327C102.415 92.2768 102.465 92.2517 102.532 92.2517C102.682 92.2517 102.724 92.3604 102.657 92.5778C102.406 93.0292 101.938 93.6061 101.253 94.3083C100.584 95.0106 99.9734 95.5707 99.4217 95.9887C98.8699 96.39 98.3181 96.5906 97.7664 96.5906C96.4956 96.5906 95.8602 95.972 95.8602 94.7347C95.8602 94.6845 95.8602 94.6344 95.8602 94.5842C95.9271 93.4138 96.5207 91.6498 97.641 89.2922C98.7612 86.9179 99.7728 85.1288 100.676 83.925L101.453 82.9468C101.637 82.7295 101.905 82.462 102.256 82.1443C102.925 81.5089 103.61 81.1912 104.312 81.1912C105.031 81.1912 105.516 81.4086 105.767 81.8433C105.851 81.9938 105.892 82.2111 105.892 82.4954C105.892 82.7796 105.767 83.1809 105.516 83.6993C103.794 86.6922 101.077 89.7353 97.3651 92.8286Z" fill="#222222"/>
<path d="M102.29 96.2897C102.072 96.5405 102.022 96.7411 102.139 96.8916C102.273 97.0421 102.415 97.1173 102.566 97.1173C102.733 97.1173 102.9 97.0922 103.067 97.0421C103.786 96.8247 104.48 96.3984 105.149 95.763C105.834 95.1109 106.177 94.4504 106.177 93.7816C106.177 93.4138 105.768 93.0125 104.948 92.5778C104.564 92.3771 104.346 92.2601 104.296 92.2266C103.845 91.9257 103.56 91.6247 103.443 91.3237C103.209 91.725 102.833 92.3019 102.315 93.0543C102.198 93.188 102.089 93.2215 101.989 93.1546C101.888 93.071 101.88 92.9623 101.964 92.8286C102.649 91.8922 103.101 91.1064 103.318 90.471C103.435 89.5514 104.104 88.7237 105.324 87.988C106.545 87.2523 107.657 86.8845 108.66 86.8845C109.295 86.8845 109.739 87.0015 109.989 87.2356C110.257 87.453 110.391 87.6703 110.391 87.8877C110.391 88.1051 110.324 88.3559 110.19 88.6401C110.073 88.9244 109.822 89.1919 109.438 89.4427C109.337 89.5096 109.254 89.4929 109.187 89.3925C109.153 89.2922 109.22 89.1584 109.387 88.9912C109.571 88.8073 109.688 88.5649 109.739 88.2639C109.789 87.9629 109.655 87.779 109.337 87.7121C109.287 87.7121 109.237 87.7121 109.187 87.7121C108.535 87.7121 107.715 87.9546 106.729 88.4395C105.759 88.9244 104.998 89.5514 104.447 90.3205C104.229 90.6048 104.121 90.8974 104.121 91.1983C104.121 91.4826 104.321 91.7417 104.722 91.9758C104.89 92.0761 105.174 92.235 105.575 92.4524C105.977 92.6697 106.261 92.8286 106.428 92.9289C106.595 93.0292 106.796 93.1881 107.03 93.4054C107.264 93.6228 107.389 93.8234 107.406 94.0073C107.49 94.509 107.256 95.0607 106.704 95.6627C105.918 96.5321 104.748 97.1424 103.193 97.4935C102.841 97.5771 102.482 97.6189 102.114 97.6189C101.763 97.6189 101.521 97.4852 101.387 97.2177C101.337 97.1508 101.312 97.0421 101.312 96.8916C101.312 96.7578 101.445 96.5321 101.713 96.2144C101.964 95.9636 102.365 95.7212 102.917 95.4871C102.967 95.4704 103.009 95.4787 103.042 95.5122C103.076 95.5456 103.084 95.5874 103.067 95.6376C103.05 95.6877 102.958 95.7463 102.791 95.8131C102.641 95.88 102.474 96.0389 102.29 96.2897Z" fill="#222222"/>
<path d="M114.652 93.28C114.953 92.6614 115.103 92.1848 115.103 91.8504C115.103 91.516 115.061 91.2569 114.978 91.0729C114.911 90.8723 114.944 90.7051 115.078 90.5713C115.229 90.4376 115.413 90.3874 115.63 90.4208C115.964 90.5044 116.132 90.8806 116.132 91.5495C116.132 92.2183 115.739 93.0961 114.953 94.1829C114.969 94.6344 115.204 94.8601 115.655 94.8601C116.106 94.8601 116.792 94.3752 117.712 93.4054C118.146 92.9038 118.414 92.5778 118.514 92.4273C118.631 92.2768 118.732 92.2266 118.815 92.2768C118.899 92.3102 118.941 92.3437 118.941 92.3771C118.941 92.5443 118.64 92.979 118.038 93.6813C117.085 94.8517 116.24 95.4369 115.505 95.4369C115.02 95.4369 114.677 95.2279 114.476 94.8099C114.142 95.161 113.816 95.4871 113.498 95.7881C112.846 96.3398 112.119 96.6157 111.316 96.6157C110.865 96.6157 110.488 96.507 110.187 96.2897C109.602 95.9385 109.31 95.3115 109.31 94.4086C109.31 93.4221 109.644 92.4189 110.313 91.399C110.697 90.797 111.149 90.2704 111.667 89.8189C112.487 89.0999 113.264 88.7404 114 88.7404C114.184 88.7404 114.359 88.7655 114.526 88.8157C115.028 88.9829 115.279 89.3006 115.279 89.7687C115.279 90.1533 115.179 90.3456 114.978 90.3456C114.894 90.3122 114.852 90.1867 114.852 89.9694C114.852 89.6684 114.685 89.5179 114.351 89.5179C113.766 89.5179 113.013 90.053 112.094 91.1231C111.174 92.1932 110.622 93.2717 110.438 94.3585C110.405 94.5424 110.388 94.7514 110.388 94.9855C110.388 95.2029 110.463 95.462 110.614 95.763C110.764 96.0472 111.04 96.1893 111.441 96.1893C111.86 96.1893 112.311 96.0054 112.796 95.6376C113.281 95.2697 113.715 94.8016 114.1 94.2331L114.025 94.0826C113.958 93.8151 113.991 93.5977 114.125 93.4305C114.259 93.2633 114.434 93.2131 114.652 93.28Z" fill="#222222"/>
<path d="M125.25 88.916C125.635 88.916 125.827 89.125 125.827 89.543C125.827 89.9443 125.635 90.5044 125.25 91.2234C124.866 91.9424 124.582 92.5276 124.398 92.979C124.08 93.7482 123.921 94.3668 123.921 94.835C123.921 95.2865 123.988 95.5874 124.122 95.7379C124.373 96.0054 124.715 96.0221 125.15 95.7881C125.585 95.5373 126.187 95.0691 126.956 94.3836C127.742 93.6813 128.369 92.9958 128.837 92.327C128.904 92.2434 128.979 92.2266 129.063 92.2768C129.163 92.3102 129.213 92.352 129.213 92.4022C129.213 92.4356 129.196 92.4774 129.163 92.5276C128.912 92.979 128.461 93.5559 127.809 94.2582C127.157 94.9604 126.53 95.5289 125.928 95.9636C125.326 96.3816 124.732 96.5906 124.147 96.5906C123.578 96.5739 123.177 96.4402 122.943 96.1893C122.709 95.9553 122.592 95.6543 122.592 95.2865C122.592 94.9186 122.625 94.5675 122.692 94.2331C122.759 93.8819 122.885 93.4807 123.068 93.0292C123.369 92.3102 123.629 91.7501 123.846 91.3488C124.08 90.9475 124.197 90.6884 124.197 90.5713C124.197 90.4376 124.13 90.3707 123.996 90.3707C123.729 90.3707 123.219 90.6967 122.467 91.3488C121.948 91.8337 121.179 92.7533 120.159 94.1077C119.156 95.4453 118.587 96.1559 118.454 96.2395C117.852 96.5405 117.476 96.691 117.325 96.691C117.175 96.691 117.099 96.6659 117.099 96.6157C117.099 96.5656 117.116 96.4903 117.149 96.39C117.183 96.3064 117.342 95.8549 117.626 95.0356C117.927 94.2164 118.245 93.3218 118.579 92.352C118.93 91.3655 119.139 90.772 119.206 90.5713C119.29 90.3707 119.34 90.2035 119.357 90.0697C119.39 89.9192 119.423 89.7938 119.457 89.6935C119.49 89.5932 119.549 89.4845 119.632 89.3675C119.733 89.2337 119.858 89.1668 120.009 89.1668C120.159 89.1501 120.351 89.1668 120.586 89.217C120.82 89.2504 120.937 89.3507 120.937 89.5179C120.937 89.635 120.845 89.8941 120.661 90.2954C120.477 90.68 119.95 92.026 119.081 94.3334C119.683 93.5977 120.443 92.7533 121.363 91.8003C122.283 90.8305 123.06 90.0948 123.695 89.5932C124.331 89.1417 124.849 88.916 125.25 88.916Z" fill="#222222"/>
<path d="M76.5121 50.9552C76.408 50.9558 76.3054 50.9302 76.2138 50.8809C75.9156 50.7322 69.0426 47.0897 67.1783 40.1887C65.2519 33.0894 75.9901 26.176 76.45 25.8786C76.5546 25.8083 76.678 25.7708 76.8042 25.7708C76.9304 25.7708 77.0537 25.8083 77.1584 25.8786C77.2703 25.9406 87.9463 33.1018 84.6901 42.617C82.2914 49.6543 76.885 50.8933 76.6488 50.8933L76.5121 50.9552ZM76.8228 27.2167C74.9958 28.4557 66.9671 34.3407 68.4585 39.8417C69.9996 45.541 75.4681 48.9481 76.624 49.6048C77.6307 49.3074 81.5954 47.8083 83.4845 42.171C86.0572 34.5761 78.538 28.5052 76.8228 27.2167Z" fill="#D05278"/>
<path d="M54.5635 62.0439H54.4517C46.4602 61.982 41.1905 52.9004 40.9668 52.5039C40.9003 52.3883 40.8706 52.2553 40.8817 52.1226C40.8928 51.9898 40.9441 51.8635 41.0289 51.7605C41.3023 51.4508 47.6906 44.0294 54.9364 44.4259C62.1822 44.8223 66.5943 54.796 66.7807 55.2172C66.8329 55.3122 66.8603 55.4187 66.8603 55.527C66.8603 55.6352 66.8329 55.7418 66.7807 55.8367C65.3746 57.7532 63.5363 59.3135 61.4142 60.3917C59.292 61.4699 56.9454 62.0359 54.5635 62.0439ZM42.3339 52.2685C43.4276 53.9783 48.1131 60.6934 54.4517 60.743H54.5635C56.6552 60.7153 58.7141 60.2214 60.5894 59.2974C62.4647 58.3734 64.1088 57.0428 65.4011 55.4031C64.5933 53.6933 60.6535 46.0365 54.8618 45.7268C49.0701 45.417 43.6762 50.8932 42.3339 52.2933V52.2685Z" fill="#D05278"/>
<path d="M59.3487 42.2203C55.22 42.351 51.1868 40.9667 48.0139 38.33C42.0234 33.0272 44.1362 22.7314 44.2232 22.2978C44.252 22.1678 44.3197 22.0497 44.4174 21.959C44.515 21.8683 44.638 21.8093 44.7701 21.7898C45.1802 21.7898 54.9117 20.4022 60.0695 25.5067C65.2273 30.6112 63.3879 40.9814 63.3134 41.4274C63.2901 41.5569 63.2275 41.6761 63.1342 41.7692C63.0409 41.8622 62.9213 41.9245 62.7914 41.9477C61.6552 42.1483 60.5023 42.2395 59.3487 42.2203ZM45.4288 23.0288C45.1057 25.0359 44.1859 33.1511 48.8839 37.376C53.5819 41.6008 60.3181 40.9937 62.0954 40.746C62.3812 38.7141 63.2636 30.413 59.1498 26.3864C55.036 22.3597 47.3925 22.8305 45.4288 23.0288Z" fill="#D05278"/>
<path d="M81.6327 67.5944C81.4729 67.5951 81.3183 67.5378 81.1977 67.4333C61.5732 50.2489 49.8407 53.1604 49.7164 53.1852C49.634 53.2094 49.5475 53.2167 49.4622 53.2065C49.3768 53.1964 49.2945 53.169 49.2201 53.1262C49.1457 53.0833 49.0808 53.0258 49.0294 52.9571C48.978 52.8885 48.9411 52.8101 48.921 52.7268C48.8985 52.6446 48.8926 52.5588 48.9036 52.4744C48.9145 52.3899 48.9422 52.3084 48.985 52.2347C49.0277 52.161 49.0847 52.0964 49.1527 52.0448C49.2206 51.9931 49.2982 51.9554 49.3809 51.9339C49.878 51.7976 61.9088 48.8117 82.0677 66.4545C82.1972 66.571 82.276 66.7332 82.2876 66.9066C82.2992 67.08 82.2426 67.2512 82.1299 67.3838C82.0653 67.4501 81.988 67.5029 81.9026 67.5391C81.8173 67.5753 81.7255 67.5941 81.6327 67.5944Z" fill="#D05278"/>
<path d="M81.173 66.9997C81.0629 66.9988 80.9549 66.9699 80.8592 66.9157C80.7635 66.8615 80.6833 66.7838 80.6261 66.69C80.4397 66.4174 62.9777 38.7018 51.8169 29.36C51.751 29.3052 51.6966 29.2378 51.657 29.1617C51.6175 29.0857 51.5935 29.0026 51.5866 28.9172C51.5796 28.8318 51.5898 28.7459 51.6166 28.6645C51.6433 28.5832 51.6861 28.5079 51.7424 28.4432C51.8536 28.3113 52.0124 28.2284 52.1844 28.2121C52.3565 28.1959 52.528 28.2477 52.6621 28.3564C63.972 37.8593 81.0114 64.8811 81.7944 66.021C81.8867 66.1688 81.9163 66.3472 81.8767 66.5168C81.837 66.6864 81.7315 66.8334 81.5831 66.9254C81.457 66.9906 81.3141 67.0165 81.173 66.9997Z" fill="#D05278"/>
<path d="M53.2089 57.4722C53.047 57.4758 52.8897 57.4175 52.7695 57.3092C52.6493 57.2009 52.5753 57.0509 52.5626 56.8899C52.5452 56.7175 52.5969 56.5452 52.7063 56.4107C52.8157 56.2761 52.974 56.19 53.1468 56.1713L64.1211 55.0562L54.3772 49.518C54.226 49.4322 54.115 49.2902 54.0684 49.1231C54.0218 48.956 54.0435 48.7773 54.1286 48.626C54.217 48.4776 54.3594 48.369 54.5261 48.3229C54.6929 48.2767 54.871 48.2965 55.0235 48.3782L66.5447 54.9323C66.6642 55.0032 66.7592 55.1089 66.817 55.2351C66.8747 55.3613 66.8925 55.502 66.8678 55.6385C66.8368 55.7739 66.7636 55.896 66.6586 55.9872C66.5537 56.0785 66.4224 56.1343 66.2837 56.1465L53.2089 57.4598V57.4722Z" fill="#D05278"/>
<path d="M63.1515 40.8079C63.0416 40.81 62.9335 40.7799 62.8408 40.7212L49.7909 33.7334C49.7141 33.6945 49.6461 33.6403 49.5911 33.5743C49.536 33.5083 49.495 33.4318 49.4706 33.3495C49.4462 33.2672 49.4388 33.1808 49.449 33.0955C49.4592 33.0103 49.4867 32.928 49.5299 32.8537C49.5702 32.7785 49.6252 32.712 49.6916 32.658C49.7579 32.6041 49.8344 32.5639 49.9165 32.5397C49.9986 32.5155 50.0847 32.5078 50.1698 32.517C50.2549 32.5263 50.3373 32.5523 50.4123 32.5936L61.5979 38.6273L56.9497 28.9262C56.9102 28.8494 56.8869 28.7654 56.8813 28.6793C56.8756 28.5932 56.8878 28.5069 56.9169 28.4256C56.946 28.3443 56.9915 28.2699 57.0506 28.2068C57.1096 28.1438 57.181 28.0934 57.2604 28.0589C57.337 28.021 57.4204 27.9985 57.5058 27.993C57.5911 27.9874 57.6768 27.9987 57.7577 28.0264C57.8386 28.0541 57.9132 28.0975 57.9772 28.1541C58.0412 28.2107 58.0932 28.2795 58.1304 28.3563L63.6362 39.8663C63.6978 39.9902 63.7177 40.1306 63.6931 40.2667C63.6685 40.4028 63.6006 40.5274 63.4995 40.622C63.4063 40.7193 63.2844 40.7844 63.1515 40.8079Z" fill="#D05278"/>
<path d="M76.5125 50.955C76.3813 50.9565 76.2528 50.9182 76.1441 50.8452C76.0353 50.7722 75.9514 50.6679 75.9035 50.5462L71.2677 38.9123C71.2354 38.8335 71.2191 38.749 71.2197 38.6638C71.2204 38.5786 71.238 38.4945 71.2715 38.4161C71.305 38.3378 71.3538 38.2668 71.415 38.2074C71.4762 38.1479 71.5486 38.1012 71.6281 38.0698C71.7896 38.0044 71.9706 38.0054 72.1314 38.0728C72.2921 38.1401 72.4195 38.2683 72.4856 38.4291L76.4876 48.4771L80.0919 38.5654C80.1512 38.4011 80.2736 38.267 80.4321 38.1927C80.5906 38.1183 80.7722 38.1098 80.937 38.1689C81.1018 38.2281 81.2363 38.3501 81.3109 38.5081C81.3855 38.6661 81.394 38.8471 81.3347 39.0114L77.1463 50.509C77.1027 50.632 77.0219 50.7386 76.9151 50.814C76.8083 50.8894 76.6807 50.9301 76.5498 50.9303L76.5125 50.955Z" fill="#D05278"/>
<path d="M76.5122 50.9551C76.3438 50.9554 76.1817 50.8914 76.0592 50.7761C75.9366 50.6609 75.8631 50.5033 75.8535 50.3357L75.0457 32.0362C75.0389 31.864 75.1002 31.6961 75.2165 31.5687C75.3327 31.4412 75.4946 31.3644 75.6671 31.3547C75.8401 31.3543 76.0068 31.4192 76.1337 31.5365C76.2606 31.6538 76.3381 31.8146 76.3507 31.9866L77.1709 50.2737C77.1743 50.36 77.1605 50.446 77.1304 50.527C77.1004 50.6079 77.0546 50.6821 76.9957 50.7454C76.9369 50.8087 76.8661 50.8598 76.7874 50.8958C76.7087 50.9318 76.6236 50.952 76.5371 50.9551H76.5122Z" fill="#D05278"/>
</svg>
