<svg width="181" height="155" viewBox="0 0 181 155" fill="none" xmlns="http://www.w3.org/2000/svg">
<path opacity="0.2" fill-rule="evenodd" clip-rule="evenodd" d="M33.9924 57.6882C29.2275 61.2531 24.5597 64.8041 19.9792 68.4784C14.6922 72.7194 6.96067 71.8808 2.71033 66.6054C-1.54 61.33 -0.699618 53.6154 4.58739 49.3744C11.6177 43.7349 18.9129 38.3178 25.9913 33.0617C27.8132 31.7088 29.6208 30.3666 31.4058 29.0339C40.2454 22.4347 48.6886 15.9585 56.5299 9.00372C59.4019 6.45648 62.6858 3.98862 65.8937 1.94008L65.9075 1.93128C66.564 1.5118 70.2744 -0.859077 75.3384 0.330785C81.8379 1.85797 83.9305 7.29573 84.4255 9.2228C84.9345 11.2042 84.8076 12.8198 84.769 13.287C84.7123 13.9721 84.609 14.5127 84.5484 14.8027C84.3556 15.7247 84.0818 16.4713 84.0302 16.6121C84.0278 16.6187 84.0259 16.624 84.0245 16.6279C83.8487 17.1123 83.6454 17.595 83.5131 17.9045C83.2091 18.616 82.7866 19.5562 82.3188 20.5804C81.367 22.6642 80.0579 25.4656 78.7112 28.3287C77.3183 31.2898 75.8997 34.2871 74.7441 36.7284C73.6188 39.1059 72.743 40.9562 72.3837 41.7324C67.2984 52.7181 60.5211 62.5033 54.4547 71.262C53.7523 72.2761 53.0594 73.2765 52.3798 74.2633C51.9686 74.8604 51.5614 75.4538 51.1583 76.0438C54.2796 73.475 57.3353 70.6113 60.4571 67.4256C69.3333 58.3675 79.9404 51.9326 89.2788 46.4092C97.3645 36.4282 106.99 27.3625 117.855 20.8302C119.124 20.0672 120.476 19.3355 121.86 18.7594C123.022 18.2759 125.251 17.446 127.975 17.4291C131.136 17.4093 136.626 18.679 139.588 24.286C141.831 28.5319 140.974 32.5214 140.683 33.7234C139.97 36.6734 138.399 39.1291 137.557 40.361C137.14 40.9701 136.688 41.583 136.211 42.1837C136.824 42.0365 137.696 41.8772 138.719 41.8445C139.577 41.817 146.266 41.6687 149.869 48.1601C152.904 53.6287 150.576 58.6008 150.309 59.1698C150.303 59.184 150.297 59.1955 150.293 59.2042C149.704 60.4908 149.023 61.3746 148.796 61.6647C148.483 62.0653 148.206 62.3691 148.043 62.5422C147.516 63.103 147.009 63.5338 146.872 63.6504L146.859 63.6612C146.166 64.2512 145.093 65.0684 144.254 65.7033C143.34 66.3943 142.41 67.0896 141.553 67.7299C141.423 67.8272 141.294 67.9233 141.168 68.0179C139.144 70.187 137.171 73.059 134.543 76.8822C133.895 77.8254 133.207 78.8266 132.469 79.8894C129.159 84.6539 126.16 89.7366 123.264 95.1015C128.589 91.7323 133.702 88.4734 138.884 84.845C141.936 82.7078 145.317 80.6928 148.218 78.9646C148.75 78.6471 149.267 78.3393 149.762 78.0422C151.803 76.244 153.908 74.459 156.085 72.6817C157.153 71.8098 159.629 70.1577 161.18 69.2378C161.604 68.9866 162.278 68.5973 163.015 68.2478C163.328 68.0996 164.091 67.7448 165.072 67.455C165.534 67.3183 166.539 67.0444 167.84 66.9587C168.752 66.8987 172.153 66.7303 175.583 69.0439C180.17 72.138 181.211 76.9928 180.967 80.1741C180.773 82.7003 179.839 84.5017 179.533 85.0744C178.812 86.4242 177.976 87.3715 177.737 87.643L177.729 87.6517C177.061 88.4095 176.311 89.1079 175.751 89.6147C172.057 92.9544 168.031 95.6151 164.446 97.82C152.825 108.291 143.395 119.426 133.643 133.049C129.7 138.557 122.029 139.833 116.509 135.899C114.868 134.73 113.602 133.232 112.737 131.56C107.868 135.18 103.361 138.941 99.2936 143.037C99.274 143.066 99.2532 143.098 99.2312 143.131C98.9 143.634 98.5076 144.26 98.0581 144.976L97.9905 145.084C97.633 145.654 97.1179 146.476 96.7083 147.07C96.5887 147.244 96.3767 147.547 96.114 147.883C95.9845 148.048 95.7571 148.332 95.4578 148.661L95.4542 148.665C95.2611 148.877 94.5471 149.66 93.4588 150.434C92.9482 150.797 91.6841 151.651 89.8432 152.201C87.9595 152.765 83.9827 153.402 79.914 150.928C75.9862 148.541 74.7344 144.913 74.3459 143.274C73.9406 141.564 74.0036 140.171 74.0453 139.578C74.1339 138.317 74.4038 137.35 74.4803 137.077C74.597 136.66 74.7144 136.321 74.7876 136.118C76.3238 131.86 78.6477 127.555 80.6568 124.021C80.4925 124.148 80.328 124.274 80.163 124.4C76.4609 127.228 71.8304 130.281 67.6088 133.065C65.3226 134.572 63.1563 136.001 61.3223 137.272C55.3214 141.429 50.7784 145.193 47.8184 149.189C47.8103 149.2 47.7991 149.215 47.7849 149.234C47.567 149.533 46.65 150.787 45.5045 151.814C45.4979 151.819 45.4896 151.827 45.4794 151.836C45.2216 152.07 43.8052 153.354 41.6196 154.188C40.4559 154.632 37.5023 155.564 33.8606 154.532C29.508 153.299 26.9704 150.115 25.8504 147.409C24.915 145.149 24.9023 143.195 24.9209 142.415C24.9436 141.467 25.0721 140.714 25.155 140.296C25.3211 139.457 25.5406 138.809 25.6372 138.532C26.0897 137.237 26.9583 135.584 27.3044 134.925C27.3348 134.867 27.3612 134.817 27.383 134.775C27.5556 134.444 27.7241 134.123 27.8882 133.81C28.2693 133.084 28.6271 132.402 28.9614 131.741C29.2369 131.197 29.3771 130.896 29.4311 130.782C31.9982 122.732 36.5074 116.772 40.8738 112.018C41.6974 111.121 42.5393 110.244 43.3754 109.393C42.8963 109.601 42.4131 109.806 41.9258 110.008C41.9262 110.008 41.8604 110.036 41.6427 110.131C41.5862 110.156 41.51 110.19 41.4232 110.228C41.2657 110.297 41.0733 110.382 40.9007 110.457C40.306 110.718 39.5301 111.053 38.6568 111.409C37.0019 112.083 34.6221 112.988 32.1698 113.592C30.946 113.894 29.3587 114.21 27.625 114.297C26.0821 114.375 23.2258 114.348 20.2048 112.97C16.5212 111.289 13.452 107.947 12.456 103.381C11.6401 99.64 12.5188 96.4028 13.1913 94.5388C17.9347 81.3916 25.3263 70.2661 32.1332 60.3816C32.759 59.4729 33.3789 58.5757 33.9924 57.6882ZM105.787 65.1429C104.856 66.3792 103.948 67.6348 103.065 68.9058C104.933 67.0537 106.837 65.1999 108.784 63.359C107.774 63.9653 106.773 64.5592 105.787 65.1429ZM27.8634 134.878C27.8654 134.873 27.9084 134.816 27.9866 134.722C27.9005 134.836 27.8614 134.883 27.8634 134.878ZM99.5513 142.662C99.551 142.663 99.5391 142.68 99.5165 142.71C99.5404 142.676 99.5517 142.661 99.5513 142.662ZM117.443 26.2595C117.446 26.2589 117.423 26.304 117.363 26.3969C117.41 26.3067 117.44 26.2602 117.443 26.2595ZM36.3231 102.791C36.317 102.808 36.311 102.825 36.3049 102.841L36.3073 102.835C36.3104 102.826 36.3159 102.812 36.3231 102.791Z" fill="#D05278"/>
</svg>
