<svg width="194" height="101" viewBox="0 0 194 101" fill="none" xmlns="http://www.w3.org/2000/svg">
<path d="M100.019 91.2176C92.4592 91.2176 85.0693 88.9706 78.7837 84.7608C72.4981 80.5509 67.5991 74.5673 64.7061 67.5666C61.8132 60.5659 61.0563 52.8625 62.5311 45.4306C64.0059 37.9987 67.6462 31.172 72.9917 25.8139C78.3371 20.4558 85.1477 16.8069 92.562 15.3286C99.9764 13.8503 107.662 14.609 114.646 17.5088C121.63 20.4086 127.599 25.3192 131.799 31.6197C135.999 37.9202 138.241 45.3275 138.241 52.905C138.229 63.0625 134.198 72.8006 127.033 79.983C119.867 87.1654 110.152 91.2057 100.019 91.2176ZM100.019 18.7396C93.2775 18.7396 86.6875 20.7434 81.0823 24.4975C75.4771 28.2516 71.1084 33.5876 68.5286 39.8305C65.9488 46.0734 65.2738 52.9429 66.589 59.5704C67.9041 66.1978 71.1504 72.2855 75.9172 77.0636C80.6841 81.8418 86.7574 85.0957 93.3692 86.414C99.981 87.7323 106.834 87.0557 113.063 84.4698C119.291 81.8839 124.614 77.5048 128.359 71.8863C132.105 66.2678 134.104 59.6623 134.104 52.905C134.092 43.8474 130.497 35.1642 124.107 28.7595C117.718 22.3549 109.055 18.7515 100.019 18.7396Z" fill="#D05278" fill-opacity="0.5"/>
<path d="M83.5141 68.5955L82.9614 68.0865C79.8416 64.7916 77.5915 60.7684 76.4152 56.3814C75.2389 51.9945 75.1735 47.3826 76.2251 42.9639L79.8098 25.8363L80.721 27.1388C81.0197 27.5581 88.1891 37.7987 89.0106 48.9826C89.5573 55.7138 87.7745 62.4283 83.9622 67.9966L83.5141 68.5955ZM80.5268 29.3097L77.5395 43.2484C76.587 47.3041 76.6161 51.5292 77.6242 55.5713C78.6324 59.6135 80.5904 63.3553 83.3348 66.4845C86.564 61.2861 88.0649 55.195 87.6216 49.0874C87.0092 40.6134 82.4536 32.4688 80.4969 29.3097H80.5268Z" fill="#222222"/>
<path d="M102.17 76.9044C99.3358 76.8928 96.5204 76.4485 93.8201 75.5869L93.4467 75.4821L93.3571 75.1078C92.6065 71.9084 93.1431 68.5414 94.8507 65.7355C96.9717 62.4717 100.751 60.3906 106.083 59.5372C120.676 57.2166 126.665 60.3008 126.904 60.4206L127.531 60.7649L127.188 61.3788C127.173 61.5584 118.346 76.9044 102.17 76.9044ZM94.6117 74.3892C112.64 79.6892 123.454 64.7624 125.679 61.3937C123.753 60.705 117.763 59.133 106.411 60.9296C101.482 61.7081 98.0172 63.5946 96.1203 66.4991C94.6706 68.8552 94.1338 71.6627 94.6117 74.3892Z" fill="#222222"/>
<path d="M94.8358 55.1957H94.0591L94.1487 54.4172C94.1487 53.8333 95.956 40.0893 107.591 34.2653C113.674 31.2855 119.988 28.807 126.471 26.8543L127.636 26.5249L127.322 27.7077C127.173 28.2467 123.723 40.9876 117.3 46.048C105.814 55.0909 95.2839 55.1957 94.8358 55.1957ZM125.679 28.5461C119.682 30.4149 113.835 32.7372 108.189 35.493C98.8088 40.1941 96.2398 50.7491 95.6573 53.7584C103.284 52.8699 110.495 49.8038 116.434 44.9251C121.378 41.0624 124.589 31.8548 125.679 28.5461Z" fill="#222222"/>
<path d="M67.4275 100.036L66.6807 98.8832C81.632 89.0917 84.0367 81.0369 86.8448 71.7096C88.4394 65.508 90.9571 59.5825 94.313 54.1328C105.709 36.1667 126.217 26.9741 126.426 26.8843L126.979 28.1569C126.785 28.2467 106.65 37.2746 95.478 54.8664C92.1989 60.2164 89.7417 66.0307 88.189 72.1138C85.3511 81.6957 82.8119 89.975 67.4275 100.036Z" fill="#222222"/>
<path d="M84.4252 82.3541L83.5291 81.3061C83.6485 81.2163 95.1496 71.2301 105.321 66.8883C112.22 64.217 119.291 62.0162 126.486 60.3008L126.8 61.6482C119.692 63.3475 112.706 65.5233 105.889 68.1609C95.8964 72.4728 84.5447 82.3541 84.4252 82.3541Z" fill="#222222"/>
<path d="M105.776 66.9286L105.396 68.2522L117.524 71.7542L117.904 70.4306L105.776 66.9286Z" fill="#222222"/>
<path d="M102.207 61.0425L98.6191 69.7944L99.8902 70.318L103.478 61.566L102.207 61.0425Z" fill="#222222"/>
<path d="M115.121 46.1088L100.242 46.7417L100.301 48.1179L115.179 47.485L115.121 46.1088Z" fill="#222222"/>
<path d="M123.259 36.4695L109.399 38.521L109.6 39.8836L123.46 37.8321L123.259 36.4695Z" fill="#222222"/>
<path d="M77.4041 42.6446L76.3716 43.5535L86.9176 55.5904L87.9501 54.6815L77.4041 42.6446Z" fill="#222222"/>
<path d="M79.0392 37.0453L78.3962 38.2626L87.1216 42.8933L87.7646 41.676L79.0392 37.0453Z" fill="#222222"/>
<path d="M10.6326 61.2202C10.6786 61.2202 10.7477 61.2279 10.8398 61.2432C10.9473 61.2586 11.0317 61.2662 11.0931 61.2662C11.4309 60.3451 11.7609 59.3857 12.0833 58.3878C12.4211 57.3746 12.7281 56.4151 13.0044 55.5094C13.2807 54.6036 13.4496 54.0509 13.511 53.8514C13.6338 53.529 13.8641 53.3678 14.2019 53.3678C14.4782 53.3678 14.6163 53.4906 14.6163 53.7362C14.6163 53.7669 14.6087 53.7976 14.5933 53.8283C14.5933 53.8437 14.5933 53.8667 14.5933 53.8974C13.9332 56.3383 13.1119 58.7946 12.1294 61.2662C13.1426 61.2048 14.0714 61.1051 14.9157 60.9669C15.7754 60.8134 16.52 60.6368 17.1494 60.4373C17.7788 60.2223 18.3238 59.9921 18.7843 59.7464C19.2602 59.4854 19.644 59.2091 19.9357 58.9174C20.2274 58.6258 20.4423 58.3341 20.5805 58.0424C20.7187 57.7354 20.7877 57.4206 20.7877 57.0983C20.7877 55.9622 20.0355 54.9413 18.531 54.0356C17.0419 53.1298 15.2227 52.677 13.0735 52.677C11.7072 52.677 10.41 52.8382 9.18184 53.1605C7.96906 53.4676 6.97887 53.9128 6.21129 54.4961C5.45905 55.0642 5.08294 55.6936 5.08294 56.3844C5.08294 57.2134 5.65095 58.0577 6.78698 58.9174C7.06331 59.1324 7.20147 59.2705 7.20147 59.3319C7.20147 59.378 7.16309 59.401 7.08633 59.401C6.97887 59.401 6.81768 59.3626 6.60276 59.2859C6.40318 59.2091 6.25734 59.1324 6.16523 59.0556C4.72217 57.9963 4.00064 56.9754 4.00064 55.9929C4.00064 55.4096 4.25394 54.8723 4.76055 54.381C5.28251 53.8744 5.97334 53.4599 6.83303 53.1375C7.69273 52.7998 8.67524 52.5388 9.78056 52.3546C10.8859 52.1704 12.0373 52.0782 13.2347 52.0782C14.647 52.0782 15.9136 52.2087 17.0342 52.4697C18.1703 52.7153 19.0837 53.0531 19.7745 53.4829C20.4807 53.9128 21.0103 54.3964 21.3634 54.9337C21.7319 55.4556 21.9161 56.016 21.9161 56.6147C21.9161 57.2594 21.7012 57.8889 21.2713 58.5029C20.8415 59.117 20.2197 59.6773 19.4061 60.1839C18.6078 60.6752 17.5639 61.0743 16.2743 61.3814C14.9848 61.6731 13.5571 61.8189 11.9912 61.8189C11.9605 61.8189 11.9298 61.8189 11.8991 61.8189C11.3925 63.0317 10.8782 64.1447 10.3562 65.1579C9.83429 66.1558 9.2586 67.0999 8.62918 67.9903C7.99976 68.896 7.33196 69.5945 6.62578 70.0858C5.93496 70.5924 5.24413 70.8457 4.5533 70.8457C3.37122 70.8457 2.22752 70.0781 1.1222 68.543C0.523479 67.6986 0.224121 66.6163 0.224121 65.2961C0.224121 65.0044 0.247149 64.7511 0.293204 64.5362C0.354611 64.3059 0.431369 64.1907 0.523479 64.1907C0.646293 64.1907 0.723052 64.4057 0.753755 64.8355C0.753755 65.0504 0.79981 65.3498 0.89192 65.7336C0.984031 66.1174 1.13755 66.5626 1.35247 67.0692C1.5674 67.5604 1.82837 68.021 2.13541 68.4508C2.44244 68.896 2.84159 69.2645 3.33284 69.5562C3.83945 69.8632 4.37676 70.0167 4.94477 70.0167C5.05223 70.0167 5.15202 70.009 5.24413 69.9937C7.02493 69.8248 8.91319 67.0922 10.9089 61.7959C10.7861 61.7498 10.6786 61.6884 10.5865 61.6117C10.4944 61.5195 10.4484 61.4351 10.4484 61.3584C10.4484 61.2662 10.5098 61.2202 10.6326 61.2202Z" fill="#222222"/>
<path d="M27.4085 59.0326C26.5795 60.3682 25.8043 61.8573 25.0827 63.4999C24.3766 65.1272 24.0235 66.3937 24.0235 67.2995C24.0235 67.5144 24.0849 67.6219 24.2077 67.6219C24.2537 67.6219 24.3842 67.5528 24.5992 67.4146C24.8294 67.2764 24.9676 67.2074 25.0137 67.2074C25.0904 67.2074 25.1288 67.2534 25.1288 67.3455C25.1288 67.5297 24.9829 67.7216 24.6913 67.9212C24.3996 68.1361 24.1156 68.2436 23.8392 68.2436C23.4555 68.2436 23.2636 67.9596 23.2636 67.3916C23.2636 66.7315 23.4785 65.8027 23.9083 64.6052C24.3382 63.3925 24.768 62.2948 25.1979 61.3123C25.6277 60.3144 25.8426 59.7541 25.8426 59.6313C25.8426 59.6006 25.835 59.5852 25.8196 59.5852C25.7582 59.5852 25.62 59.7004 25.4051 59.9306C24.438 61.0206 23.6243 62.0876 22.9642 63.1315C22.3041 64.16 21.8589 64.9507 21.6286 65.5033C21.4137 66.056 21.1834 66.5012 20.9378 66.8389C20.7075 67.1613 20.4312 67.3225 20.1088 67.3225C19.9706 67.3225 19.9015 67.2457 19.9015 67.0922C19.9015 66.9541 19.9399 66.8005 20.0167 66.6317C20.4312 65.557 20.8303 64.444 21.2141 63.2927C21.5979 62.1413 22.0047 60.8594 22.4346 59.4471C22.8798 58.0194 23.2405 56.891 23.5169 56.062C23.5629 55.9238 23.5859 55.7857 23.5859 55.6475C23.5859 55.5861 23.5783 55.5324 23.5629 55.4863C23.5476 55.4249 23.5399 55.3789 23.5399 55.3482C23.5399 55.2868 23.5629 55.187 23.609 55.0488C23.9621 54.0663 24.2614 53.4215 24.507 53.1145C24.7527 52.7921 25.1288 52.6309 25.6354 52.6309C25.835 52.6309 25.9501 52.7 25.9808 52.8382C24.3075 56.2155 22.9488 59.8078 21.9049 63.6151C24.1923 60.0381 25.9194 58.2496 27.0861 58.2496C27.4085 58.2496 27.5697 58.3571 27.5697 58.572C27.5697 58.7102 27.516 58.8637 27.4085 59.0326Z" fill="#222222"/>
<path d="M35.228 58.2496C35.2741 58.3264 35.2971 58.4108 35.2971 58.5029C35.2971 59.117 34.6216 60.3528 33.2707 62.2104C31.9351 64.0679 30.8604 65.4726 30.0468 66.4244V66.3784C30.0314 66.3784 30.0084 66.4398 29.9777 66.5626C29.9624 66.6854 29.9317 66.8389 29.8856 67.0231C29.8395 67.2074 29.7935 67.3839 29.7474 67.5528C29.7014 67.737 29.64 67.8905 29.5632 68.0133C29.5018 68.1515 29.4404 68.2206 29.379 68.2206C29.3176 68.2206 29.2332 68.1975 29.1257 68.1515C29.0336 68.1208 28.9798 68.1054 28.9645 68.1054C26.892 70.8841 25.8558 72.6649 25.8558 73.4478C25.8558 73.586 25.8865 73.7242 25.9479 73.8623C26.0093 74.0158 26.04 74.1156 26.04 74.1617C26.04 74.3305 25.9479 74.4764 25.7637 74.5992C25.5794 74.722 25.3952 74.7834 25.211 74.7834C24.9654 74.7834 24.8426 74.6376 24.8426 74.3459C24.8426 73.7932 25.1726 72.9489 25.8327 71.8129C26.4929 70.6922 27.1683 69.6483 27.8592 68.6811C28.5654 67.714 28.9261 67.1997 28.9415 67.1383C29.1103 66.6317 29.1948 65.9408 29.1948 65.0658C29.1948 63.807 29.072 62.7016 28.8263 61.7498C28.5961 60.798 28.2737 60.3221 27.8592 60.3221C27.8131 60.3221 27.7517 60.3221 27.675 60.3221L27.5368 60.3451C27.4754 60.3451 27.4447 60.3068 27.4447 60.23C27.4447 60.1072 27.6135 59.923 27.9513 59.6773C27.9973 59.6466 28.1278 59.4778 28.3428 59.1707C28.5577 58.8637 28.7189 58.7102 28.8263 58.7102C29.1487 58.7102 29.4327 59.2091 29.6784 60.207C29.9393 61.1895 30.0698 62.2871 30.0698 63.4999C30.0698 63.6227 30.0621 63.807 30.0468 64.0526C30.0468 64.2982 30.0468 64.4824 30.0468 64.6052C30.0468 64.8509 30.1082 64.9737 30.231 64.9737C30.5841 64.9737 31.2903 64.16 32.3495 62.5328C33.4242 60.9055 33.9615 59.8692 33.9615 59.424C33.9615 59.3319 33.9231 59.2859 33.8463 59.2859C33.8156 59.2859 33.7619 59.3012 33.6852 59.3319C33.6084 59.3626 33.547 59.378 33.5009 59.378C33.4242 59.378 33.3628 59.3396 33.3167 59.2628C33.3167 59.0633 33.5393 58.8407 33.9845 58.595C34.4297 58.3494 34.7905 58.2266 35.0668 58.2266C35.1436 58.2266 35.1973 58.2343 35.228 58.2496Z" fill="#222222"/>
<path d="M40.3489 52.8382C39.5046 54.5883 38.6449 56.7068 37.7698 59.1938C36.8948 61.6654 36.25 63.83 35.8355 65.6875C35.8202 65.7336 35.8125 65.795 35.8125 65.8718C35.8125 66.056 35.8893 66.1481 36.0428 66.1481C36.1349 66.1481 36.3805 66.0329 36.7797 65.8027C37.1941 65.5724 37.4551 65.4573 37.5626 65.4573C37.6547 65.4573 37.7238 65.488 37.7698 65.5494C37.7698 65.7336 37.386 66.079 36.6185 66.5856C35.8509 67.0769 35.3059 67.3225 34.9835 67.3225C34.6918 67.3225 34.546 67.1843 34.546 66.908C34.546 66.7545 34.5767 66.5933 34.6381 66.4244C35.0372 65.3344 35.4057 64.2522 35.7434 63.1775C36.0965 62.1029 36.4957 60.8287 36.9408 59.355C37.386 57.8658 37.7161 56.7682 37.931 56.062C37.9771 55.9238 38.0001 55.7857 38.0001 55.6475C38.0001 55.5861 37.9848 55.5324 37.9541 55.4863C37.9387 55.4249 37.931 55.3712 37.931 55.3251C37.931 55.2791 37.9541 55.187 38.0001 55.0488C38.3072 54.0816 38.5912 53.4369 38.8521 53.1145C39.1131 52.7921 39.4969 52.6309 40.0035 52.6309C40.2184 52.6309 40.3336 52.7 40.3489 52.8382Z" fill="#222222"/>
<path d="M44.4642 52.8382C43.6199 54.5883 42.7602 56.7068 41.8851 59.1938C41.0101 61.6654 40.3653 63.83 39.9508 65.6875C39.9355 65.7336 39.9278 65.795 39.9278 65.8718C39.9278 66.056 40.0045 66.1481 40.1581 66.1481C40.2502 66.1481 40.4958 66.0329 40.8949 65.8027C41.3094 65.5724 41.5704 65.4573 41.6779 65.4573C41.77 65.4573 41.8391 65.488 41.8851 65.5494C41.8851 65.7336 41.5013 66.079 40.7337 66.5856C39.9662 67.0769 39.4212 67.3225 39.0988 67.3225C38.8071 67.3225 38.6613 67.1843 38.6613 66.908C38.6613 66.7545 38.692 66.5933 38.7534 66.4244C39.1525 65.3344 39.521 64.2522 39.8587 63.1775C40.2118 62.1029 40.6109 60.8287 41.0561 59.355C41.5013 57.8658 41.8314 56.7682 42.0463 56.062C42.0924 55.9238 42.1154 55.7857 42.1154 55.6475C42.1154 55.5861 42.1 55.5324 42.0693 55.4863C42.054 55.4249 42.0463 55.3712 42.0463 55.3251C42.0463 55.2791 42.0693 55.187 42.1154 55.0488C42.4224 54.0816 42.7064 53.4369 42.9674 53.1145C43.2284 52.7921 43.6122 52.6309 44.1188 52.6309C44.3337 52.6309 44.4489 52.7 44.4642 52.8382Z" fill="#222222"/>
<path d="M48.2571 54.5192C48.2571 54.7187 48.1113 54.972 47.8196 55.2791C47.5279 55.5861 47.3437 55.8241 47.2669 55.9929C47.0673 56.4995 46.8524 56.7835 46.6221 56.845C46.3151 56.845 46.1616 56.5916 46.1616 56.085C46.1616 55.7627 46.3995 55.4096 46.8754 55.0258C47.3513 54.642 47.7658 54.4501 48.1189 54.4501C48.1957 54.4501 48.2417 54.4731 48.2571 54.5192ZM46.9445 58.4569C46.9138 58.5029 46.8064 58.6948 46.6221 59.0326C46.4533 59.3703 46.3074 59.662 46.1846 59.9076C46.0618 60.1532 45.8929 60.514 45.678 60.9899C45.4631 61.4658 45.2712 61.9187 45.1023 62.3485C44.9335 62.7784 44.7569 63.2927 44.5727 63.8914C44.3885 64.4901 44.2273 65.0888 44.0891 65.6875C44.0738 65.7336 44.0661 65.795 44.0661 65.8718C44.0661 66.056 44.1428 66.1481 44.2964 66.1481C44.3885 66.1481 44.6341 66.0329 45.0332 65.8027C45.4477 65.5724 45.7164 65.4573 45.8392 65.4573C45.9467 65.4573 46.0081 65.488 46.0234 65.5494C46.0234 65.7336 45.632 66.079 44.849 66.5856C44.0661 67.0769 43.5288 67.3225 43.2371 67.3225C42.9454 67.3225 42.7996 67.1843 42.7996 66.908C42.7996 66.7698 42.8303 66.6086 42.8917 66.4244C43.0605 65.9485 43.2294 65.4573 43.3983 64.9507C43.5825 64.444 43.7207 64.0526 43.8128 63.7762C43.9049 63.4999 43.997 63.2159 44.0891 62.9242C44.1966 62.6325 44.2733 62.4176 44.3194 62.2795C44.3654 62.1259 44.4038 61.9801 44.4345 61.8419C44.4806 61.6884 44.5113 61.5733 44.5266 61.4965C44.542 61.4198 44.5497 61.343 44.5497 61.2662C44.5497 61.2048 44.5343 61.1511 44.5036 61.1051C44.4883 61.0436 44.4806 60.9976 44.4806 60.9669C44.4806 60.9055 44.5036 60.8057 44.5497 60.6675C44.8874 59.7004 45.1868 59.0556 45.4477 58.7332C45.7087 58.4108 46.0925 58.2496 46.5991 58.2496C46.7987 58.2496 46.9138 58.3187 46.9445 58.4569Z" fill="#222222"/>
<path d="M52.8619 59.2859C52.8312 59.5929 52.6316 60.0304 52.2632 60.5984C51.8947 61.1665 51.6107 61.4505 51.4112 61.4505C51.3497 61.4505 51.319 61.4044 51.319 61.3123C51.319 61.1741 51.4035 60.8978 51.5723 60.4833C51.7412 60.0535 51.8256 59.7771 51.8256 59.6543C51.8256 59.424 51.6875 59.3089 51.4112 59.3089C51.3651 59.3089 51.1118 59.3473 50.6512 59.424C50.2674 59.5161 49.7608 59.7618 49.1314 60.1609C48.5174 60.5601 48.2103 60.9976 48.2103 61.4735C48.2103 61.6424 48.2487 61.7959 48.3255 61.934C48.525 62.3332 48.8704 62.6709 49.3617 62.9473C49.8683 63.2236 50.2982 63.4846 50.6512 63.7302C51.0197 63.9758 51.2039 64.2982 51.2039 64.6974C51.2039 65.3728 50.6819 66.0253 49.638 66.6547C48.6095 67.2688 47.7267 67.5758 46.9899 67.5758C46.867 67.5758 46.7673 67.5221 46.6905 67.4146C46.6137 67.3225 46.5754 67.2227 46.5754 67.1152C46.5754 66.931 46.6598 66.8389 46.8287 66.8389C47.3353 66.8389 48.0415 66.6854 48.9472 66.3784C49.8683 66.056 50.3289 65.7106 50.3289 65.3421C50.3289 65.1272 50.1523 64.8739 49.7992 64.5822C49.4615 64.2905 49.0854 64.0219 48.6709 63.7762C48.2717 63.5306 47.8956 63.2389 47.5425 62.9012C47.2048 62.5481 47.0359 62.2104 47.0359 61.888C47.0359 61.627 47.128 61.3814 47.3122 61.1511C47.4504 60.9822 47.5963 60.821 47.7498 60.6675C47.9033 60.4987 48.0491 60.3528 48.1873 60.23C48.3255 60.1072 48.479 59.9844 48.6478 59.8616C48.8321 59.7387 48.9933 59.6313 49.1314 59.5392C49.2696 59.4471 49.4308 59.355 49.615 59.2628C49.7992 59.1707 49.9451 59.1017 50.0525 59.0556C50.16 58.9942 50.2982 58.9251 50.467 58.8484C50.6512 58.7716 50.7741 58.7255 50.8355 58.7102C50.9122 58.6795 51.0274 58.6334 51.1809 58.572C51.3344 58.5106 51.4188 58.4799 51.4342 58.4799C51.6952 58.4032 51.8947 58.3648 52.0329 58.3648C52.5856 58.3648 52.8619 58.6718 52.8619 59.2859Z" fill="#222222"/>
<path d="M166.526 53.4517C166.971 53.4517 167.194 54.4726 167.194 56.5144C167.194 57.4509 167.125 58.4103 166.986 59.3929C166.848 60.36 166.641 61.3118 166.365 62.2483C166.104 63.1694 165.789 64.0751 165.421 64.9655C165.052 65.8559 164.638 66.7079 164.177 67.5216C165.021 66.8615 165.904 66.3549 166.825 66.0018C166.963 65.9404 167.079 65.902 167.171 65.8866C167.278 65.8559 167.363 65.8406 167.424 65.8406C167.485 65.8559 167.516 65.8713 167.516 65.8866C167.516 66.0094 167.309 66.209 166.894 66.4853C166.633 66.6542 166.357 66.8615 166.065 67.1071C165.774 67.3527 165.513 67.583 165.282 67.7979C165.052 68.0128 164.814 68.2278 164.569 68.4427C164.323 68.673 164.1 68.8649 163.901 69.0184C163.701 69.1719 163.502 69.2947 163.302 69.3868C163.102 69.4943 162.926 69.548 162.772 69.548C162.696 69.548 162.604 69.525 162.496 69.4789C162.404 69.4482 162.32 69.3945 162.243 69.3177C162.166 69.241 162.128 69.1565 162.128 69.0644C162.128 68.8649 162.35 68.6192 162.795 68.3275C163.256 68.0359 163.494 67.867 163.509 67.8209C163.908 66.8691 164.231 66.0555 164.476 65.38C164.722 64.7045 164.983 63.9063 165.259 62.9852C165.551 62.064 165.766 61.1583 165.904 60.2679C166.058 59.3775 166.134 58.4948 166.134 57.6197C166.134 56.9596 166.088 56.3072 165.996 55.6624C165.889 55.8159 165.651 56.2074 165.282 56.8368C164.929 57.4662 164.515 58.1724 164.039 58.9553C163.563 59.7383 163.087 60.4675 162.611 61.1429C159.863 65.0423 157.837 66.9996 156.532 67.015C155.964 67.015 155.549 66.6619 155.288 65.9557C155.027 65.2342 154.897 64.2593 154.897 63.0312C154.897 60.5596 155.273 57.7349 156.025 54.5571C155.304 55.5396 154.552 56.6602 153.769 57.9191C153.001 59.1779 152.172 60.6363 151.282 62.2943C150.407 63.9523 149.685 65.6487 149.117 67.3834C148.564 69.1182 148.288 70.6533 148.288 71.9889V72.012C148.242 72.2422 148.173 72.3574 148.081 72.3574C147.943 72.3574 147.812 72.1808 147.689 71.8277C147.567 71.4746 147.505 71.1292 147.505 70.7915C147.505 69.7476 147.874 68.3122 148.61 66.4853C149.347 64.6585 150.199 62.8854 151.167 61.166C152.149 59.4312 153.062 57.8961 153.907 56.5605C154.766 55.2095 155.365 54.3345 155.703 53.9353C155.626 53.92 155.465 53.8816 155.219 53.8202C154.974 53.7588 154.736 53.705 154.505 53.659C154.275 53.5976 153.984 53.5285 153.63 53.4517C153.277 53.375 152.94 53.3136 152.617 53.2675C152.31 53.2215 151.957 53.1831 151.558 53.1524C151.174 53.1063 150.813 53.0833 150.476 53.0833C149.831 53.0833 149.225 53.1984 148.656 53.4287C148.104 53.6436 147.659 53.9583 147.321 54.3728C146.983 54.772 146.814 55.2172 146.814 55.7084C146.814 56.3225 147.114 56.9596 147.712 57.6197C148.311 58.2645 149.255 58.8786 150.545 59.4619C150.821 59.5847 150.975 59.7152 151.005 59.8534C151.005 59.8688 150.99 59.8841 150.959 59.8995C150.944 59.9148 150.913 59.9225 150.867 59.9225C150.79 59.9225 150.698 59.9148 150.591 59.8995C150.499 59.8688 150.376 59.8381 150.222 59.8073C149.102 59.531 148.173 58.986 147.436 58.1724C146.715 57.3587 146.315 56.5605 146.239 55.7775C146.239 55.7468 146.231 55.7161 146.216 55.6854C146.216 55.6394 146.216 55.601 146.216 55.5703C146.216 55.5242 146.216 55.4858 146.216 55.4551C146.216 55.4091 146.216 55.3707 146.216 55.34C146.216 55.3093 146.216 55.2786 146.216 55.2479C146.216 53.2215 147.674 52.2083 150.591 52.2083C152.356 52.2083 154.436 52.5537 156.831 53.2445C157.108 53.3213 157.246 53.5285 157.246 53.8662C157.246 54.0351 157.184 54.4112 157.062 54.9946C156.34 58.372 155.979 61.0048 155.979 62.893C155.979 63.3229 155.995 63.7067 156.025 64.0444C156.071 64.3822 156.133 64.6815 156.21 64.9425C156.302 65.1881 156.424 65.38 156.578 65.5182C156.731 65.6563 156.916 65.7254 157.131 65.7254C158.129 65.7254 159.771 64.1058 162.059 60.8666C162.903 59.6538 163.678 58.418 164.384 57.1592C165.091 55.9003 165.543 55.0099 165.743 54.488C166.019 53.7972 166.28 53.4517 166.526 53.4517Z" fill="#222222"/>
<path d="M176.264 58.2645C176.31 58.3413 176.333 58.4257 176.333 58.5178C176.333 59.1319 175.658 60.3677 174.307 62.2252C172.971 64.0828 171.896 65.4875 171.083 66.4393V66.3932C171.067 66.3932 171.044 66.4546 171.014 66.5775C170.998 66.7003 170.968 66.8538 170.922 67.038C170.876 67.2222 170.83 67.3988 170.783 67.5676C170.737 67.7519 170.676 67.9054 170.599 68.0282C170.538 68.1664 170.476 68.2354 170.415 68.2354C170.354 68.2354 170.269 68.2124 170.162 68.1664C170.07 68.1356 170.016 68.1203 170.001 68.1203C167.928 70.899 166.892 72.6798 166.892 73.4627C166.892 73.6009 166.923 73.739 166.984 73.8772C167.045 74.0307 167.076 74.1305 167.076 74.1765C167.076 74.3454 166.984 74.4913 166.8 74.6141C166.615 74.7369 166.431 74.7983 166.247 74.7983C166.001 74.7983 165.879 74.6524 165.879 74.3608C165.879 73.8081 166.209 72.9638 166.869 71.8277C167.529 70.7071 168.204 69.6631 168.895 68.696C169.601 67.7288 169.962 67.2145 169.978 67.1531C170.146 66.6465 170.231 65.9557 170.231 65.0807C170.231 63.8218 170.108 62.7165 169.862 61.7647C169.632 60.8129 169.31 60.337 168.895 60.337C168.849 60.337 168.788 60.337 168.711 60.337L168.573 60.36C168.511 60.36 168.481 60.3216 168.481 60.2449C168.481 60.1221 168.65 59.9378 168.987 59.6922C169.033 59.6615 169.164 59.4926 169.379 59.1856C169.594 58.8786 169.755 58.7251 169.862 58.7251C170.185 58.7251 170.469 59.224 170.714 60.2218C170.975 61.2044 171.106 62.302 171.106 63.5148C171.106 63.6376 171.098 63.8218 171.083 64.0674C171.083 64.3131 171.083 64.4973 171.083 64.6201C171.083 64.8657 171.144 64.9885 171.267 64.9885C171.62 64.9885 172.326 64.1749 173.386 62.5476C174.46 60.9203 174.998 59.8841 174.998 59.4389C174.998 59.3468 174.959 59.3007 174.882 59.3007C174.852 59.3007 174.798 59.3161 174.721 59.3468C174.644 59.3775 174.583 59.3929 174.537 59.3929C174.46 59.3929 174.399 59.3545 174.353 59.2777C174.353 59.0781 174.575 58.8555 175.021 58.6099C175.466 58.3643 175.827 58.2415 176.103 58.2415C176.18 58.2415 176.233 58.2491 176.264 58.2645Z" fill="#222222"/>
<path d="M181.247 60.0376C181.339 60.5135 181.385 60.8973 181.385 61.189C181.385 61.5267 181.27 61.8184 181.04 62.064C180.809 62.2943 180.51 62.4632 180.141 62.5707C179.773 62.6628 179.443 62.7318 179.151 62.7779C178.86 62.8086 178.583 62.824 178.322 62.824C178.169 62.824 177.992 62.824 177.793 62.824C177.608 62.8086 177.509 62.8009 177.493 62.8009C176.987 64.0905 176.733 65.1037 176.733 65.8406C176.733 66.4546 176.964 66.7617 177.424 66.7617C177.747 66.7617 178.123 66.5621 178.553 66.163C178.982 65.7485 179.359 65.3416 179.681 64.9425C180.003 64.528 180.195 64.3207 180.257 64.3207C180.364 64.3207 180.418 64.3822 180.418 64.505C180.418 64.9348 179.996 65.5335 179.151 66.3011C178.307 67.0534 177.647 67.4295 177.171 67.4295C176.787 67.4295 176.434 67.3143 176.112 67.0841C175.805 66.8384 175.651 66.4393 175.651 65.8866C175.651 65.7178 175.674 65.5182 175.72 65.2879C175.828 64.7045 175.966 64.1365 176.135 63.5839C176.319 63.0312 176.419 62.6935 176.434 62.5707C176.204 62.5092 176.089 62.3864 176.089 62.2022C176.089 62.0333 176.219 61.9489 176.48 61.9489H176.641C177.255 60.7361 177.608 60.0376 177.701 59.8534C178.13 59.0398 178.952 58.6329 180.164 58.6329C180.686 58.6329 181.047 59.1012 181.247 60.0376ZM180.418 61.1429C180.418 60.7592 180.379 60.4291 180.303 60.1528C180.226 59.8764 180.134 59.6845 180.026 59.5771C179.934 59.4696 179.834 59.4159 179.727 59.4159C179.42 59.4159 179.052 59.7459 178.622 60.4061C178.207 61.0662 177.9 61.6496 177.701 62.1562C177.731 62.1562 177.854 62.1638 178.069 62.1792C178.284 62.1945 178.468 62.2022 178.622 62.2022C179.251 62.2022 179.704 62.1331 179.98 61.995C180.257 61.8568 180.402 61.5728 180.418 61.1429Z" fill="#222222"/>
<path d="M187.808 60.4061C187.685 60.5749 187.516 60.7438 187.301 60.9127C187.102 61.0662 186.948 61.1429 186.841 61.1429C186.749 61.1429 186.703 61.0969 186.703 61.0048C186.703 60.9434 186.772 60.7284 186.91 60.36C187.063 59.9916 187.14 59.7383 187.14 59.6001C187.14 59.4926 187.102 59.4389 187.025 59.4389C186.488 59.4389 185.689 60.2679 184.63 61.9259C183.586 63.5839 182.811 65.2035 182.304 66.7847C182.212 66.9075 182.066 67.0303 181.867 67.1531C181.667 67.276 181.498 67.3374 181.36 67.3374C181.268 67.3374 181.199 67.299 181.153 67.2222C181.153 66.8077 181.199 66.4316 181.291 66.0939C181.399 65.7561 181.529 65.5566 181.683 65.4952C182.02 64.221 182.258 63.2692 182.397 62.6397L182.627 61.6726C182.658 61.5651 182.673 61.4423 182.673 61.3041C182.673 61.2274 182.658 61.1583 182.627 61.0969C182.596 61.0355 182.581 60.9741 182.581 60.9127C182.581 60.8206 182.596 60.7361 182.627 60.6594C182.872 59.6922 183.118 59.0321 183.364 58.679C183.625 58.3259 184.001 58.1494 184.492 58.1494C184.676 58.1494 184.784 58.2108 184.814 58.3336C184.799 58.3796 184.684 58.6483 184.469 59.1395C184.269 59.6308 184.078 60.0914 183.893 60.5212C183.724 60.951 183.533 61.496 183.318 62.1562C183.103 62.8163 182.934 63.4227 182.811 63.9753C183.318 62.9775 184.101 61.78 185.16 60.383C186.219 58.9707 187.094 58.2645 187.785 58.2645C188.153 58.2645 188.338 58.4948 188.338 58.9553C188.338 59.4312 188.161 59.9148 187.808 60.4061Z" fill="#222222"/>
<path d="M193.83 59.3007C193.8 59.6078 193.6 60.0453 193.232 60.6133C192.863 61.1813 192.579 61.4653 192.38 61.4653C192.318 61.4653 192.288 61.4193 192.288 61.3272C192.288 61.189 192.372 60.9127 192.541 60.4982C192.71 60.0683 192.794 59.792 192.794 59.6692C192.794 59.4389 192.656 59.3238 192.38 59.3238C192.334 59.3238 192.08 59.3621 191.62 59.4389C191.236 59.531 190.729 59.7766 190.1 60.1758C189.486 60.5749 189.179 61.0125 189.179 61.4884C189.179 61.6572 189.217 61.8107 189.294 61.9489C189.494 62.3481 189.839 62.6858 190.33 62.9621C190.837 63.2385 191.267 63.4994 191.62 63.7451C191.988 63.9907 192.172 64.3131 192.172 64.7122C192.172 65.3877 191.651 66.0401 190.607 66.6696C189.578 67.2836 188.695 67.5907 187.958 67.5907C187.836 67.5907 187.736 67.5369 187.659 67.4295C187.582 67.3374 187.544 67.2376 187.544 67.1301C187.544 66.9459 187.628 66.8538 187.797 66.8538C188.304 66.8538 189.01 66.7003 189.916 66.3932C190.837 66.0708 191.297 65.7254 191.297 65.357C191.297 65.1421 191.121 64.8888 190.768 64.5971C190.43 64.3054 190.054 64.0367 189.639 63.7911C189.24 63.5455 188.864 63.2538 188.511 62.9161C188.173 62.563 188.004 62.2252 188.004 61.9029C188.004 61.6419 188.097 61.3962 188.281 61.166C188.419 60.9971 188.565 60.8359 188.718 60.6824C188.872 60.5135 189.018 60.3677 189.156 60.2449C189.294 60.1221 189.448 59.9992 189.616 59.8764C189.801 59.7536 189.962 59.6462 190.1 59.554C190.238 59.4619 190.399 59.3698 190.584 59.2777C190.768 59.1856 190.914 59.1165 191.021 59.0705C191.129 59.0091 191.267 58.94 191.436 58.8632C191.62 58.7865 191.743 58.7404 191.804 58.7251C191.881 58.6943 191.996 58.6483 192.149 58.5869C192.303 58.5255 192.387 58.4948 192.403 58.4948C192.664 58.418 192.863 58.3796 193.001 58.3796C193.554 58.3796 193.83 58.6867 193.83 59.3007Z" fill="#222222"/>
<path d="M55.9354 32.7934L51.4131 30.4014L52.1922 28.9214C52.4508 28.4301 52.7465 28.1148 53.0793 27.9755C53.4132 27.8341 53.7789 27.8686 54.1765 28.0788C54.3877 28.1906 54.5434 28.3498 54.6437 28.5565C54.7419 28.7622 54.781 28.9922 54.7609 29.2466C54.958 29.0381 55.1899 28.9144 55.4567 28.8753C55.7225 28.833 55.9879 28.882 56.253 29.0222C56.6588 29.2368 56.9084 29.5371 57.0018 29.923C57.0951 30.309 57.0152 30.7424 56.762 31.2232L55.9354 32.7934ZM54.1345 31.0776L55.7621 31.9385L56.2809 30.9529C56.4271 30.6751 56.4708 30.4187 56.412 30.1835C56.3521 29.9451 56.1959 29.7591 55.9433 29.6255C55.3987 29.3375 54.9704 29.4899 54.6583 30.0827L54.1345 31.0776ZM53.6562 30.8246L54.1309 29.923C54.2683 29.6618 54.3128 29.419 54.2642 29.1945C54.2167 28.968 54.0811 28.7956 53.8574 28.6773C53.609 28.5458 53.3906 28.5231 53.2024 28.6091C53.0122 28.6939 52.839 28.8846 52.683 29.181L52.2181 30.064L53.6562 30.8246Z" fill="#222222"/>
<path d="M59.5416 22.2996C59.9464 22.5952 60.2506 22.9217 60.4542 23.2792C60.6558 23.6352 60.7453 23.9964 60.7224 24.3625C60.6995 24.7287 60.5669 25.0785 60.3246 25.4121C60.0877 25.738 59.7983 25.969 59.4562 26.105C59.1123 26.2396 58.7418 26.2693 58.3447 26.194C57.9472 26.1155 57.5522 25.9359 57.1597 25.6551L56.8617 25.4375C56.4644 25.1475 56.1637 24.8221 55.9596 24.4613C55.7556 24.1006 55.6647 23.7355 55.687 23.3661C55.7089 22.9934 55.8382 22.644 56.0751 22.3181C56.316 21.9865 56.6085 21.7534 56.9525 21.6187C57.2959 21.4808 57.6695 21.4549 58.0732 21.5408C58.4751 21.6254 58.8775 21.8148 59.2805 22.109L59.5416 22.2996ZM58.8803 22.6478C58.3903 22.29 57.9431 22.1144 57.5388 22.1208C57.1327 22.1259 56.8008 22.3056 56.5433 22.66C56.2927 23.0049 56.2266 23.3728 56.3449 23.7638C56.4628 24.1515 56.7524 24.5181 57.2137 24.8635L57.5173 25.0852C57.9922 25.432 58.4381 25.6053 58.8551 25.6052C59.2716 25.6019 59.6073 25.4249 59.862 25.0743C60.1181 24.7219 60.1887 24.3557 60.0738 23.976C59.957 23.5948 59.6613 23.2267 59.1868 22.8715L58.8803 22.6478Z" fill="#222222"/>
<path d="M62.6092 14.8634L65.0677 17.3243C65.4071 17.6674 65.5786 18.0545 65.5822 18.4856C65.5875 18.9151 65.4215 19.3257 65.0843 19.7173L64.9628 19.8492C64.5676 20.2458 64.1459 20.4551 63.6976 20.477C63.2492 20.4988 62.8363 20.3242 62.4589 19.953L59.9954 17.4871L60.4665 17.0141L62.9152 19.4651C63.1767 19.7269 63.4523 19.8586 63.7418 19.86C64.0297 19.8598 64.3067 19.7261 64.5729 19.459C64.8424 19.1885 64.9762 18.9098 64.9743 18.6229C64.9741 18.3343 64.8432 18.0591 64.5817 17.7973L62.1306 15.3438L62.6092 14.8634Z" fill="#222222"/>
<path d="M70.4964 11.8635C70.789 12.2619 70.9782 12.6521 71.0641 13.0341C71.1486 13.4143 71.1364 13.7697 71.0276 14.1004L72.187 14.1356L72.0683 14.7516L70.6928 14.7011C70.5821 14.8352 70.4513 14.9579 70.3005 15.0692C69.9763 15.3085 69.6306 15.4413 69.2635 15.4677C68.8949 15.4922 68.5327 15.4086 68.177 15.217C67.8217 15.0221 67.4993 14.7316 67.2099 14.3455L66.9915 14.0481C66.7003 13.6517 66.5119 13.2507 66.4262 12.8452C66.3406 12.4397 66.3642 12.0642 66.497 11.7187C66.6303 11.37 66.8591 11.076 67.1833 10.8367C67.515 10.592 67.8651 10.4573 68.2337 10.4328C68.6041 10.4069 68.9681 10.4949 69.3257 10.6968C69.6819 10.8969 70.0076 11.198 70.303 11.6001L70.4964 11.8635ZM69.7581 11.9979C69.4017 11.5127 69.0301 11.2105 68.6432 11.0913C68.2568 10.9688 67.8846 11.0398 67.5264 11.304C67.1853 11.5558 67.0121 11.8859 67.007 12.2944C67.0023 12.6996 67.1677 13.1365 67.5031 13.6051L67.7257 13.9081C68.0723 14.3801 68.4435 14.6797 68.8392 14.8069C69.2368 14.9327 69.6109 14.8663 69.9615 14.6076C70.3121 14.3489 70.4899 14.0212 70.4949 13.6244C70.4986 13.2258 70.3279 12.7856 69.9827 12.3037L69.7581 11.9979Z" fill="#222222"/>
<path d="M75.7051 5.62035L77.2993 8.71212C77.5184 9.14209 77.5641 9.56295 77.4364 9.9747C77.3108 10.3854 77.0278 10.7259 76.5874 10.9963L76.4315 11.0849C75.9344 11.3425 75.469 11.4135 75.0351 11.2979C74.6013 11.1823 74.261 10.8904 74.0142 10.422L72.4167 7.32397L73.0095 7.01687L74.5973 10.0961C74.7669 10.4251 74.9895 10.6343 75.2649 10.7238C75.5392 10.8112 75.8438 10.7681 76.1787 10.5946C76.5177 10.419 76.73 10.1943 76.8155 9.92046C76.903 9.64558 76.862 9.34366 76.6924 9.01471L75.103 5.9323L75.7051 5.62035Z" fill="#222222"/>
<path d="M83.079 5.51601L80.9923 6.26534L81.6025 7.97265L84.0265 7.1022L84.2122 7.62167L81.1532 8.72013L79.4314 3.90259L82.4573 2.81601L82.6441 3.33879L80.2532 4.19737L80.8066 5.74586L82.8933 4.99654L83.079 5.51601Z" fill="#222222"/>
<path d="M89.337 1.57378L87.734 1.9406L88.7468 6.38754L88.0926 6.53724L87.0798 2.09031L85.4802 2.45635L85.3569 1.91504L89.2137 1.03247L89.337 1.57378Z" fill="#222222"/>
<path d="M93.1819 3.31982C92.5883 3.2195 92.1466 3.06431 91.8566 2.85425C91.5687 2.64161 91.4048 2.35838 91.365 2.00455C91.32 1.60416 91.4423 1.2556 91.7319 0.958861C92.0235 0.659531 92.4254 0.480942 92.9375 0.423094C93.2866 0.383652 93.605 0.416055 93.8925 0.520304C94.1823 0.62429 94.4151 0.786587 94.5908 1.0072C94.7688 1.22754 94.8736 1.47855 94.9053 1.76021L94.2314 1.83634C94.1969 1.52906 94.072 1.29918 93.8569 1.14668C93.6414 0.991854 93.3557 0.934556 92.9995 0.974787C92.669 1.01213 92.4189 1.11464 92.2491 1.28233C92.0815 1.44742 92.0122 1.65917 92.0412 1.91755C92.0645 2.12473 92.1716 2.29062 92.3624 2.41522C92.5552 2.53724 92.869 2.63381 93.3037 2.70493C93.7406 2.77579 94.086 2.86998 94.3396 2.98748C94.5953 3.1024 94.7909 3.24885 94.9265 3.42685C95.0643 3.60458 95.1478 3.82264 95.1768 4.08103C95.2231 4.49305 95.0997 4.84175 94.8065 5.12711C94.513 5.41014 94.0974 5.58203 93.5597 5.64277C93.2106 5.68222 92.8772 5.65268 92.5597 5.55418C92.2419 5.45335 91.9873 5.29588 91.7959 5.08177C91.6068 4.86739 91.4956 4.61239 91.4624 4.31675L92.1362 4.24063C92.1708 4.5479 92.311 4.77841 92.557 4.93214C92.805 5.08329 93.1187 5.13743 93.4981 5.09457C93.8519 5.0546 94.1149 4.95181 94.2873 4.78619C94.4596 4.62056 94.5317 4.41321 94.5037 4.16414C94.4757 3.91506 94.3668 3.73287 94.1771 3.61758C93.9871 3.49996 93.6553 3.40071 93.1819 3.31982Z" fill="#222222"/>
<path d="M100.183 3.84014C100.2 3.59472 100.282 3.37369 100.432 3.17706C100.583 2.98058 100.861 2.75847 101.265 2.51075C101.056 2.21981 100.919 1.98762 100.853 1.81419C100.787 1.64075 100.76 1.47106 100.771 1.30511C100.797 0.917109 100.931 0.6209 101.175 0.416481C101.419 0.212062 101.737 0.122958 102.129 0.14917C102.48 0.172573 102.763 0.294762 102.978 0.515737C103.194 0.734375 103.291 0.999126 103.271 1.30999C103.257 1.51568 103.192 1.70266 103.075 1.87094C102.961 2.03704 102.767 2.20726 102.495 2.3816L102.102 2.63353L103.147 4.06618C103.327 3.77293 103.428 3.44049 103.453 3.06886L104.039 3.10794C103.999 3.70396 103.822 4.18871 103.509 4.56219L104.18 5.48386L103.402 5.43191L103.089 5.00602C102.905 5.14874 102.694 5.2532 102.455 5.3194C102.218 5.38343 101.98 5.4074 101.739 5.39133C101.241 5.3581 100.85 5.19936 100.566 4.91512C100.282 4.63087 100.155 4.27255 100.183 3.84014ZM101.774 4.86193C102.118 4.88486 102.441 4.77496 102.743 4.53221L101.598 2.95908L101.476 3.0355C101.067 3.29694 100.852 3.57958 100.832 3.88344C100.814 4.15924 100.888 4.38605 101.054 4.56386C101.223 4.74182 101.463 4.84118 101.774 4.86193ZM101.421 1.32737C101.406 1.55175 101.525 1.84143 101.779 2.19642L102.212 1.93304C102.378 1.83146 102.494 1.73236 102.559 1.63576C102.624 1.53681 102.662 1.41489 102.671 1.26997C102.682 1.11337 102.632 0.979748 102.522 0.869105C102.412 0.756124 102.268 0.693705 102.09 0.681847C101.899 0.669053 101.743 0.724357 101.622 0.847759C101.501 0.968823 101.434 1.12869 101.421 1.32737Z" fill="#222222"/>
<path d="M110.549 4.91196L110.452 5.58697L110.762 5.04491L112.743 1.90867L113.289 2.0705L113.225 5.77514L113.184 6.40822L113.484 5.77867L115.236 2.64789L115.886 2.84069L113.249 7.39481L112.659 7.21999L112.704 3.34472L112.737 2.94767L112.549 3.29877L110.446 6.56368L109.856 6.38887L110.119 1.13049L110.765 1.32229L110.549 4.91196Z" fill="#222222"/>
<path d="M120.528 8.0427L119.449 7.51434L118.543 9.37484L117.933 9.07667L120.174 4.47754L121.695 5.22219C122.213 5.47555 122.553 5.78814 122.716 6.15994C122.881 6.53278 122.854 6.94452 122.634 7.39517C122.494 7.68156 122.295 7.89299 122.036 8.02947C121.779 8.16697 121.486 8.22091 121.16 8.19127L121.288 10.6717L121.269 10.7096L120.619 10.3914L120.528 8.0427ZM119.691 7.01842L120.622 7.47417C120.923 7.62145 121.199 7.66043 121.452 7.59111C121.707 7.52283 121.898 7.35812 122.025 7.097C122.163 6.81271 122.184 6.55305 122.088 6.318C121.993 6.08399 121.787 5.88765 121.468 5.72899L120.54 5.27479L119.691 7.01842Z" fill="#222222"/>
<path d="M127.38 11.7231L125.533 10.4963L124.534 12.0088L126.679 13.4338L126.375 13.894L123.667 12.0957L126.489 7.828L129.167 9.60686L128.861 10.07L126.745 8.66439L125.838 10.0362L127.685 11.2629L127.38 11.7231Z" fill="#222222"/>
<path d="M131.656 16.3685L130.041 14.9595L128.802 15.6514L128.278 15.1941L133.104 12.615L133.549 13.003L131.67 18.1528L131.149 17.6978L131.656 16.3685ZM130.558 14.6743L131.869 15.8176L132.781 13.4379L130.558 14.6743Z" fill="#222222"/>
<path d="M138.898 19.1587L137.792 17.9421L134.425 21.0184L133.973 20.5219L137.34 17.4455L136.236 16.2315L136.646 15.8571L139.308 18.7842L138.898 19.1587Z" fill="#222222"/>
<path d="M138.857 26.7775L138.47 26.2202L140.411 24.8684L138.941 22.749L137.001 24.1009L136.616 23.5465L140.814 20.6218L141.198 21.1762L139.393 22.4337L140.863 24.553L142.668 23.2955L143.054 23.8528L138.857 26.7775Z" fill="#222222"/>
<path d="M143.308 29.8779C143.193 29.2868 143.182 28.8183 143.276 28.4723C143.373 28.1273 143.579 27.8734 143.896 27.7105C144.254 27.5262 144.623 27.5168 145.003 27.6825C145.385 27.8491 145.694 28.1618 145.929 28.6205C146.089 28.9332 146.171 29.2427 146.176 29.5488C146.181 29.8569 146.111 30.1324 145.967 30.3752C145.824 30.62 145.626 30.8073 145.374 30.9369L145.065 30.3333C145.34 30.1919 145.511 29.9934 145.578 29.7378C145.646 29.4813 145.599 29.1935 145.435 28.8745C145.284 28.5784 145.1 28.3807 144.883 28.2814C144.67 28.1831 144.447 28.1935 144.216 28.3124C144.031 28.4078 143.913 28.5669 143.864 28.7897C143.818 29.0136 143.839 29.3415 143.926 29.7735C144.014 30.2077 144.048 30.5643 144.028 30.8434C144.011 31.1235 143.943 31.3586 143.824 31.5487C143.707 31.7408 143.533 31.8963 143.301 32.0153C142.933 32.205 142.563 32.2133 142.193 32.0402C141.825 31.8661 141.518 31.5382 141.271 31.0565C141.111 30.7438 141.021 30.4213 141.001 30.0892C140.983 29.756 141.04 29.4618 141.172 29.2066C141.306 28.9535 141.505 28.7589 141.77 28.6228L142.079 29.2264C141.804 29.3678 141.638 29.5809 141.581 29.8657C141.527 30.1515 141.587 30.4643 141.762 30.8042C141.924 31.1211 142.113 31.3308 142.328 31.4332C142.544 31.5357 142.763 31.5296 142.986 31.4149C143.209 31.3002 143.341 31.1336 143.382 30.9151C143.424 30.6955 143.4 30.3498 143.308 29.8779Z" fill="#222222"/>
</svg>
