<svg width="88" height="101" viewBox="0 0 88 101" fill="none" xmlns="http://www.w3.org/2000/svg">
<path d="M67.2759 68.522C67.2759 68.7441 67.1895 68.9415 67.0167 69.1143C66.8687 69.287 66.6836 69.4228 66.4614 69.5215C66.2393 69.6449 66.0049 69.7559 65.7581 69.8546C65.536 69.9534 65.3385 70.0397 65.1658 70.1138C64.8943 69.9657 64.6105 69.867 64.3144 69.8176C64.0429 69.7683 63.7961 69.6449 63.574 69.4474H63.3148C62.92 69.4474 62.6115 69.4968 62.3894 69.5955C62.0439 69.4721 61.76 69.287 61.5379 69.0402C61.3158 68.8181 61.106 68.5713 60.9086 68.2998C60.7112 68.0531 60.5137 67.8063 60.3163 67.5595C60.1189 67.3127 59.8721 67.1029 59.5759 66.9301C59.1317 65.6962 58.7368 64.4499 58.3913 63.1912C58.0458 61.9326 57.7867 60.6493 57.6139 59.3413C57.6633 59.2179 57.7003 59.0821 57.725 58.9341C57.7497 58.786 57.762 58.6503 57.762 58.5269C57.762 58.4281 57.7373 58.3294 57.688 58.2307C57.6633 58.1073 57.5893 58.0333 57.4659 58.0086C57.5893 57.8112 57.6633 57.5891 57.688 57.3423C57.7373 57.0708 57.762 56.824 57.762 56.6019C57.762 56.1083 57.7127 55.7011 57.6139 55.3803C57.762 55.2569 57.8237 55.0594 57.799 54.788C57.7744 54.4918 57.836 54.282 57.9841 54.1586C57.8607 53.7391 57.799 53.3319 57.799 52.937C57.799 52.3941 57.8607 51.8635 57.9841 51.3452C58.1322 50.8269 58.2062 50.2963 58.2062 49.7534C58.2062 49.63 58.1939 49.5066 58.1692 49.3832C58.1692 49.2598 58.1569 49.1364 58.1322 49.013C58.2556 48.6181 58.3667 48.2233 58.4654 47.8284C58.5888 47.4089 58.6505 46.9893 58.6505 46.5698C58.6505 46.2736 58.6011 46.0268 58.5024 45.8294C58.8232 44.6941 59.0453 43.5712 59.1687 42.4607C59.3168 41.3254 59.4525 40.1778 59.5759 39.0179C59.5513 38.9686 59.5266 38.9315 59.5019 38.9069C59.4772 38.8822 59.4649 38.8452 59.4649 38.7958C59.4649 38.6724 59.5266 38.5737 59.65 38.4997C59.798 38.4256 59.8597 38.2899 59.8351 38.0924C59.5389 38.3886 59.2921 38.7341 59.0947 39.129C58.9219 39.5238 58.7492 39.9187 58.5764 40.3136C58.4284 40.7084 58.2556 41.1033 58.0582 41.4982C57.8854 41.8684 57.651 42.2015 57.3548 42.4977C57.3301 42.7692 57.2437 43.0283 57.0957 43.2751C56.9723 43.5219 56.9106 43.7934 56.9106 44.0895C56.8859 44.0895 56.8612 44.0895 56.8365 44.0895C56.8119 44.0648 56.7748 44.0525 56.7255 44.0525C56.6268 44.0525 56.5527 44.1142 56.5034 44.2376C56.4787 44.361 56.4047 44.398 56.2813 44.3486C55.7136 45.4592 55.0843 46.5451 54.3933 47.6063C53.727 48.6675 52.8508 49.5189 51.765 50.1606C51.5675 50.0866 51.3824 50.0495 51.2097 50.0495C50.8888 50.0495 50.568 50.1483 50.2472 50.3457C49.951 50.5184 49.7536 50.6048 49.6549 50.6048C49.4081 50.6048 49.0996 50.4814 48.7294 50.2346C48.3839 49.9632 48.026 49.8151 47.6559 49.7904C47.261 49.5189 46.9278 49.2475 46.6563 48.976C46.4096 48.6798 46.027 48.5071 45.5088 48.4577C45.1633 47.9395 44.8177 47.4459 44.4722 46.977C44.1514 46.5081 43.8306 46.0515 43.5097 45.6073C43.2136 45.1384 42.9421 44.6448 42.6953 44.1265C42.4732 43.6083 42.3005 43.0283 42.1771 42.3866C42.2017 42.3373 42.2141 42.2879 42.2141 42.2386C42.2141 42.0905 42.14 42.0288 41.992 42.0535C41.8686 42.0781 41.8069 42.0041 41.8069 41.8314V41.5722C41.8069 41.3748 41.7699 41.202 41.6958 41.054C41.6465 40.8812 41.6341 40.6961 41.6588 40.4987C41.486 40.2272 41.3503 39.9434 41.2516 39.6472C41.1529 39.3511 40.9801 39.092 40.7333 38.8698V38.5367C40.7333 38.3886 40.721 38.2529 40.6963 38.1295C40.6963 37.9814 40.6593 37.858 40.5853 37.7593C40.5359 37.6359 40.4495 37.5618 40.3261 37.5372C40.3014 36.6487 40.1163 35.7479 39.7708 34.8348C39.45 33.897 39.1539 32.9962 38.8824 32.1324C38.685 32.7741 38.5369 33.4281 38.4382 34.0944C38.3394 34.7361 38.2901 35.3901 38.2901 36.0564V36.6857C38.2901 36.8832 38.3148 37.0806 38.3641 37.278C38.2901 37.4014 38.179 37.4878 38.031 37.5372C37.9076 37.5865 37.8335 37.6852 37.8088 37.8333C37.7842 37.9567 37.7718 38.0801 37.7718 38.2035C37.7965 38.3269 37.7965 38.4503 37.7718 38.5737C37.7225 39.166 37.6484 39.7336 37.5497 40.2766C37.4016 41.091 37.2289 41.9177 37.0314 42.7568C36.834 43.5712 36.7353 44.4103 36.7353 45.2741C36.7353 45.3235 36.7353 45.3975 36.7353 45.4962C36.76 45.5703 36.7723 45.632 36.7723 45.6813C36.3774 46.0268 36.1677 46.4587 36.143 46.977C36.1183 47.4952 36.0566 47.9888 35.9579 48.4577C35.8345 49.1488 35.6864 49.8398 35.5137 50.5308C35.3409 51.1971 35.1928 51.8881 35.0694 52.6038C34.9954 52.9987 34.9337 53.3936 34.8843 53.7884C34.835 54.1586 34.7856 54.5412 34.7363 54.936C34.7116 55.1581 34.6252 55.3432 34.4771 55.4913C34.3537 55.6394 34.2674 55.8121 34.218 56.0096C34.1933 56.1823 34.181 56.3798 34.181 56.6019C34.2057 56.7993 34.218 56.9844 34.218 57.1572C34.218 57.4533 34.1933 57.7371 34.144 58.0086C34.0946 58.2554 33.9465 58.4775 33.6997 58.6749C33.7491 59.3166 33.8602 59.8595 34.0329 60.3038C34.2057 60.7727 34.4031 61.2909 34.6252 61.8586H35.5507V62.0066C35.5507 62.2534 35.5877 62.4755 35.6617 62.673C35.7605 62.8704 35.9456 62.9568 36.217 62.9321C36.1923 63.0308 36.18 63.1542 36.18 63.3023C36.18 63.5244 36.217 63.7218 36.2911 63.8946C36.3898 64.092 36.4638 64.3018 36.5132 64.5239C36.0196 65.3383 35.489 65.943 34.9214 66.3378C34.3537 66.7327 33.5763 66.9301 32.5892 66.9301H31.9969C31.8735 66.5353 31.7254 66.1528 31.5527 65.7826C31.3799 65.4124 31.2071 65.0422 31.0344 64.672C30.8863 64.3018 30.7506 63.9193 30.6272 63.5244C30.5285 63.1542 30.4791 62.7594 30.4791 62.3398C30.4791 62.2411 30.4914 62.1424 30.5161 62.0437C30.5408 61.9696 30.5531 61.8832 30.5531 61.7845C30.5531 61.6611 30.5038 61.5871 30.4051 61.5624C30.3063 61.5377 30.257 61.4143 30.257 61.1922C30.257 61.0195 30.2446 60.8591 30.22 60.711C30.22 60.5629 30.22 60.4025 30.22 60.2297C30.22 59.4153 30.2817 58.6132 30.4051 57.8235C30.5285 57.0091 30.6148 56.1947 30.6642 55.3803C30.7876 55.2569 30.8493 55.0964 30.8493 54.899C30.8493 54.7016 30.911 54.5412 31.0344 54.4178V54.1586C31.0344 53.7144 31.0837 53.2702 31.1825 52.826C31.2812 52.3817 31.3922 51.9498 31.5156 51.5303C31.639 51.1107 31.7501 50.6789 31.8488 50.2346C31.9475 49.7904 31.9969 49.3462 31.9969 48.902V48.3097C31.9969 48.1369 32.0709 48.0629 32.219 48.0875C32.3917 48.0875 32.4905 47.9888 32.5151 47.7914C32.5645 47.4459 32.5892 47.1127 32.5892 46.7919C32.6139 46.4464 32.6509 46.1009 32.7002 45.7554C32.8236 45.089 32.9594 44.4227 33.1074 43.7563C33.2555 43.0653 33.3296 42.3743 33.3296 41.6833V41.5722C33.3296 41.4982 33.3913 41.3501 33.5147 41.128C33.638 40.8812 33.6997 40.6467 33.6997 40.4246C33.6997 40.2519 33.6627 40.0915 33.5887 39.9434C33.6134 39.9681 33.6627 39.9804 33.7368 39.9804C33.8355 39.9804 33.8972 39.9557 33.9219 39.9064C33.9712 39.8323 34.0329 39.7706 34.107 39.7213C34.0329 39.6226 33.9959 39.5238 33.9959 39.4251C33.9959 39.3017 34.0082 39.1907 34.0329 39.092C34.0823 38.9686 34.107 38.8452 34.107 38.7218C34.107 38.549 34.0206 38.4256 33.8478 38.3516C34.144 37.8086 34.3537 37.2287 34.4771 36.6117C34.6252 35.9947 34.7239 35.3654 34.7733 34.7237C34.8473 34.0821 34.909 33.4404 34.9584 32.7987C35.0077 32.1324 35.1188 31.5031 35.2916 30.9108C35.2422 30.7627 35.2052 30.6023 35.1805 30.4295C35.1805 30.2568 35.1805 30.0964 35.1805 29.9483C35.1805 29.8496 35.1682 29.7509 35.1435 29.6521C35.1188 29.5287 35.1311 29.4177 35.1805 29.319C35.1805 29.2696 35.1928 29.2079 35.2175 29.1339L35.2916 28.9118C35.3409 28.739 35.3656 28.5663 35.3656 28.3935C35.3903 28.1961 35.415 27.9986 35.4396 27.8012C35.489 27.2336 35.5013 26.6536 35.4767 26.0613C35.4767 25.469 35.5013 24.8767 35.5507 24.2844C35.4767 24.1857 35.4026 24.1117 35.3286 24.0623C35.2545 23.9883 35.2052 23.8895 35.1805 23.7661C35.3779 23.4206 35.5877 23.0998 35.8098 22.8037C36.0566 22.4828 36.3774 22.236 36.7723 22.0633C36.8463 22.3347 37.0438 22.4705 37.3646 22.4705C37.5127 22.4705 37.6978 22.4335 37.9199 22.3594C38.142 22.2854 38.2901 22.1867 38.3641 22.0633C38.7837 22.2114 39.2032 22.2854 39.6228 22.2854C40.067 22.2607 40.4742 22.3594 40.8444 22.5815C40.9184 22.9517 41.0171 23.3343 41.1405 23.7291C41.2639 24.124 41.4367 24.4818 41.6588 24.8027C41.7082 25.1235 41.7575 25.5184 41.8069 25.9873C41.8562 26.4315 41.9056 26.9004 41.955 27.394C42.0043 27.8629 42.0783 28.3195 42.1771 28.7637C42.2758 29.1832 42.4115 29.5164 42.5843 29.7632C42.609 30.2074 42.683 30.6517 42.8064 31.0959C42.9298 31.5401 43.0655 31.972 43.2136 32.3915C43.3617 32.7864 43.4851 33.1566 43.5838 33.5021C43.7072 33.8476 43.7689 34.1314 43.7689 34.3535C43.7689 34.551 43.7319 34.6867 43.6578 34.7607C43.6085 34.8101 43.5591 34.9088 43.5097 35.0569C43.6085 35.3284 43.7442 35.5628 43.917 35.7603C44.0897 35.933 44.2748 36.1428 44.4722 36.3896C44.8424 37.7963 45.3237 39.166 45.916 40.4987C46.5083 41.8314 47.224 43.1147 48.0631 44.3486C48.2852 44.3733 48.4579 44.435 48.5813 44.5337C48.7294 44.6324 48.9515 44.6571 49.2477 44.6078V44.8669C49.2477 45.1137 49.297 45.2864 49.3957 45.3852C49.6179 45.5332 49.877 45.6073 50.1731 45.6073C50.494 45.6073 50.7408 45.5209 50.9135 45.3481C51.111 45.1507 51.296 44.9286 51.4688 44.6818C51.6416 44.435 51.8143 44.2006 51.9871 43.9784C52.1598 43.7563 52.3943 43.6083 52.6904 43.5342V43.4602C52.6904 43.2627 52.7274 43.1023 52.8015 42.9789C52.9002 42.8309 52.9496 42.6704 52.9496 42.4977C53.221 42.3003 53.4308 42.0535 53.5789 41.7573C53.727 41.4612 53.8627 41.165 53.9861 40.8689C54.1095 40.548 54.2452 40.2519 54.3933 39.9804C54.566 39.7089 54.7882 39.4868 55.0596 39.3141C55.4051 38.2529 55.8247 37.2657 56.3183 36.3526C56.8119 35.4394 57.3301 34.514 57.8731 33.5761C57.8731 33.5021 57.8607 33.4281 57.836 33.354C57.8114 33.2553 57.799 33.1689 57.799 33.0949C57.799 33.0702 57.8237 32.9592 57.8731 32.7617C57.9965 32.5149 58.1075 32.2805 58.2062 32.0584C58.305 31.8363 58.3913 31.5895 58.4654 31.318C58.7122 30.5529 58.9343 29.8002 59.1317 29.0598C59.3538 28.3195 59.6747 27.6161 60.0942 26.9498V26.0243C60.5384 25.1358 60.8469 24.198 61.0197 23.2109C61.2171 22.2237 61.4516 21.2612 61.723 20.3234C61.7724 20.0519 61.8588 19.7804 61.9822 19.509C62.1302 19.2128 62.303 19.003 62.5004 18.8797C62.4264 18.7316 62.3894 18.5835 62.3894 18.4354C62.3894 18.238 62.414 18.0652 62.4634 17.9172C62.5374 17.7444 62.5991 17.5717 62.6485 17.3989C62.5745 17.2261 62.5374 17.004 62.5374 16.7326C62.5374 16.387 62.6362 16.0662 62.8336 15.7701C63.031 15.4492 63.3272 15.2395 63.722 15.1407C63.9688 15.2148 64.1786 15.3382 64.3514 15.5109C64.5241 15.6837 64.6845 15.8688 64.8326 16.0662C65.0054 16.239 65.1781 16.387 65.3509 16.5104C65.5483 16.6092 65.7951 16.6338 66.0913 16.5845C66.2887 16.9547 66.4244 17.3495 66.4985 17.7691C66.5725 18.164 66.6095 18.5712 66.6095 18.9907C66.6095 19.5583 66.5602 20.1506 66.4614 20.7676C66.3627 21.3599 66.3257 21.9646 66.3504 22.5815C66.153 22.9764 66.0049 23.4083 65.9062 23.8772C65.8321 24.3214 65.7581 24.778 65.684 25.2469C65.61 25.7158 65.5236 26.1724 65.4249 26.6166C65.3262 27.0608 65.1534 27.4804 64.9067 27.8752C64.8326 28.9858 64.7462 30.0717 64.6475 31.1329C64.5735 32.1941 64.4501 33.2553 64.2773 34.3165L63.9442 36.4266C63.8948 36.5994 63.8454 36.7968 63.7961 37.0189C63.7467 37.2163 63.722 37.3891 63.722 37.5372C63.722 37.6852 63.7344 37.8457 63.7591 38.0184C63.7837 38.1665 63.8578 38.2775 63.9812 38.3516C63.8084 38.5984 63.685 38.8945 63.611 39.24C63.537 39.5855 63.4629 39.9557 63.3889 40.3506L63.2038 41.4982C63.1544 41.8684 63.0557 42.2015 62.9076 42.4977V42.9049C62.9076 43.8921 62.7349 44.9039 62.3894 45.9404V46.1255C62.3894 46.2489 62.377 46.36 62.3524 46.4587C62.3524 46.5327 62.3524 46.6315 62.3524 46.7549C62.3524 46.9276 62.4017 47.0634 62.5004 47.1621C62.303 47.8037 62.1179 48.4701 61.9451 49.1611C61.7724 49.8274 61.649 50.5184 61.575 51.2341C61.5009 52.1966 61.4886 53.1838 61.5379 54.1957C61.5873 55.1828 61.4639 56.1453 61.1677 57.0831C61.3158 57.5274 61.4145 58.0086 61.4639 58.5269L61.612 60.0817C61.6613 60.5999 61.7354 61.0935 61.8341 61.5624C61.9575 62.056 62.1796 62.4632 62.5004 62.784C62.5251 62.8334 62.5374 62.9074 62.5374 63.0061C62.5374 63.2036 62.4881 63.3517 62.3894 63.4504C62.4387 63.6972 62.5251 63.9069 62.6485 64.0797C62.7719 64.2524 62.8953 64.4129 63.0187 64.5609C63.1421 64.7337 63.2408 64.9188 63.3148 65.1162C63.4136 65.3137 63.4629 65.5604 63.4629 65.8566C63.6604 66.1281 63.9688 66.3378 64.3884 66.4859C64.8079 66.634 65.2275 66.7821 65.647 66.9301C66.0913 67.0782 66.4738 67.2633 66.7946 67.4854C67.1154 67.7322 67.2759 68.0777 67.2759 68.522Z" fill="#222222"/>
<path d="M16.9172 85.4902L18.3856 89.155L19.854 85.4902H20.6221V89.9818H20.0298V88.2326L20.0854 86.3447L18.6108 89.9818H18.1573L16.6858 86.3539L16.7444 88.2326V89.9818H16.1521V85.4902H16.9172Z" fill="#222222"/>
<path d="M24.8355 88.8095H22.9537L22.5311 89.9818H21.9203L23.6355 85.4902H24.1537L25.872 89.9818H25.2643L24.8355 88.8095ZM23.1326 88.3221H24.6597L23.8946 86.2213L23.1326 88.3221Z" fill="#222222"/>
<path d="M28.7558 88.1648H27.7008V89.9818H27.1054V85.4902H28.5923C29.0982 85.4902 29.4869 85.6053 29.7584 85.8357C30.0319 86.066 30.1687 86.4012 30.1687 86.8414C30.1687 87.1211 30.0926 87.3648 29.9404 87.5725C29.7903 87.7802 29.5805 87.9355 29.3111 88.0383L30.3661 89.9448V89.9818H29.7306L28.7558 88.1648ZM27.7008 87.6804H28.6108C28.9049 87.6804 29.1383 87.6044 29.3111 87.4522C29.4859 87.3 29.5733 87.0964 29.5733 86.8414C29.5733 86.5637 29.49 86.3509 29.3234 86.2028C29.1589 86.0547 28.9203 85.9796 28.6077 85.9776H27.7008V87.6804Z" fill="#222222"/>
<path d="M34.1137 88.8095H32.2319L31.8092 89.9818H31.1984L32.9136 85.4902H33.4319L35.1502 89.9818H34.5425L34.1137 88.8095ZM32.4108 88.3221H33.9378L33.1728 86.2213L32.4108 88.3221Z" fill="#222222"/>
<path d="M37.1517 85.4902L38.6201 89.155L40.0885 85.4902H40.8566V89.9818H40.2643V88.2326L40.3199 86.3447L38.8453 89.9818H38.3918L36.9203 86.3539L36.9789 88.2326V89.9818H36.3866V85.4902H37.1517Z" fill="#222222"/>
<path d="M45.07 88.8095H43.1882L42.7656 89.9818H42.1548L43.87 85.4902H44.3882L46.1065 89.9818H45.4988L45.07 88.8095ZM43.3671 88.3221H44.8942L44.1291 86.2213L43.3671 88.3221Z" fill="#222222"/>
<path d="M52.0222 88.8095H50.1404L49.7177 89.9818H49.1069L50.8221 85.4902H51.3404L53.0587 89.9818H52.451L52.0222 88.8095ZM50.3193 88.3221H51.8463L51.0813 86.2213L50.3193 88.3221Z" fill="#222222"/>
<path d="M54.2951 89.9818V85.4902H55.7635C56.2509 85.4902 56.617 85.5909 56.8618 85.7925C57.1085 85.994 57.2319 86.2922 57.2319 86.6871C57.2319 86.8969 57.1723 87.083 57.053 87.2455C56.9337 87.4059 56.7713 87.5303 56.5656 87.6188C56.8083 87.6866 56.9995 87.8162 57.1394 88.0074C57.2813 88.1967 57.3523 88.4229 57.3523 88.6861C57.3523 89.0892 57.2217 89.4059 56.9605 89.6363C56.6993 89.8666 56.3301 89.9818 55.853 89.9818H54.2951ZM54.8874 87.881V89.4975H55.8653C56.1409 89.4975 56.3579 89.4265 56.5162 89.2846C56.6767 89.1406 56.7569 88.9432 56.7569 88.6923C56.7569 88.1514 56.4628 87.881 55.8746 87.881H54.8874ZM54.8874 87.4059H55.782C56.0412 87.4059 56.2479 87.3411 56.4021 87.2115C56.5584 87.082 56.6366 86.9061 56.6366 86.684C56.6366 86.4372 56.5646 86.2583 56.4206 86.1472C56.2766 86.0341 56.0576 85.9776 55.7635 85.9776H54.8874V87.4059Z" fill="#222222"/>
<path d="M58.8632 89.9818V85.4902H60.3317C60.8191 85.4902 61.1851 85.5909 61.4299 85.7925C61.6767 85.994 61.8001 86.2922 61.8001 86.6871C61.8001 86.8969 61.7404 87.083 61.6211 87.2455C61.5019 87.4059 61.3394 87.5303 61.1337 87.6188C61.3764 87.6866 61.5677 87.8162 61.7075 88.0074C61.8494 88.1967 61.9204 88.4229 61.9204 88.6861C61.9204 89.0892 61.7898 89.4059 61.5286 89.6363C61.2674 89.8666 60.8982 89.9818 60.4211 89.9818H58.8632ZM59.4555 87.881V89.4975H60.4335C60.709 89.4975 60.926 89.4265 61.0844 89.2846C61.2448 89.1406 61.325 88.9432 61.325 88.6923C61.325 88.1514 61.0309 87.881 60.4427 87.881H59.4555ZM59.4555 87.4059H60.3502C60.6093 87.4059 60.816 87.3411 60.9702 87.2115C61.1265 87.082 61.2047 86.9061 61.2047 86.684C61.2047 86.4372 61.1327 86.2583 60.9887 86.1472C60.8448 86.0341 60.6257 85.9776 60.3317 85.9776H59.4555V87.4059Z" fill="#222222"/>
<path d="M66.8865 87.881C66.8865 88.3211 66.8124 88.7057 66.6643 89.0347C66.5163 89.3617 66.3065 89.6116 66.035 89.7844C65.7636 89.9571 65.4468 90.0435 65.0849 90.0435C64.7311 90.0435 64.4175 89.9571 64.144 89.7844C63.8705 89.6095 63.6576 89.3617 63.5054 89.0409C63.3553 88.718 63.2782 88.3447 63.274 87.9211V87.5972C63.274 87.1653 63.3491 86.7838 63.4992 86.4527C63.6494 86.1215 63.8612 85.8686 64.1347 85.6938C64.4103 85.5169 64.725 85.4285 65.0787 85.4285C65.4386 85.4285 65.7553 85.5159 66.0289 85.6907C66.3044 85.8634 66.5163 86.1154 66.6643 86.4465C66.8124 86.7755 66.8865 87.1591 66.8865 87.5972V87.881ZM66.2972 87.591C66.2972 87.0583 66.1903 86.6501 65.9764 86.3663C65.7625 86.0804 65.4633 85.9375 65.0787 85.9375C64.7044 85.9375 64.4093 86.0804 64.1933 86.3663C63.9795 86.6501 63.8694 87.045 63.8633 87.5509V87.881C63.8633 88.3972 63.9712 88.8034 64.1872 89.0995C64.4052 89.3936 64.7044 89.5406 65.0849 89.5406C65.4674 89.5406 65.7636 89.4018 65.9733 89.1242C66.1831 88.8445 66.2911 88.4445 66.2972 87.9242V87.591Z" fill="#222222"/>
<path d="M71.4237 85.9776H69.98V89.9818H69.3908V85.9776H67.9501V85.4902H71.4237V85.9776Z" fill="#222222"/>
<path d="M75.8746 85.9776H74.4309V89.9818H73.8417V85.9776H72.401V85.4902H75.8746V85.9776Z" fill="#222222"/>
<path d="M6.67413 98.3449H4.72756V99.9367H6.98879V100.421H4.13525V95.9294H6.95794V96.4168H4.72756V97.8605H6.67413V98.3449Z" fill="#222222"/>
<path d="M8.35787 100.421V95.9294H9.62577C10.0165 95.9294 10.362 96.0158 10.6623 96.1885C10.9626 96.3613 11.1939 96.607 11.3564 96.9258C11.5209 97.2446 11.6042 97.6106 11.6063 98.024V98.3109C11.6063 98.7346 11.524 99.1058 11.3595 99.4246C11.197 99.7433 10.9636 99.9881 10.6592 100.159C10.3569 100.329 10.0042 100.417 9.60109 100.421H8.35787ZM8.95018 96.4168V99.9367H9.57333C10.0299 99.9367 10.3847 99.7948 10.6376 99.5109C10.8926 99.2271 11.0201 98.823 11.0201 98.2986V98.0364C11.0201 97.5263 10.8998 97.1304 10.6592 96.8487C10.4206 96.5649 10.0813 96.4209 9.64119 96.4168H8.95018Z" fill="#222222"/>
<path d="M13.1358 100.421V95.9294H14.4037C14.7944 95.9294 15.1399 96.0158 15.4402 96.1885C15.7405 96.3613 15.9718 96.607 16.1343 96.9258C16.2988 97.2446 16.3821 97.6106 16.3842 98.024V98.3109C16.3842 98.7346 16.3019 99.1058 16.1374 99.4246C15.9749 99.7433 15.7415 99.9881 15.4371 100.159C15.1348 100.329 14.7821 100.417 14.379 100.421H13.1358ZM13.7281 96.4168V99.9367H14.3512C14.8078 99.9367 15.1626 99.7948 15.4155 99.5109C15.6705 99.2271 15.798 98.823 15.798 98.2986V98.0364C15.798 97.5263 15.6777 97.1304 15.4371 96.8487C15.1985 96.5649 14.8592 96.4209 14.4191 96.4168H13.7281Z" fill="#222222"/>
<path d="M18.5492 100.421H17.9569V95.9294H18.5492V100.421Z" fill="#222222"/>
<path d="M23.7189 100.421H23.1235L20.8622 96.9597V100.421H20.2668V95.9294H20.8622L23.1296 99.4061V95.9294H23.7189V100.421Z" fill="#222222"/>
<path d="M28.7189 99.8318C28.5667 100.05 28.3538 100.213 28.0803 100.322C27.8088 100.429 27.4921 100.483 27.1301 100.483C26.7641 100.483 26.4391 100.397 26.1553 100.227C25.8715 100.054 25.6514 99.8092 25.4951 99.4924C25.3409 99.1757 25.2617 98.8086 25.2576 98.3911V97.9993C25.2576 97.3227 25.4149 96.7983 25.7296 96.426C26.0463 96.0538 26.4905 95.8677 27.0623 95.8677C27.5312 95.8677 27.9086 95.988 28.1944 96.2286C28.4803 96.4672 28.6551 96.8065 28.7189 97.2466H28.1266C28.0155 96.6523 27.6618 96.3551 27.0654 96.3551C26.6684 96.3551 26.3671 96.4949 26.1615 96.7746C25.9579 97.0523 25.855 97.4554 25.853 97.9839V98.351C25.853 98.8549 25.9682 99.2559 26.1985 99.5541C26.4288 99.8503 26.7404 99.9984 27.1332 99.9984C27.3553 99.9984 27.5497 99.9737 27.7163 99.9243C27.8829 99.875 28.0207 99.7917 28.1297 99.6744V98.6657H27.09V98.1844H28.7189V99.8318Z" fill="#222222"/>
<path d="M33.1321 98.6626V100.421H32.5398V95.9294H34.1964C34.688 95.9294 35.0725 96.0548 35.3502 96.3057C35.6299 96.5566 35.7697 96.8888 35.7697 97.3022C35.7697 97.7382 35.633 98.0744 35.3594 98.3109C35.088 98.5454 34.6982 98.6626 34.1903 98.6626H33.1321ZM33.1321 98.1783H34.1964C34.5131 98.1783 34.7558 98.1042 34.9245 97.9562C35.0931 97.806 35.1774 97.5901 35.1774 97.3083C35.1774 97.041 35.0931 96.8271 34.9245 96.6667C34.7558 96.5063 34.5245 96.423 34.2304 96.4168H33.1321V98.1783Z" fill="#222222"/>
<path d="M40.6093 100.421H40.0139V98.3449H37.7496V100.421H37.1573V95.9294H37.7496V97.8605H40.0139V95.9294H40.6093V100.421Z" fill="#222222"/>
<path d="M45.7482 98.3202C45.7482 98.7603 45.6741 99.1449 45.5261 99.4739C45.378 99.8009 45.1682 100.051 44.8967 100.224C44.6253 100.396 44.3085 100.483 43.9466 100.483C43.5928 100.483 43.2792 100.396 43.0057 100.224C42.7322 100.049 42.5193 99.8009 42.3671 99.4801C42.217 99.1572 42.1399 98.7839 42.1357 98.3603V98.0364C42.1357 97.6045 42.2108 97.223 42.3609 96.8919C42.5111 96.5608 42.7229 96.3078 42.9964 96.133C43.272 95.9561 43.5867 95.8677 43.9404 95.8677C44.3003 95.8677 44.617 95.9551 44.8906 96.1299C45.1661 96.3026 45.378 96.5546 45.5261 96.8857C45.6741 97.2148 45.7482 97.5983 45.7482 98.0364V98.3202ZM45.159 98.0302C45.159 97.4975 45.052 97.0893 44.8381 96.8055C44.6242 96.5196 44.325 96.3767 43.9404 96.3767C43.5661 96.3767 43.271 96.5196 43.055 96.8055C42.8412 97.0893 42.7311 97.4842 42.725 97.9901V98.3202C42.725 98.8364 42.8329 99.2426 43.0489 99.5387C43.2669 99.8328 43.5661 99.9799 43.9466 99.9799C44.3291 99.9799 44.6253 99.841 44.835 99.5634C45.0448 99.2837 45.1528 98.8837 45.159 98.3634V98.0302Z" fill="#222222"/>
<path d="M50.2854 96.4168H48.8417V100.421H48.2525V96.4168H46.8118V95.9294H50.2854V96.4168Z" fill="#222222"/>
<path d="M54.9523 98.3202C54.9523 98.7603 54.8783 99.1449 54.7302 99.4739C54.5821 99.8009 54.3723 100.051 54.1009 100.224C53.8294 100.396 53.5127 100.483 53.1507 100.483C52.797 100.483 52.4833 100.396 52.2098 100.224C51.9363 100.049 51.7234 99.8009 51.5712 99.4801C51.4211 99.1572 51.344 98.7839 51.3399 98.3603V98.0364C51.3399 97.6045 51.4149 97.223 51.5651 96.8919C51.7152 96.5608 51.927 96.3078 52.2006 96.133C52.4761 95.9561 52.7908 95.8677 53.1445 95.8677C53.5044 95.8677 53.8212 95.9551 54.0947 96.1299C54.3703 96.3026 54.5821 96.5546 54.7302 96.8857C54.8783 97.2148 54.9523 97.5983 54.9523 98.0364V98.3202ZM54.3631 98.0302C54.3631 97.4975 54.2561 97.0893 54.0422 96.8055C53.8284 96.5196 53.5291 96.3767 53.1445 96.3767C52.7702 96.3767 52.4751 96.5196 52.2592 96.8055C52.0453 97.0893 51.9353 97.4842 51.9291 97.9901V98.3202C51.9291 98.8364 52.0371 99.2426 52.253 99.5387C52.471 99.8328 52.7702 99.9799 53.1507 99.9799C53.5332 99.9799 53.8294 99.841 54.0392 99.5634C54.2489 99.2837 54.3569 98.8837 54.3631 98.3634V98.0302Z" fill="#222222"/>
<path d="M59.7888 99.8318C59.6366 100.05 59.4238 100.213 59.1502 100.322C58.8788 100.429 58.562 100.483 58.2001 100.483C57.834 100.483 57.5091 100.397 57.2253 100.227C56.9414 100.054 56.7214 99.8092 56.5651 99.4924C56.4108 99.1757 56.3317 98.8086 56.3275 98.3911V97.9993C56.3275 97.3227 56.4849 96.7983 56.7995 96.426C57.1162 96.0538 57.5605 95.8677 58.1322 95.8677C58.6011 95.8677 58.9785 95.988 59.2644 96.2286C59.5502 96.4672 59.7251 96.8065 59.7888 97.2466H59.1965C59.0854 96.6523 58.7317 96.3551 58.1353 96.3551C57.7384 96.3551 57.4371 96.4949 57.2314 96.7746C57.0278 97.0523 56.925 97.4554 56.9229 97.9839V98.351C56.9229 98.8549 57.0381 99.2559 57.2684 99.5541C57.4988 99.8503 57.8104 99.9984 58.2032 99.9984C58.4253 99.9984 58.6196 99.9737 58.7862 99.9243C58.9528 99.875 59.0906 99.7917 59.1996 99.6744V98.6657H58.16V98.1844H59.7888V99.8318Z" fill="#222222"/>
<path d="M63.0582 98.604H62.0032V100.421H61.4078V95.9294H62.8947C63.4006 95.9294 63.7893 96.0445 64.0608 96.2749C64.3343 96.5052 64.4711 96.8404 64.4711 97.2806C64.4711 97.5603 64.395 97.804 64.2428 98.0117C64.0927 98.2194 63.8829 98.3747 63.6135 98.4775L64.6685 100.384V100.421H64.033L63.0582 98.604ZM62.0032 98.1197H62.9132C63.2073 98.1197 63.4407 98.0436 63.6135 97.8914C63.7883 97.7392 63.8757 97.5356 63.8757 97.2806C63.8757 97.0029 63.7924 96.7901 63.6258 96.642C63.4613 96.4939 63.2227 96.4188 62.9101 96.4168H62.0032V98.1197Z" fill="#222222"/>
<path d="M68.4161 99.2487H66.5343L66.1116 100.421H65.5008L67.216 95.9294H67.7343L69.4526 100.421H68.8449L68.4161 99.2487ZM66.7132 98.7613H68.2402L67.4752 96.6605L66.7132 98.7613Z" fill="#222222"/>
<path d="M71.2813 98.6626V100.421H70.689V95.9294H72.3456C72.8371 95.9294 73.2217 96.0548 73.4994 96.3057C73.7791 96.5566 73.9189 96.8888 73.9189 97.3022C73.9189 97.7382 73.7821 98.0744 73.5086 98.3109C73.2371 98.5454 72.8474 98.6626 72.3394 98.6626H71.2813ZM71.2813 98.1783H72.3456C72.6623 98.1783 72.905 98.1042 73.0736 97.9562C73.2423 97.806 73.3266 97.5901 73.3266 97.3083C73.3266 97.041 73.2423 96.8271 73.0736 96.6667C72.905 96.5063 72.6736 96.423 72.3795 96.4168H71.2813V98.1783Z" fill="#222222"/>
<path d="M78.7585 100.421H78.1631V98.3449H75.8988V100.421H75.3065V95.9294H75.8988V97.8605H78.1631V95.9294H78.7585V100.421Z" fill="#222222"/>
<path d="M82.9811 98.3449H81.0346V99.9367H83.2958V100.421H80.4423V95.9294H83.2649V96.4168H81.0346V97.8605H82.9811V98.3449Z" fill="#222222"/>
<path d="M86.3122 98.604H85.2572V100.421H84.6618V95.9294H86.1487C86.6546 95.9294 87.0433 96.0445 87.3148 96.2749C87.5883 96.5052 87.7251 96.8404 87.7251 97.2806C87.7251 97.5603 87.649 97.804 87.4968 98.0117C87.3467 98.2194 87.1369 98.3747 86.8675 98.4775L87.9225 100.384V100.421H87.287L86.3122 98.604ZM85.2572 98.1197H86.1672C86.4613 98.1197 86.6947 98.0436 86.8675 97.8914C87.0423 97.7392 87.1297 97.5356 87.1297 97.2806C87.1297 97.0029 87.0464 96.7901 86.8798 96.642C86.7153 96.4939 86.4767 96.4188 86.1641 96.4168H85.2572V98.1197Z" fill="#222222"/>
<path d="M43.9143 27.5252C43.3974 26.4321 42.7403 25.4112 41.9598 24.4884C39.766 22.0126 36.9811 20.1354 33.866 19.0325C32.7509 17.4286 30.6258 14.0631 30.7439 11.9334C32.1272 8.54674 33.8874 5.32736 35.9911 2.33634C34.6369 1.94709 33.2224 1.81336 31.8196 1.94194C31.1817 2.00011 30.5638 2.19446 30.0071 2.51193C29.4505 2.8294 28.9682 3.26262 28.5925 3.78247C28.016 4.89236 27.74 6.13443 27.7923 7.38464C27.5932 9.90506 27.6679 12.4397 28.0153 14.9439C27.9159 15.2762 27.8371 15.6143 27.7792 15.9562H27.5693C26.3404 10.8968 25.9373 5.67128 26.3756 0.482666C24.9959 0.832827 23.6957 1.44417 22.5451 2.28375C22.0215 2.65641 21.5849 3.13861 21.2656 3.69701C20.9462 4.25541 20.7517 4.87667 20.6955 5.51782C20.7577 6.76467 21.1517 7.97212 21.8368 9.01482C23.0104 11.4597 24.4917 13.7439 26.2444 15.8116H26.1657C23.4634 13.1166 19.9084 8.96223 18.4786 5.0051C13.7036 5.74131 10.8308 12.6959 10.8964 15.7064C15.3435 14.1809 20.1706 14.1809 24.6178 15.7064C24.6032 15.9955 24.6032 16.2851 24.6178 16.5741C22.6324 16.1659 20.62 15.9022 18.5966 15.7853C17.367 15.5704 16.1023 15.693 14.9367 16.1403C14.3738 16.4441 13.8837 16.8673 13.5008 17.3805C13.1179 17.8937 12.8514 18.4844 12.7198 19.1114C12.4009 20.5048 12.3563 21.9472 12.5886 23.3578C16.6578 21.1637 21.0237 19.5739 25.5492 18.6381C25.7394 18.7619 25.9543 18.8427 26.1788 18.8748C23.5795 20.1326 21.1543 21.7236 18.9639 23.6076C17.8895 24.323 17.0139 25.3001 16.419 26.4472C16.2027 27.06 16.1223 27.7127 16.1835 28.3598C16.2446 29.0069 16.4459 29.6329 16.7732 30.194C17.5041 31.4244 18.4717 32.4969 19.6198 33.3492C20.8498 29.9241 22.4417 26.6407 24.3685 23.555C25.0507 22.0037 30.9275 20.6496 33.4331 20.1369C36.3468 21.1797 38.9503 22.9433 41.0021 25.264C42.0515 26.5379 42.8566 27.9954 43.3765 29.563C43.547 28.8794 43.7307 28.2089 43.9143 27.5252Z" fill="#F2A89A"/>
<path d="M50.0798 63.7967C48.7868 67.3072 46.5239 70.3765 43.5553 72.6463C40.5867 74.916 37.035 76.2924 33.315 76.6147C29.546 77.0712 25.7251 76.4493 22.2941 74.8208C18.863 73.1922 15.9621 70.6236 13.9266 67.412C12.7712 65.5558 11.9995 63.4859 11.6572 61.3251C13.0871 62.3506 16.1436 61.3251 17.2586 60.6678C19.1082 59.6424 20.6824 58.1568 22.7288 57.4995C20.5599 56.036 17.9407 55.3972 15.3434 55.6984C13.8523 56.0822 12.5207 56.9289 11.5391 58.1174C11.6217 56.8519 11.9375 55.6128 12.4705 54.4626C15.4614 48.1391 22.3221 47.1794 28.9598 46.2591C30.4684 46.0488 31.8983 45.8516 33.2757 45.5887C35.7535 45.1717 38.1276 44.2789 40.2675 42.9593C40.3493 42.3472 40.5034 41.747 40.7267 41.1714C38.4788 42.8805 35.8413 44.001 33.0526 44.4317C31.7408 44.6815 30.2848 44.8787 28.7893 45.0891C23.3453 45.8516 17.3111 46.693 13.52 50.7947C13.7078 49.8161 13.699 48.8097 13.494 47.8345C13.289 46.8593 12.892 45.9349 12.3262 45.1154C10.553 43.0089 8.06945 41.6288 5.34745 41.2371C6.50184 43.2486 6.7642 45.5886 7.52504 47.8104C8.06288 49.3354 10.2929 53.3057 12.4574 52.1225C12.0473 52.6997 11.6875 53.3111 11.3817 53.9499C10.6051 55.8215 10.234 57.837 10.2928 59.8631C10.3516 61.8893 10.839 63.8798 11.7228 65.703C10.5423 65.0648 9.22049 64.7347 7.87923 64.7433C5.18679 65.0769 2.70917 66.3862 0.913574 68.4243C3.1961 68.5558 5.25563 69.6338 7.47257 70.186C8.90243 70.5409 12.8116 70.8301 13.5856 68.9633C15.562 71.7642 18.1865 74.043 21.2343 75.6045C24.282 77.1661 27.6622 77.9638 31.0849 77.9293C31.8783 77.931 32.671 77.8872 33.4593 77.7979C37.3931 77.4374 41.1456 75.9718 44.2853 73.5694C47.425 71.1671 49.8245 67.9255 51.2079 64.2174L50.0798 63.7967Z" fill="#F2A89A"/>
</svg>
