<svg width="116" height="101" viewBox="0 0 116 101" fill="none" xmlns="http://www.w3.org/2000/svg">
<path d="M17.657 82.8001C17.9526 82.8001 18.1004 82.9057 18.1004 83.1168C18.1004 83.9755 16.9179 86.432 14.5529 90.4863C14.6515 90.8664 14.8063 91.3098 15.0175 91.8166L21.31 87.0233C23.7173 85.1932 25.3432 84.0178 26.1879 83.4969C28.0742 82.3707 29.9254 81.8076 31.7414 81.8076C32.2622 81.8076 32.7409 81.8921 33.1773 82.061C33.4447 82.1596 33.5785 82.3426 33.5785 82.61C33.5785 82.8775 33.5081 83.0112 33.3673 83.0112C33.2828 83.0112 33.1913 82.9549 33.0928 82.8423C33.0083 82.7297 32.7409 82.6734 32.2904 82.6734C31.854 82.6734 31.136 82.786 30.1366 83.0112C28.5599 83.3632 26.7721 84.1515 24.7731 85.3762C23.5202 86.1505 21.845 87.34 19.7475 88.9448C17.6499 90.5497 16.1366 91.6547 15.2075 92.2601C15.9255 93.7663 16.8475 95.167 17.9737 96.4621C19.7052 98.4752 21.2608 99.4817 22.6404 99.4817C23.3161 99.4817 23.6539 99.2213 23.6539 98.7005C23.6539 98.6019 23.6399 98.5034 23.6117 98.4048C23.5976 98.3063 23.6258 98.1866 23.6962 98.0459C23.7665 97.9051 23.851 97.8347 23.9496 97.8347C24.1326 97.8347 24.2522 98.0529 24.3085 98.4893C24.3226 98.5597 24.3296 98.6301 24.3296 98.7005C24.3296 99.1509 24.0974 99.5169 23.6328 99.7985C23.1823 100.094 22.6404 100.242 22.0069 100.242C21.3875 100.242 20.8666 100.143 20.4443 99.9463C19.3322 99.3973 18.206 98.433 17.0657 97.0534C15.9395 95.6738 15.0738 94.2238 14.4685 92.7035C13.6942 93.154 13.0537 93.4003 12.5469 93.4426C11.6037 94.6673 10.4423 95.8568 9.06274 97.0112C8.31664 97.6446 7.50719 98.1514 6.6344 98.5315C5.7616 98.9257 4.924 99.1228 4.12159 99.1228C2.98132 99.1228 2.10149 98.8342 1.48208 98.257C0.86268 97.6939 0.552979 96.8282 0.552979 95.6597C0.552979 95.0826 0.665597 94.5476 0.890835 94.0549C1.60878 92.4642 2.69274 91.3661 4.14271 90.7608C4.94512 90.4089 5.74049 90.2329 6.52882 90.2329C7.33123 90.2329 7.86617 90.4933 8.13364 91.0142C8.23218 91.1972 8.28145 91.3943 8.28145 91.6055C8.28145 91.8025 8.2533 91.9292 8.19699 91.9855C8.14068 92.0419 8.06325 91.9926 7.96471 91.8377C7.62685 91.2183 7.26788 90.8734 6.88779 90.8031C6.6344 90.7749 6.45139 90.7608 6.33877 90.7608C5.24074 90.7608 4.21309 91.2183 3.25583 92.1334C2.01702 93.3299 1.39762 94.6251 1.39762 96.0187C1.39762 97.5391 2.25634 98.3978 3.97378 98.5949C4.03009 98.5949 4.0864 98.5949 4.14271 98.5949C4.76211 98.5949 5.55748 98.3204 6.52882 97.7713C8.10548 96.8704 9.78773 95.3219 11.5756 93.1258C11.2518 92.8302 11.0899 92.3938 11.0899 91.8166C11.0899 91.2394 11.301 90.6975 11.7234 90.1907C12.1598 89.6698 12.751 89.4094 13.4971 89.4094C13.7083 89.4094 13.9054 89.4305 14.0884 89.4727C14.7922 88.2902 15.475 87.0162 16.1366 85.6507C16.7983 84.2712 17.1291 83.4758 17.1291 83.2646C17.1291 83.2365 17.0868 83.2224 17.0024 83.2224C16.9179 83.2224 16.4252 83.4476 15.5243 83.8981C14.6374 84.3345 14.0039 84.6794 13.6238 84.9328C13.2437 85.1862 12.7792 85.5874 12.2302 86.1364C11.6811 86.6713 11.4066 87.1077 11.4066 87.4456C11.4066 87.6005 11.5122 87.7553 11.7234 87.9102C11.9486 88.065 12.3498 88.1424 12.927 88.1424C12.9974 88.1706 13.0326 88.2128 13.0326 88.2691C13.0326 88.3114 12.8355 88.3677 12.4413 88.4381C12.0612 88.4944 11.7586 88.5225 11.5333 88.5225C11.0265 88.5225 10.7731 88.3114 10.7731 87.889C10.7731 87.3963 11.0758 86.8051 11.6811 86.1153C12.2865 85.4255 12.9481 84.8835 13.666 84.4894C15.7636 83.3632 17.0939 82.8001 17.657 82.8001ZM14.2995 92.2601C14.1869 91.9785 14.0954 91.697 14.025 91.4154C13.7435 91.8237 13.4619 92.2249 13.1804 92.619C13.3211 92.619 13.4478 92.612 13.5605 92.5979C13.6731 92.5698 13.9194 92.4571 14.2995 92.2601ZM13.4971 90.4441C13.3282 90.3737 13.1381 90.3385 12.927 90.3385C12.7299 90.3385 12.5258 90.4652 12.3146 90.7186C12.1175 90.972 12.019 91.2465 12.019 91.5421C12.019 91.8237 12.0964 92.063 12.2513 92.2601C12.9411 91.2746 13.3563 90.6693 13.4971 90.4441Z" fill="#222222"/>
<path d="M24.848 97.4335C24.0174 97.4335 23.6021 96.9478 23.6021 95.9765C23.6021 95.4275 23.7922 94.8221 24.1723 94.1605C24.5664 93.4848 25.0451 92.6965 25.6082 91.7955C23.8062 92.6965 22.1733 94.0268 20.7092 95.7864C19.8927 97.0112 19.4141 97.6235 19.2733 97.6235C18.8651 97.6235 18.661 97.5039 18.661 97.2646C18.661 97.1379 18.7454 96.9126 18.9144 96.5888C20.2799 94.1535 21.3146 92.3727 22.0184 91.2465C23.6936 88.5577 24.8761 87.1007 25.5659 86.8755C25.5941 86.8614 25.6222 86.8544 25.6504 86.8544C25.8334 86.8544 25.9601 87.0022 26.0305 87.2978C25.9882 87.5934 25.2562 88.6633 23.8344 90.5074C22.3563 92.3797 21.5187 93.6044 21.3216 94.1816C21.8425 93.8015 22.7504 93.161 24.0456 92.2601C25.4392 91.2887 26.3613 90.8031 26.8118 90.8031C27.2622 90.8031 27.4875 90.979 27.4875 91.331C27.4875 91.3873 27.4804 91.4295 27.4664 91.4576C27.4664 91.4717 26.9807 92.1334 26.0094 93.4426C25.038 94.7517 24.5523 95.716 24.5523 96.3355C24.5523 96.6592 24.672 96.8211 24.9113 96.8211C25.6715 96.793 26.8118 95.8779 28.3321 94.076C28.4588 93.9493 28.5503 93.886 28.6066 93.886C28.677 93.886 28.7122 93.9282 28.7122 94.0127C28.7122 94.2942 28.0154 95.0544 26.6217 96.2932C25.7489 97.0534 25.1577 97.4335 24.848 97.4335Z" fill="#222222"/>
<path d="M34.8143 91.2043L35.1099 91.1409C35.2647 91.1409 35.4125 91.2043 35.5533 91.331C35.6941 91.4576 35.7645 91.5562 35.7645 91.6266C35.7645 91.697 35.3281 92.3797 34.4553 93.6748C33.5825 94.9559 33.1461 95.8498 33.1461 96.3566C33.1461 96.3988 33.1531 96.441 33.1672 96.4833C33.2376 96.807 33.3924 96.9689 33.6318 96.9689C34.3638 96.9689 35.7011 95.7583 37.6438 93.337C37.686 93.2807 37.7353 93.2525 37.7916 93.2525C37.8479 93.2525 37.8761 93.3088 37.8761 93.4214C37.8761 93.52 37.8127 93.6537 37.686 93.8226C35.8841 96.2299 34.5116 97.4335 33.5684 97.4335C33.4417 97.4335 33.322 97.4124 33.2094 97.3701C32.59 97.1308 32.2803 96.6663 32.2803 95.9765C32.2803 95.7372 32.3085 95.4979 32.3648 95.2585L31.0556 96.5255C30.225 97.2575 29.6197 97.6235 29.2396 97.6235C28.8736 97.6235 28.5217 97.5039 28.1838 97.2646C27.8037 96.983 27.6137 96.61 27.6137 96.1454C27.6137 95.1178 28.3316 93.893 29.7675 92.4712C31.2034 91.0353 32.5196 90.3174 33.7162 90.3174C34.1808 90.3174 34.4905 90.4793 34.6453 90.8031C34.6876 90.9157 34.7227 91.0142 34.7509 91.0987C34.7791 91.1691 34.8002 91.2043 34.8143 91.2043ZM28.5006 96.3988C28.5006 96.9056 28.6765 97.159 29.0285 97.159C29.8449 97.159 30.9571 96.2651 32.3648 94.4772L34.6031 91.3943C34.4905 91.1972 34.3075 91.0987 34.0541 91.0987C33.1954 91.0987 32.0551 91.7673 30.6333 93.1047C29.2115 94.428 28.5006 95.526 28.5006 96.3988Z" fill="#222222"/>
<path d="M37.3083 96.4621C37.3083 96.8845 37.5405 97.0956 38.0051 97.0956C38.4696 97.0956 39.0679 96.8493 39.7999 96.3566C40.532 95.8639 41.2429 95.1952 41.9327 94.3505C42.1016 94.1253 42.2353 94.0127 42.3339 94.0127C42.4324 94.0127 42.4817 94.0549 42.4817 94.1394C42.4817 94.2238 42.1931 94.5899 41.6159 95.2374C40.2082 96.7859 39.0327 97.5602 38.0895 97.5602C37.625 97.5602 37.2308 97.4546 36.907 97.2434C36.5833 97.0182 36.4214 96.6804 36.4214 96.2299C36.4214 95.7653 36.541 95.2304 36.7803 94.6251C37.1886 93.6678 37.8432 92.4642 38.7441 91.0142C40.3912 88.3395 41.5596 87.0022 42.2494 87.0022C42.3902 87.0022 42.531 87.0585 42.6717 87.1711C42.8266 87.2696 42.911 87.3823 42.9251 87.5089C42.6013 87.9453 41.9749 88.7829 41.0458 90.0218C40.1308 91.2606 39.4973 92.1545 39.1453 92.7035C38.7934 93.2384 38.5259 93.6396 38.3429 93.9071C38.174 94.1746 38.0473 94.3857 37.9628 94.5406C37.8784 94.6814 37.7798 94.8714 37.6672 95.1107C37.4279 95.5894 37.3083 96.0398 37.3083 96.4621Z" fill="#222222"/>
<path d="M42.6963 97.7925C42.5415 97.7925 42.4007 97.7713 42.274 97.7291C41.373 97.4757 40.9226 96.9689 40.9226 96.2088C40.9226 95.2233 41.542 94.0831 42.7808 92.788C44.0196 91.4928 45.1317 90.8453 46.1171 90.8453C46.4409 90.8453 46.7013 90.9368 46.8984 91.1198C47.1096 91.2887 47.2151 91.4999 47.2151 91.7533C47.2151 92.5416 46.6169 93.2947 45.4203 94.0127C44.2378 94.7306 43.2735 95.0896 42.5274 95.0896C42.4148 95.0896 42.3162 95.0755 42.2318 95.0474C42.0206 95.4275 41.915 95.8287 41.915 96.251C41.915 96.983 42.2599 97.349 42.9497 97.349C43.6536 97.349 44.5616 96.8774 45.6737 95.9342C46.5324 95.2445 47.2644 94.5124 47.8697 93.7382C47.9964 93.5693 48.102 93.4848 48.1865 93.4848C48.285 93.4848 48.3343 93.527 48.3343 93.6115C48.3343 93.6959 48.278 93.8156 48.1654 93.9705C47.4052 94.9699 46.4902 95.8568 45.4203 96.6311C44.3504 97.4053 43.4424 97.7925 42.6963 97.7925ZM46.6872 91.711C46.6872 91.5421 46.5042 91.4576 46.1382 91.4576C45.7863 91.4576 45.2795 91.7322 44.6179 92.2812C43.731 93.0132 43.0412 93.7804 42.5485 94.5828C42.633 94.611 42.7245 94.6251 42.823 94.6251C43.3579 94.6251 44.0689 94.3435 44.9557 93.7804C45.8567 93.2032 46.4198 92.5768 46.645 91.9011C46.6732 91.8307 46.6872 91.7674 46.6872 91.711Z" fill="#222222"/>
<path d="M53.9899 91.1198C55.5666 88.5577 56.6646 87.2767 57.284 87.2767C57.3826 87.2767 57.5163 87.3119 57.6852 87.3823C57.8682 87.4386 57.9597 87.5301 57.9597 87.6568C57.9597 87.7271 57.9245 87.8187 57.8542 87.9313C56.728 89.3109 55.8904 90.3455 55.3414 91.0353C53.6802 93.1329 52.7652 94.6391 52.5963 95.5542C52.554 95.7512 52.5329 95.9483 52.5329 96.1454C52.5329 96.7789 52.7934 97.0956 53.3142 97.0956C54.3559 97.0956 55.7144 96.1313 57.3896 94.2027C57.5304 94.062 57.65 93.9845 57.7486 93.9705C57.8471 93.9423 57.8964 93.9634 57.8964 94.0338C57.8964 94.1042 57.8542 94.1887 57.7697 94.2872C56.1367 96.2439 54.6867 97.3349 53.4198 97.5602C53.3494 97.5743 53.2509 97.5813 53.1242 97.5813C52.6878 97.5813 52.3569 97.4335 52.1317 97.1379C51.9206 96.8282 51.815 96.4973 51.815 96.1454C51.815 95.7512 51.8924 95.3148 52.0472 94.8362L50.3368 96.5466C49.5626 97.2646 48.9502 97.6235 48.4998 97.6235C48.0634 97.6235 47.6973 97.5039 47.4017 97.2646C47.0498 96.9971 46.8738 96.624 46.8738 96.1454C46.8738 95.1178 47.5918 93.893 49.0277 92.4712C50.4635 91.0353 51.7798 90.3174 52.9764 90.3174C53.3705 90.3174 53.645 90.423 53.7999 90.6341C53.8562 90.7045 53.9195 90.8664 53.9899 91.1198ZM47.7607 96.3988C47.7607 96.9056 47.9367 97.159 48.2886 97.159C48.8939 97.159 49.9004 96.3284 51.3082 94.6673C51.5616 94.3717 52.4062 93.2666 53.8421 91.3521C53.7436 91.1831 53.5746 91.0987 53.3353 91.0987C52.4625 91.0987 51.3152 91.7673 49.8934 93.1047C48.4716 94.428 47.7607 95.526 47.7607 96.3988Z" fill="#222222"/>
<path d="M72.235 92.2178C73.6005 92.2601 74.3185 92.2812 74.3888 92.2812C74.4733 92.2812 74.5226 92.2812 74.5367 92.2812C74.8745 92.253 75.0434 92.3023 75.0434 92.429C75.0434 92.6261 74.7689 92.7246 74.2199 92.7246L72.425 92.6824C72.059 92.7105 71.8408 92.7457 71.7705 92.788C71.1792 93.52 70.3838 94.5828 69.3843 95.9765C68.3848 97.3561 67.8851 98.1796 67.8851 98.4471C67.8851 98.5597 68.0118 98.5315 68.2652 98.3626C68.42 98.3626 68.4975 98.3837 68.4975 98.4259C68.4975 98.4963 68.3426 98.6019 68.0329 98.7427L67.4417 99.0594C67.1742 99.2847 66.8645 99.3973 66.5126 99.3973C66.1747 99.3973 66.0199 99.3128 66.048 99.1439C66.0621 98.806 66.5618 97.9543 67.5472 96.5888C68.5327 95.2093 69.5533 93.9001 70.6091 92.6613C69.5955 92.8443 68.8213 92.9358 68.2863 92.9358C68.23 92.9217 68.2018 92.8795 68.2018 92.8091C68.2018 92.7246 68.2863 92.612 68.4552 92.4712C68.6242 92.3304 68.8001 92.2601 68.9831 92.2601C69.1802 92.2601 69.4899 92.253 69.9122 92.2389H70.9892C71.4678 91.5914 72.5306 90.0992 74.1777 87.7623C74.8534 86.791 75.1913 85.9886 75.1913 85.3551C75.1913 84.3697 74.4592 83.877 72.9952 83.877C71.8549 83.877 70.5105 84.1937 68.962 84.8272C67.4276 85.4607 66.0128 86.3264 64.7177 87.4245C63.8027 88.1847 63.0777 89.0082 62.5427 89.8951C62.0078 90.7819 61.7403 91.5703 61.7403 92.2601C61.7403 93.3722 62.402 93.9282 63.7252 93.9282C63.8379 93.9282 63.9575 93.9212 64.0842 93.9071C64.9429 93.8367 65.7524 93.3511 66.5126 92.4501C67.2868 91.5351 67.6739 90.7679 67.6739 90.1485C67.6739 90.0921 67.6669 90.0288 67.6528 89.9584C68.0188 90.0288 68.2018 90.247 68.2018 90.613C68.2018 91.2183 67.8077 91.9292 67.0193 92.7457C65.9495 93.8578 64.7107 94.4139 63.3029 94.4139C62.5287 94.4139 61.9233 94.2098 61.4869 93.8015C61.0505 93.3933 60.8323 92.8372 60.8323 92.1334C60.8323 90.4722 61.8459 88.797 63.8731 87.1077C65.3371 85.9112 66.8927 85.0102 68.5397 84.4049C70.1868 83.7855 71.6156 83.4758 72.8263 83.4758C74.051 83.4758 74.959 83.6518 75.5502 84.0037C76.1556 84.3556 76.4582 84.8483 76.4582 85.4818C76.4582 86.1012 76.1837 86.8051 75.6347 87.5934C75.3109 88.1143 74.1777 89.6557 72.235 92.2178Z" fill="#222222"/>
<path d="M81.4593 91.2043L81.7549 91.1409C81.9097 91.1409 82.0575 91.2043 82.1983 91.331C82.3391 91.4576 82.4095 91.5562 82.4095 91.6266C82.4095 91.697 81.9731 92.3797 81.1003 93.6748C80.2275 94.9559 79.7911 95.8498 79.7911 96.3566C79.7911 96.3988 79.7981 96.441 79.8122 96.4833C79.8826 96.807 80.0374 96.9689 80.2767 96.9689C81.0088 96.9689 82.3461 95.7583 84.2888 93.337C84.331 93.2807 84.3803 93.2525 84.4366 93.2525C84.4929 93.2525 84.5211 93.3088 84.5211 93.4214C84.5211 93.52 84.4577 93.6537 84.331 93.8226C82.5291 96.2299 81.1566 97.4335 80.2134 97.4335C80.0867 97.4335 79.967 97.4124 79.8544 97.3701C79.235 97.1308 78.9253 96.6663 78.9253 95.9765C78.9253 95.7372 78.9535 95.4979 79.0098 95.2585L77.7006 96.5255C76.87 97.2575 76.2647 97.6235 75.8846 97.6235C75.5186 97.6235 75.1667 97.5039 74.8288 97.2646C74.4487 96.983 74.2587 96.61 74.2587 96.1454C74.2587 95.1178 74.9766 93.893 76.4125 92.4712C77.8484 91.0353 79.1646 90.3174 80.3612 90.3174C80.8258 90.3174 81.1355 90.4793 81.2903 90.8031C81.3326 90.9157 81.3678 91.0142 81.3959 91.0987C81.4241 91.1691 81.4452 91.2043 81.4593 91.2043ZM75.1456 96.3988C75.1456 96.9056 75.3215 97.159 75.6735 97.159C76.4899 97.159 77.6021 96.2651 79.0098 94.4772L81.2481 91.3943C81.1355 91.1972 80.9525 91.0987 80.6991 91.0987C79.8404 91.0987 78.7001 91.7673 77.2783 93.1047C75.8565 94.428 75.1456 95.526 75.1456 96.3988Z" fill="#222222"/>
<path d="M91.6184 90.8875C91.6184 90.8031 91.6606 90.7608 91.7451 90.7608C91.9985 90.7608 92.1955 90.9157 92.3363 91.2254C92.5052 91.4928 92.5897 91.9574 92.5897 92.619C92.5897 93.6326 92.1463 94.6743 91.2594 95.7442C90.3725 96.8 89.4153 97.3279 88.3876 97.3279C87.8949 97.3279 87.4937 97.0886 87.184 96.61C86.8884 96.1313 86.7406 95.6386 86.7406 95.1318C86.7406 94.6251 86.8532 94.0057 87.0784 93.2736C86.6702 93.6819 86.0719 94.3857 85.2836 95.3852C84.4952 96.3706 83.9603 97.0956 83.6787 97.5602C83.538 97.5602 83.3479 97.4828 83.1086 97.3279C82.8552 97.1731 82.7285 97.0252 82.7285 96.8845C82.7285 96.5466 83.1579 95.4345 84.0166 93.5481C84.8753 91.6477 85.5158 90.6975 85.9382 90.6975C86.093 90.6975 86.2338 90.7749 86.3605 90.9297C86.4872 91.0705 86.5505 91.1831 86.5505 91.2676C86.5505 91.338 86.1634 92.063 85.3891 93.4426C84.629 94.8081 84.2559 95.6316 84.27 95.9131C85.6073 94.2942 86.3183 93.4355 86.4027 93.337C87.7682 91.7603 88.6621 90.972 89.0844 90.972C89.2393 90.972 89.3871 91.0424 89.5279 91.1831C89.6827 91.3098 89.7602 91.4295 89.7602 91.5421C89.7602 91.6407 89.5631 91.9504 89.1689 92.4712C88.7747 92.9921 88.4369 93.5059 88.1553 94.0127C87.8879 94.5054 87.7541 95.0051 87.7541 95.5119C87.7541 96.3988 88.0498 96.8422 88.641 96.8422H88.9155C89.6757 96.8422 90.3655 96.2651 90.9849 95.1107C91.6184 93.9423 91.9351 93.0062 91.9351 92.3023C91.9351 91.7392 91.8436 91.3028 91.6606 90.9931C91.6325 90.9649 91.6184 90.9297 91.6184 90.8875Z" fill="#222222"/>
<path d="M96.9442 97.7713C95.8321 97.7713 94.8889 96.8915 94.1147 95.1318C93.9176 95.4275 93.4742 96.258 92.7844 97.6235C92.2776 97.4264 92.0242 97.159 92.0242 96.8211C92.0242 96.2158 92.9322 94.5547 94.7482 91.8377C96.5641 89.1208 97.81 87.523 98.4857 87.0444C98.542 87.0022 98.6546 86.981 98.8236 86.981C99.26 86.981 99.4782 87.0937 99.4782 87.3189C99.4782 87.4315 98.9855 88.065 98 89.2193C97.0287 90.3737 96.4867 91.0705 96.3741 91.3098C97.6551 90.6482 98.6758 90.3174 99.4359 90.3174C99.8723 90.3174 100.245 90.4933 100.555 90.8453C100.851 91.1409 100.999 91.4436 100.999 91.7533C100.999 91.7955 100.999 91.8377 100.999 91.88C100.886 92.6824 100.323 93.344 99.3092 93.8649C98.4927 94.3013 97.7326 94.5195 97.0287 94.5195C96.3248 94.5195 95.8321 94.428 95.5506 94.245C95.4661 94.2309 95.3957 94.252 95.3394 94.3083C95.2972 94.3646 95.2901 94.435 95.3183 94.5195C95.7125 96.2651 96.3671 97.1379 97.2821 97.1379C97.7607 97.1379 98.3731 96.8704 99.1192 96.3355C99.8794 95.8005 100.668 95.0474 101.484 94.076C101.583 93.9775 101.667 93.9282 101.738 93.9282C101.822 93.9282 101.864 93.9705 101.864 94.0549C101.864 94.1253 101.815 94.2309 101.716 94.3717C100.956 95.3008 100.238 96.0328 99.5626 96.5677C98.535 97.3701 97.6622 97.7713 96.9442 97.7713ZM99.9849 91.3098C99.9849 91.1972 99.9216 91.0846 99.7949 90.972C99.6682 90.8594 99.5345 90.8031 99.3937 90.8031C98.6335 90.8031 97.7185 91.1198 96.6486 91.7533C95.5928 92.3868 94.9453 93.1047 94.7059 93.9071C94.8326 93.9071 95.1705 93.9282 95.7195 93.9705C96.353 93.9705 97.1835 93.71 98.2112 93.1892C99.3937 92.5979 99.9849 91.9715 99.9849 91.3098Z" fill="#222222"/>
<path d="M102.003 97.7925C101.848 97.7925 101.707 97.7713 101.58 97.7291C100.679 97.4757 100.229 96.9689 100.229 96.2088C100.229 95.2233 100.848 94.0831 102.087 92.788C103.326 91.4928 104.438 90.8453 105.423 90.8453C105.747 90.8453 106.008 90.9368 106.205 91.1198C106.416 91.2887 106.522 91.4999 106.522 91.7533C106.522 92.5416 105.923 93.2947 104.727 94.0127C103.544 94.7306 102.58 95.0896 101.834 95.0896C101.721 95.0896 101.623 95.0755 101.538 95.0474C101.327 95.4275 101.221 95.8287 101.221 96.251C101.221 96.983 101.566 97.349 102.256 97.349C102.96 97.349 103.868 96.8774 104.98 95.9342C105.839 95.2445 106.571 94.5124 107.176 93.7382C107.303 93.5693 107.408 93.4848 107.493 93.4848C107.591 93.4848 107.641 93.527 107.641 93.6115C107.641 93.6959 107.584 93.8156 107.472 93.9705C106.712 94.9699 105.797 95.8568 104.727 96.6311C103.657 97.4053 102.749 97.7925 102.003 97.7925ZM105.994 91.711C105.994 91.5421 105.811 91.4576 105.445 91.4576C105.093 91.4576 104.586 91.7322 103.924 92.2812C103.037 93.0132 102.348 93.7804 101.855 94.5828C101.939 94.611 102.031 94.6251 102.129 94.6251C102.664 94.6251 103.375 94.3435 104.262 93.7804C105.163 93.2032 105.726 92.5768 105.951 91.9011C105.98 91.8307 105.994 91.7674 105.994 91.711Z" fill="#222222"/>
<path d="M110.234 97.2012C109.826 97.4405 109.319 97.5602 108.714 97.5602C108.123 97.5602 107.665 97.3631 107.342 96.9689C107.032 96.5748 106.764 95.9483 106.539 95.0896C106.286 95.343 106.11 95.4697 106.011 95.4697C105.941 95.4697 105.906 95.4204 105.906 95.3219C105.906 95.2233 105.941 95.1389 106.011 95.0685C106.476 94.4913 107.264 93.6608 108.376 92.5768L111.037 90.0851C111.797 89.3672 112.248 89.0082 112.388 89.0082C112.839 89.0082 113.064 89.1771 113.064 89.515C113.064 89.6839 112.994 89.8528 112.853 90.0218C112.726 90.1766 112.628 90.3033 112.557 90.4018C112.501 90.4863 112.438 90.5708 112.367 90.6552C112.114 91.0916 111.853 91.9926 111.586 93.3581C111.333 94.7236 111.135 95.6738 110.995 96.2088C112.163 96.1947 113.367 95.4345 114.605 93.9282C114.746 93.7875 114.852 93.7171 114.922 93.7171C114.993 93.7171 115.028 93.7663 115.028 93.8649C115.028 93.9493 114.964 94.069 114.838 94.2238C114.021 95.1811 113.261 95.8498 112.557 96.2299C112.135 96.441 111.586 96.617 110.91 96.7578L110.234 97.2012ZM107.384 94.8573C107.384 95.336 107.539 95.7301 107.848 96.0398C108.172 96.3355 108.531 96.4833 108.925 96.4833C109.319 96.4833 109.622 96.4058 109.833 96.251C110.115 96.0961 110.389 95.4486 110.657 94.3083C110.938 93.168 111.107 92.1615 111.164 91.2887L111.248 90.5708C110.474 91.1479 109.643 91.894 108.756 92.8091C107.884 93.7241 107.433 94.3294 107.405 94.6251C107.391 94.7095 107.384 94.7869 107.384 94.8573Z" fill="#222222"/>
<path d="M7.97222 25.37L5.19897 22.4829L6.14494 21.5785C6.45893 21.2783 6.75698 21.1176 7.03908 21.0964C7.32251 21.0739 7.58612 21.1896 7.82992 21.4434C7.95944 21.5782 8.03594 21.7346 8.05941 21.9125C8.08161 22.0891 8.05377 22.2691 7.97588 22.4526C8.17412 22.3468 8.37733 22.3123 8.58551 22.3491C8.79375 22.3833 8.97914 22.485 9.14167 22.6542C9.39055 22.9133 9.50197 23.1973 9.47593 23.5062C9.44989 23.8152 9.28318 24.1166 8.97581 24.4104L7.97222 25.37ZM7.05668 23.6548L8.05474 24.6939L8.68472 24.0915C8.86225 23.9218 8.95822 23.7425 8.97262 23.5538C8.98707 23.3625 8.91684 23.1862 8.76193 23.0249C8.42797 22.6772 8.07154 22.6845 7.69262 23.0468L7.05668 23.6548ZM6.76336 23.3495L7.33968 22.7984C7.50661 22.6388 7.59976 22.4699 7.61913 22.2916C7.63982 22.1121 7.5816 21.9509 7.44446 21.8081C7.29209 21.6495 7.13525 21.5788 6.97393 21.5961C6.81135 21.6121 6.63534 21.7106 6.44588 21.8918L5.88148 22.4314L6.76336 23.3495Z" fill="#222222"/>
<path d="M14.1801 17.4022C14.4216 17.7114 14.5805 18.022 14.6568 18.3341C14.732 18.6448 14.7215 18.9351 14.6253 19.2049C14.5291 19.4748 14.3536 19.7087 14.0989 19.9067C13.85 20.1002 13.582 20.2112 13.2947 20.2395C13.0064 20.2663 12.7206 20.2087 12.4375 20.0666C12.1547 19.9219 11.8957 19.702 11.6603 19.4066L11.4826 19.1791C11.2456 18.8758 11.0891 18.5668 11.0131 18.2521C10.9371 17.9374 10.9473 17.6438 11.0439 17.3714C11.1407 17.0964 11.3136 16.8621 11.5625 16.6686C11.8158 16.4717 12.0866 16.3598 12.3749 16.333C12.6636 16.3036 12.9509 16.3646 13.2368 16.5162C13.5215 16.6663 13.784 16.8952 14.0244 17.2029L14.1801 17.4022ZM13.6064 17.5209C13.3141 17.1468 13.0149 16.9185 12.7087 16.8362C12.4014 16.7524 12.1124 16.8157 11.8418 17.0261C11.5784 17.2309 11.4492 17.4927 11.4541 17.8117C11.4593 18.128 11.5986 18.4656 11.8718 18.8243L12.0529 19.0561C12.3361 19.4187 12.6349 19.6449 12.9494 19.7348C13.2641 19.8221 13.5553 19.7617 13.823 19.5535C14.0922 19.3443 14.2244 19.0848 14.2197 18.775C14.2138 18.4638 14.0703 18.1237 13.7892 17.7549L13.6064 17.5209Z" fill="#222222"/>
<path d="M19.0369 11.4268L20.4795 13.735C20.6781 14.0562 20.7406 14.3811 20.6671 14.7096C20.5951 15.0371 20.3957 15.3199 20.0688 15.5577L19.9527 15.6365C19.5807 15.8679 19.2215 15.952 18.8752 15.889C18.5289 15.826 18.2444 15.6198 18.0217 15.2704L16.5762 12.9575L17.0198 12.6816L18.4566 14.9805C18.61 15.2261 18.7972 15.3752 19.0181 15.4277C19.2381 15.4787 19.4733 15.4263 19.7239 15.2704C19.9776 15.1126 20.1291 14.9244 20.1784 14.7059C20.2293 14.4865 20.178 14.2539 20.0245 14.0083L18.5863 11.7071L19.0369 11.4268Z" fill="#222222"/>
<path d="M26.7438 9.62617C26.9144 9.97327 27.0063 10.2997 27.0197 10.6053C27.0323 10.9093 26.9737 11.1808 26.844 11.4197L27.7336 11.609L27.5568 12.0658L26.5026 11.8347C26.3986 11.9223 26.2808 11.9983 26.1491 12.0627C25.8659 12.2013 25.5808 12.255 25.2939 12.2239C25.0062 12.1912 24.7383 12.0764 24.4904 11.8794C24.2432 11.6799 24.0348 11.4115 23.8649 11.0742L23.7376 10.8151C23.5678 10.4697 23.4779 10.1351 23.4679 9.81148C23.458 9.48783 23.5281 9.20253 23.6784 8.95557C23.8295 8.70616 24.0466 8.51219 24.3298 8.37365C24.6196 8.23189 24.9084 8.17736 25.1961 8.21007C25.4855 8.24196 25.7541 8.36052 26.002 8.56573C26.2491 8.7693 26.4588 9.04629 26.631 9.39668L26.7438 9.62617ZM26.1556 9.62619C25.9478 9.20341 25.7029 8.91917 25.4209 8.77347C25.1398 8.62532 24.8428 8.62777 24.5299 8.7808C24.2319 8.92659 24.0527 9.1561 23.9922 9.46934C23.9325 9.78012 23.9996 10.1391 24.1936 10.5462L24.3233 10.8102C24.5255 11.2215 24.7704 11.5036 25.058 11.6568C25.3473 11.8091 25.6451 11.8103 25.9514 11.6605C26.2576 11.5107 26.4402 11.2837 26.499 10.9794C26.557 10.6735 26.4861 10.3113 26.2865 9.89268L26.1556 9.62619Z" fill="#222222"/>
<path d="M32.7468 4.77447L33.6887 7.32832C33.8176 7.68323 33.8126 8.01407 33.6737 8.32083C33.5366 8.62697 33.2838 8.86328 32.9154 9.02975L32.7856 9.08323C32.3744 9.23419 32.0057 9.24359 31.6795 9.11143C31.3533 8.97927 31.1169 8.71949 30.9701 8.33209L30.0264 5.77307L30.5168 5.59306L31.4548 8.13659C31.555 8.40832 31.7079 8.59237 31.9134 8.68876C32.1183 8.78343 32.3592 8.77992 32.6363 8.67823C32.9167 8.57527 33.1034 8.42182 33.1962 8.21788C33.2907 8.01331 33.2879 7.77517 33.1877 7.50344L32.2487 4.95733L32.7468 4.77447Z" fill="#222222"/>
<path d="M39.7878 4.79984L38.1118 5.24804L38.4799 6.61818L40.4269 6.09753L40.5389 6.51442L38.0819 7.17144L37.0432 3.3053L39.4736 2.65538L39.5863 3.07492L37.6659 3.58846L37.9998 4.83115L39.6758 4.38295L39.7878 4.79984Z" fill="#222222"/>
<path d="M46.0589 1.74996L44.7932 1.98189L45.4394 5.49173L44.9229 5.58639L44.2767 2.07654L43.0137 2.30798L42.9351 1.88074L45.9803 1.32272L46.0589 1.74996Z" fill="#222222"/>
<path d="M50.0234 2.99454C49.5597 2.91112 49.2152 2.78603 48.9899 2.61929C48.7661 2.45053 48.6401 2.22757 48.6116 1.95041C48.5794 1.63679 48.6777 1.3651 48.9066 1.13534C49.137 0.903575 49.4529 0.767189 49.854 0.726182C50.1276 0.698223 50.3764 0.726217 50.6006 0.810166C50.8267 0.893929 51.0076 1.02284 51.1434 1.1969C51.281 1.37077 51.3612 1.56802 51.3838 1.78865L50.8559 1.84261C50.8312 1.60192 50.7352 1.42103 50.568 1.29993C50.4006 1.17701 50.1774 1.12981 49.8984 1.15833C49.6395 1.1848 49.443 1.26292 49.3089 1.39271C49.1764 1.52048 49.1206 1.68557 49.1414 1.88797C49.1581 2.05025 49.2406 2.18093 49.3889 2.28C49.539 2.37706 49.7838 2.45522 50.1234 2.51447C50.4648 2.57354 50.7343 2.6501 50.9319 2.74414C51.1312 2.83617 51.2831 2.95237 51.3878 3.09276C51.4944 3.23296 51.558 3.40425 51.5788 3.60665C51.612 3.92939 51.5127 4.20118 51.2811 4.422C51.0493 4.64101 50.7228 4.77204 50.3016 4.81509C50.0281 4.84305 49.7674 4.81718 49.5197 4.73748C49.2718 4.65595 49.0737 4.53064 48.9256 4.36153C48.7792 4.19224 48.6941 3.99181 48.6703 3.76024L49.1982 3.70627C49.2229 3.94696 49.3309 4.12847 49.5222 4.25079C49.7152 4.3711 49.9603 4.41607 50.2575 4.38568C50.5347 4.35735 50.7413 4.27911 50.8774 4.15096C51.0135 4.02281 51.0715 3.86119 51.0515 3.66608C51.0314 3.47098 50.9476 3.32754 50.8 3.23576C50.6522 3.14216 50.3933 3.06175 50.0234 2.99454Z" fill="#222222"/>
<path d="M57.2564 3.22453C57.2602 3.03211 57.3169 2.85632 57.4264 2.69717C57.5378 2.53806 57.7468 2.35431 58.0535 2.14593C57.8801 1.92613 57.7644 1.74966 57.7066 1.6165C57.6488 1.48334 57.6212 1.35171 57.6238 1.22159C57.6299 0.917377 57.7245 0.680928 57.9075 0.512246C58.0906 0.343563 58.336 0.262293 58.6439 0.268436C58.9188 0.273921 59.1444 0.359091 59.3208 0.523945C59.4972 0.686967 59.5829 0.890347 59.5781 1.13409C59.5748 1.29536 59.5306 1.44389 59.4454 1.57969C59.362 1.7137 59.2171 1.85381 59.0107 2.00002L58.7122 2.21132L59.5815 3.29293C59.7109 3.05718 59.7785 2.7936 59.7844 2.50222L60.2435 2.51138C60.2341 2.9787 60.1136 3.36405 59.882 3.66743L60.4401 4.36332L59.8298 4.35115L59.5695 4.0297C59.4315 4.14795 59.2702 4.23731 59.0856 4.2978C58.903 4.35649 58.7172 4.38395 58.5285 4.38018C58.1381 4.37239 57.8268 4.2626 57.5946 4.05079C57.3623 3.83899 57.2496 3.56357 57.2564 3.22453ZM58.5368 3.96509C58.8062 3.97047 59.0547 3.87276 59.2824 3.67197L58.33 2.4842L58.2379 2.54836C57.9274 2.76767 57.7697 2.99644 57.7649 3.23468C57.7606 3.45093 57.8268 3.6255 57.9634 3.7584C58.1019 3.89133 58.2931 3.96023 58.5368 3.96509ZM58.1327 1.21525C58.1291 1.39118 58.2329 1.61325 58.4438 1.88146L58.7728 1.65977C58.8991 1.57429 58.986 1.49261 59.0334 1.41472C59.0809 1.335 59.1057 1.23833 59.108 1.12471C59.1105 1.00192 59.0667 0.899296 58.9767 0.816832C58.8867 0.732536 58.7721 0.688998 58.6328 0.686219C58.4825 0.68322 58.3623 0.732157 58.2723 0.833029C58.1823 0.932068 58.1358 1.05947 58.1327 1.21525Z" fill="#222222"/>
<path d="M67.2864 3.603L67.2738 4.13628L67.4647 3.68616L68.7139 1.0644L69.153 1.13874L69.4464 4.02162L69.4737 4.51704L69.6481 3.99999L70.7199 1.40398L71.2431 1.49255L69.615 5.27714L69.1406 5.19683L68.8164 2.18325L68.8052 1.87183L68.6917 2.16214L67.3595 4.89533L66.8851 4.81502L66.6021 0.706909L67.1225 0.795019L67.2864 3.603Z" fill="#222222"/>
<path d="M77.2163 5.27847L76.3126 5.01858L75.8631 6.57438L75.3531 6.42772L76.4644 2.58179L77.738 2.94806C78.1713 3.07269 78.4758 3.26705 78.6513 3.53115C78.8286 3.79576 78.8628 4.11648 78.754 4.49333C78.6848 4.73282 78.5593 4.92275 78.3776 5.06311C78.1976 5.20399 77.9795 5.28527 77.7233 5.30695L78.1553 7.19925L78.1461 7.23095L77.6018 7.0744L77.2163 5.27847ZM76.4325 4.60387L77.212 4.82804C77.4639 4.90049 77.6826 4.89283 77.8683 4.80508C78.0557 4.71783 78.1809 4.56502 78.244 4.34666C78.3127 4.10893 78.294 3.90616 78.1879 3.73833C78.0836 3.57102 77.8979 3.44798 77.6306 3.36921L76.8538 3.1458L76.4325 4.60387Z" fill="#222222"/>
<path d="M84.2755 7.39259L82.6571 6.76756L82.1439 8.09022L84.0239 8.81628L83.8678 9.21872L81.4953 8.30248L82.9434 4.57031L85.2902 5.47665L85.1331 5.88165L83.2787 5.1655L82.8132 6.36512L84.4316 6.99015L84.2755 7.39259Z" fill="#222222"/>
<path d="M89.6013 10.5778L88.0939 9.84251L87.2956 10.6156L86.8063 10.3769L89.9419 7.45227L90.357 7.65476L89.9719 11.921L89.4851 11.6835L89.6013 10.5778ZM88.4284 9.52232L89.6516 10.119L89.8627 8.13866L88.4284 9.52232Z" fill="#222222"/>
<path d="M96.7686 11.6704L95.6633 11.0117L93.83 14.0737L93.3789 13.8049L95.2121 10.7429L94.1091 10.0856L94.3323 9.71289L96.9918 11.2977L96.7686 11.6704Z" fill="#222222"/>
<path d="M99.5192 17.8114L99.0899 17.4995L100.181 16.005L98.5485 14.8186L97.4574 16.3131L97.0303 16.0028L99.3909 12.7695L99.8179 13.0799L98.803 14.47L100.436 15.6564L101.45 14.2663L101.88 14.5782L99.5192 17.8114Z" fill="#222222"/>
<path d="M104.842 19.748C104.586 19.3527 104.442 19.0161 104.41 18.738C104.381 18.4597 104.458 18.2157 104.642 18.006C104.849 17.7687 105.115 17.6552 105.44 17.6656C105.767 17.6758 106.083 17.8132 106.387 18.078C106.594 18.2586 106.744 18.4593 106.835 18.6801C106.929 18.9022 106.958 19.1221 106.923 19.3398C106.89 19.5588 106.8 19.7517 106.654 19.9187L106.254 19.5702C106.413 19.3881 106.48 19.1948 106.455 18.9902C106.43 18.7842 106.312 18.5892 106.101 18.405C105.904 18.2341 105.713 18.144 105.526 18.1346C105.342 18.1251 105.183 18.1969 105.049 18.35C104.942 18.4728 104.903 18.6221 104.932 18.7979C104.963 18.9735 105.073 19.2055 105.262 19.4937C105.452 19.7831 105.58 20.032 105.646 20.2403C105.715 20.4484 105.734 20.6385 105.702 20.8106C105.673 20.9839 105.591 21.1472 105.457 21.3003C105.243 21.5445 104.976 21.6574 104.657 21.6389C104.338 21.619 104.019 21.4701 103.699 21.1921C103.492 21.0115 103.333 20.8037 103.222 20.5686C103.112 20.3321 103.069 20.1021 103.091 19.8787C103.115 19.6565 103.204 19.4578 103.357 19.2826L103.757 19.631C103.598 19.8131 103.539 20.0157 103.58 20.2387C103.624 20.4615 103.758 20.671 103.984 20.8672C104.194 21.0501 104.392 21.1476 104.579 21.1595C104.766 21.1715 104.924 21.1036 105.053 20.956C105.182 20.8084 105.23 20.6494 105.196 20.4791C105.164 20.3075 105.046 20.0637 104.842 19.748Z" fill="#222222"/>
<path d="M56.2824 57.048C56.2242 57.0487 56.1665 57.0375 56.1127 57.0153C56.0589 56.9931 56.0102 56.9603 55.9694 56.9188C40.4176 42.4477 55.7428 20.0087 55.9047 19.7826C55.949 19.7246 56.0061 19.6775 56.0717 19.6452C56.1372 19.6128 56.2093 19.5959 56.2824 19.5959C56.3555 19.5959 56.4277 19.6128 56.4932 19.6452C56.5587 19.6775 56.6158 19.7246 56.6602 19.7826C56.822 20.0087 72.1365 42.4477 56.5954 56.9188C56.5117 57.0006 56.3996 57.0469 56.2824 57.048ZM56.2824 20.8916C54.0484 24.4448 43.1912 43.2983 56.2824 55.9498C69.3736 43.2983 58.5164 24.4448 56.2824 20.8916Z" fill="#D05278"/>
<path d="M56.2824 72.1329C56.2022 72.1333 56.1236 72.1109 56.0558 72.0683C53.2696 70.4627 50.9419 68.172 49.2945 65.4145C47.6471 62.6571 46.7349 59.5247 46.6448 56.3158C46.6446 56.2392 46.6671 56.1643 46.7095 56.1005C47.0561 55.3234 47.5923 54.6453 48.2691 54.1281C48.9459 53.6109 49.7417 53.271 50.584 53.1395C53.0663 52.9134 55.4082 55.013 56.2824 55.9067C57.1458 55.013 59.5201 52.9134 61.9808 53.1395C62.8192 53.2743 63.6107 53.6158 64.2834 54.1328C64.9562 54.6498 65.489 55.3261 65.8337 56.1005C65.8712 56.1665 65.8933 56.2401 65.8985 56.3158C65.8084 59.5247 64.8961 62.6571 63.2488 65.4145C61.6014 68.172 59.2737 70.4627 56.4875 72.0683C56.4259 72.1072 56.3552 72.1294 56.2824 72.1329ZM47.5729 56.4558C47.6811 59.433 48.5348 62.3357 50.0561 64.8992C51.5774 67.4627 53.718 69.6053 56.2824 71.1315C58.8468 69.6053 60.9874 67.4627 62.5087 64.8992C64.03 62.3357 64.8837 59.433 64.9919 56.4558C64.7115 55.8346 64.2824 55.2917 63.7423 54.8749C63.2021 54.4581 62.5676 54.1801 61.8945 54.0655C59.2935 53.8178 56.6601 56.8542 56.6386 56.8865C56.5931 56.9354 56.538 56.9744 56.4767 57.0011C56.4154 57.0278 56.3493 57.0416 56.2824 57.0416C56.2155 57.0416 56.1494 57.0278 56.0881 57.0011C56.0268 56.9744 55.9717 56.9354 55.9263 56.8865C55.9263 56.8865 53.2713 53.8178 50.7243 54.0655C50.0415 54.1718 49.396 54.446 48.8458 54.8633C48.2957 55.2806 47.8583 55.8278 47.5729 56.4558Z" fill="#D05278"/>
<path d="M49.548 43.6643C49.4508 43.665 49.3557 43.6353 49.2764 43.5793C49.197 43.5232 49.1372 43.4437 49.1055 43.352C47.5579 39.8326 44.9616 36.874 41.6696 34.8782C41.6159 34.8467 41.5691 34.8047 41.532 34.7547C41.4949 34.7048 41.4683 34.6479 41.4537 34.5875C40.8211 31.4786 41.4373 28.2462 43.1697 25.586C43.2161 25.5289 43.2734 25.4814 43.3382 25.4463C43.403 25.4112 43.4741 25.3891 43.5474 25.3815C43.8065 25.3815 49.8178 25.4461 51.8684 29.6238C51.873 29.6667 51.873 29.71 51.8684 29.753C51.8844 29.8311 51.8844 29.9117 51.8684 29.9899C50.2798 34.1882 49.6387 38.6844 49.9905 43.1582C49.9935 43.2616 49.9608 43.3629 49.898 43.4452C49.8351 43.5275 49.7459 43.5858 49.6452 43.6104L49.548 43.6643ZM42.3171 34.1891C45.0687 35.8716 47.3543 38.2148 48.9652 41.0047C48.9774 37.207 49.6493 33.4402 50.951 29.8714C49.2998 26.792 44.8965 26.3721 43.7957 26.3182C42.3624 28.6762 41.837 31.4734 42.3171 34.1891Z" fill="#D05278"/>
<path d="M33.1005 72.3482C31.7197 72.3521 30.3398 72.2802 28.967 72.1329C28.8715 72.1184 28.7825 72.0759 28.7113 72.0106C28.6402 71.9454 28.5902 71.8605 28.5677 71.7668C28.5469 71.6748 28.5556 71.5786 28.5923 71.4918C28.6291 71.4049 28.6922 71.3316 28.7727 71.2823C28.7727 71.2823 32.9818 68.5905 35.1618 61.7856C37.6225 54.0978 40.6984 50.6845 45.447 50.3723C50.4115 50.06 52.311 53.3548 52.3973 53.4948C52.4393 53.5735 52.4576 53.6627 52.45 53.7515C52.4424 53.8403 52.4093 53.9251 52.3545 53.9956C52.2998 54.0661 52.2259 54.1193 52.1416 54.1489C52.0573 54.1785 51.9662 54.1832 51.8793 54.1624C50.1309 53.7424 48.7171 54.4854 47.5623 56.4558C47.6729 59.2965 48.4452 62.0724 49.818 64.5635C49.855 64.668 49.855 64.782 49.818 64.8865C47.0983 71.3254 38.3672 72.3482 33.1005 72.3482ZM30.2513 71.2715C34.0071 71.5299 45.6845 71.7237 48.9114 64.8112C47.4885 62.1999 46.7115 59.2873 46.645 56.3158C46.6448 56.2392 46.6673 56.1643 46.7097 56.1005C48.0156 53.7963 49.5913 53.1395 50.9404 53.1287C50.2289 52.4498 49.3773 51.9342 48.4452 51.618C47.5131 51.3018 46.523 51.1927 45.5442 51.2983C41.2272 51.5782 38.3996 54.7976 36.0792 62.0655C35.0221 65.6306 32.9933 68.8326 30.2189 71.3146L30.2513 71.2715Z" fill="#D05278"/>
<path d="M48.2315 55.2715C48.1716 55.2724 48.1122 55.2614 48.0566 55.2392C48.001 55.217 47.9504 55.1841 47.9077 55.1423C47.8614 55.1002 47.8249 55.0485 47.8007 54.9908C47.7765 54.9332 47.7651 54.871 47.7674 54.8085C47.77 54.6888 47.816 54.574 47.8969 54.4855L47.9724 54.4209C48.0627 54.3353 48.1825 54.2876 48.307 54.2876C48.4315 54.2876 48.5513 54.3353 48.6416 54.4209C48.7256 54.5084 48.7754 54.623 48.7819 54.7439C48.7832 54.8031 48.7713 54.8618 48.747 54.9158C48.7228 54.9699 48.6867 55.0178 48.6416 55.0562L48.2854 54.7547L48.5552 55.1423C48.5125 55.1841 48.4619 55.217 48.4063 55.2392C48.3507 55.2614 48.2913 55.2724 48.2315 55.2715Z" fill="#D05278"/>
<path d="M55.5271 56.2835C55.4104 56.2802 55.299 56.2343 55.2142 56.1543C54.277 55.2353 53.1338 54.5524 51.8793 54.1623C51.818 54.1497 51.7602 54.1238 51.7098 54.0867C51.6595 54.0495 51.6179 54.0018 51.5879 53.947C51.5124 53.8178 49.8827 51.0183 45.5118 51.2982C44.0072 51.3785 42.5624 51.9116 41.3675 52.8272C41.2762 52.8951 41.163 52.9271 41.0496 52.9172C40.9362 52.9072 40.8304 52.8561 40.7523 52.7733C38.3014 50.1332 36.6772 46.8361 36.0792 43.2874C34.6006 35.1904 30.683 32.9401 30.5966 32.9185C30.5121 32.8723 30.4446 32.8004 30.4039 32.7133C30.3631 32.6262 30.3512 32.5283 30.37 32.434C30.3885 32.3392 30.4356 32.2522 30.5051 32.1849C30.5745 32.1175 30.663 32.073 30.7585 32.0572C44.8534 30.1298 49.9367 42.9106 49.9798 43.0398V43.1582C50.4522 47.8133 52.5314 52.16 55.8617 55.4544C55.9461 55.5408 55.9933 55.6567 55.9933 55.7774C55.9933 55.8981 55.9461 56.014 55.8617 56.1004C55.8237 56.1545 55.7738 56.1991 55.7158 56.2308C55.6578 56.2626 55.5932 56.2806 55.5271 56.2835ZM52.2894 53.3117C52.5391 53.3871 52.7841 53.477 53.0233 53.5809C50.8184 50.5681 49.462 47.0214 49.0949 43.3089C48.7171 42.3614 44.2491 31.8526 32.0428 32.8432C33.4243 34.0706 35.8741 37.0209 36.9858 43.1151C37.533 46.3538 38.9716 49.377 41.1408 51.8474C42.4155 50.967 43.9098 50.4564 45.4578 50.3723C46.7546 50.2114 48.0709 50.398 49.2715 50.9127C50.4722 51.4274 51.5138 52.2517 52.2894 53.3009V53.3117Z" fill="#D05278"/>
<path d="M48.0153 55.7774L47.2383 55.2821L47.3462 55.1314C47.4194 55.0331 47.5286 54.9677 47.6499 54.9496C47.7713 54.9314 47.8949 54.962 47.9938 55.0345C48.0501 55.0801 48.0957 55.1375 48.1274 55.2026C48.1591 55.2677 48.1761 55.339 48.1772 55.4113C48.1766 55.5077 48.1464 55.6017 48.0909 55.6805L48.0153 55.7774Z" fill="#D05278"/>
<path d="M49.1595 54.6253L49.0947 54.5607L48.8249 54.2807L48.5659 53.9254C48.6656 53.8493 48.7909 53.8146 48.9157 53.8286C49.0405 53.8427 49.1549 53.9044 49.235 54.0008C49.2731 54.046 49.3014 54.0984 49.3182 54.1549C49.3351 54.2115 49.3401 54.2708 49.3331 54.3294C49.326 54.3879 49.3069 54.4444 49.2771 54.4953C49.2472 54.5462 49.2072 54.5905 49.1595 54.6253Z" fill="#D05278"/>
<path d="M49.44 54.3778C49.3787 54.3793 49.3177 54.3683 49.2607 54.3455C49.2037 54.3228 49.152 54.2888 49.1086 54.2455C49.0652 54.2022 49.0311 54.1505 49.0083 54.0937C48.9855 54.0369 48.9745 53.976 48.976 53.9148C48.9763 53.8278 49.0007 53.7426 49.0464 53.6686C49.0921 53.5945 49.1573 53.5344 49.235 53.4949L49.3537 53.441C49.467 53.3934 49.5945 53.3914 49.7092 53.4356C49.824 53.4798 49.917 53.5666 49.9689 53.6779C49.9777 53.7386 49.9777 53.8003 49.9689 53.861C49.9673 53.9518 49.9401 54.0403 49.8905 54.1165C49.8409 54.1926 49.7708 54.2533 49.6883 54.2916L49.6451 54.3778C49.5778 54.3947 49.5073 54.3947 49.44 54.3778Z" fill="#D05278"/>
<path d="M50.1415 54.1515C50.0341 54.153 49.9292 54.1189 49.8433 54.0547C49.7574 53.9904 49.6952 53.8995 49.6666 53.7962C49.6613 53.7569 49.6613 53.7171 49.6666 53.6778C49.666 53.579 49.6987 53.4829 49.7593 53.4048C49.82 53.3267 49.9051 53.2712 50.0012 53.2471L50.1738 53.6778L50.2818 54.13H50.1523L50.1415 54.1515Z" fill="#D05278"/>
<path d="M63.0276 43.6644H62.9197C62.8103 43.6388 62.7139 43.5745 62.6484 43.4834C62.5829 43.3923 62.5527 43.2806 62.5635 43.1691C62.9154 38.6953 62.2742 34.1991 60.6856 30.0007C60.6644 29.9268 60.6644 29.8485 60.6856 29.7746C60.681 29.7281 60.681 29.6812 60.6856 29.6346C62.7362 25.4569 68.7476 25.3923 68.9958 25.3923C69.0723 25.3927 69.1476 25.4115 69.2152 25.4471C69.2829 25.4827 69.3409 25.5341 69.3843 25.5969C71.1167 28.257 71.7329 31.4894 71.1003 34.5983C71.0839 34.6594 71.0554 34.7166 71.0165 34.7666C70.9776 34.8165 70.929 34.8581 70.8737 34.889C67.58 36.8877 64.9835 39.8503 63.4377 43.3736C63.4035 43.4556 63.3469 43.5262 63.2744 43.5776C63.2019 43.629 63.1164 43.6591 63.0276 43.6644ZM61.6246 29.8715C62.9213 33.4416 63.5931 37.2076 63.6104 41.0048C65.2154 38.2104 67.5022 35.8659 70.2585 34.1892C70.7335 31.4722 70.2043 28.6756 68.7692 26.3183C67.6791 26.3829 63.2758 26.7921 61.6246 29.8715Z" fill="#D05278"/>
<path d="M79.4217 72.3483C74.155 72.3483 65.4779 71.3361 62.7259 64.9835C62.6882 64.846 62.6882 64.701 62.7259 64.5635C64.1091 62.076 64.8855 59.2985 64.9923 56.4558C63.8375 54.4854 62.4345 53.7425 60.6753 54.1624C60.589 54.1837 60.4983 54.1798 60.4141 54.1512C60.3299 54.1225 60.2557 54.0704 60.2004 54.0009C60.1512 53.9256 60.125 53.8377 60.125 53.7478C60.125 53.658 60.1512 53.5701 60.2004 53.4948C60.276 53.3548 62.1647 50.0493 67.14 50.3723C71.8994 50.6846 74.9753 54.0978 77.4359 61.7856C79.5944 68.6228 83.7711 71.25 83.8143 71.2823C83.8968 71.3301 83.9621 71.4027 84.0008 71.4897C84.0396 71.5767 84.0498 71.6737 84.0301 71.7668C84.0076 71.8605 83.9576 71.9454 83.8864 72.0107C83.8153 72.0759 83.7263 72.1184 83.6308 72.1329C82.2327 72.2812 80.8276 72.3531 79.4217 72.3483ZM63.6756 64.8112C66.8486 71.7776 78.5691 71.573 82.3465 71.2715C79.5958 68.7814 77.5899 65.5801 76.551 62.0225C74.2306 54.7546 71.3922 51.5352 67.086 51.2552C66.1069 51.1451 65.1156 51.2521 64.1828 51.5686C63.25 51.885 62.3987 52.403 61.6898 53.0857C63.0388 53.0857 64.6145 53.7532 65.9204 56.0574C65.9579 56.1234 65.98 56.197 65.9852 56.2728C65.9148 59.2628 65.1225 62.1918 63.6756 64.8112Z" fill="#D05278"/>
<path d="M57.0379 56.2835C56.977 56.285 56.9165 56.2732 56.8606 56.249C56.8047 56.2249 56.7548 56.1889 56.7142 56.1436C56.6711 56.1015 56.6369 56.0512 56.6135 55.9957C56.5902 55.9403 56.5781 55.8807 56.5781 55.8206C56.5781 55.7604 56.5902 55.7008 56.6135 55.6454C56.6369 55.5899 56.6711 55.5396 56.7142 55.4975C60.0497 52.1894 62.129 47.8274 62.596 43.1583V43.0398C62.596 43.0398 67.7332 30.1191 81.8173 32.0572C81.9129 32.073 82.0013 32.1176 82.0708 32.1849C82.1402 32.2523 82.1874 32.3392 82.2059 32.4341C82.2237 32.5296 82.2102 32.6283 82.1675 32.7155C82.1247 32.8028 82.0549 32.874 81.9684 32.9186C81.9684 32.9186 77.9752 35.1905 76.4967 43.2875C75.8987 46.8362 74.2744 50.1333 71.8236 52.7734C71.7455 52.8561 71.6397 52.9073 71.5263 52.9172C71.4128 52.9272 71.2997 52.8951 71.2084 52.8273C70.0135 51.9116 68.5686 51.3786 67.0641 51.2983C62.7471 51.0184 61.0527 53.8178 60.988 53.947C60.9224 54.0537 60.8179 54.1308 60.6966 54.1624C59.4389 54.5525 58.2922 55.2352 57.3509 56.1543C57.3102 56.1958 57.2615 56.2286 57.2077 56.2508C57.1539 56.273 57.0962 56.2842 57.0379 56.2835ZM63.5134 43.3628C63.1465 47.072 61.7899 50.6153 59.585 53.624C59.8234 53.5184 60.0686 53.4285 60.3188 53.3549C61.0909 52.3011 62.1316 51.4727 63.3329 50.9558C64.5343 50.4389 65.8524 50.2523 67.1504 50.4154C68.6992 50.4956 70.1946 51.0066 71.4674 51.8905C73.62 49.4016 75.0329 46.3623 75.547 43.1152C76.6262 37.0209 79.1085 34.0707 80.4899 32.8432C68.4563 31.8527 63.8156 42.5338 63.481 43.3198L63.5134 43.3628Z" fill="#D05278"/>
<path d="M43.1694 51.7829C43.0747 51.7853 42.9816 51.7587 42.9025 51.7067C42.8234 51.6548 42.7621 51.5799 42.7269 51.4922C42.7167 51.4316 42.7167 51.3697 42.7269 51.3091C42.7258 51.2204 42.7521 51.1335 42.8023 51.0602C42.8525 50.987 42.9242 50.931 43.0075 50.9H43.0615C43.1775 50.8677 43.3013 50.8796 43.409 50.9334C43.5167 50.9871 43.6005 51.0788 43.6443 51.1907C43.6496 51.2444 43.6496 51.2985 43.6443 51.3522C43.6453 51.4437 43.6178 51.5332 43.5656 51.6085C43.5134 51.6837 43.4391 51.7409 43.3529 51.7721C43.2932 51.7885 43.2307 51.7921 43.1694 51.7829Z" fill="#D05278"/>
<path d="M42.2847 52.2242L41.853 51.4059C41.9636 51.3526 42.0906 51.3442 42.2073 51.3823C42.3241 51.4205 42.4214 51.5022 42.479 51.6105C42.4948 51.6814 42.4948 51.7549 42.479 51.8258C42.4858 51.9036 42.4714 51.9817 42.4371 52.0518C42.4029 52.122 42.3502 52.1816 42.2847 52.2242Z" fill="#D05278"/>
<path d="M35.3022 57.4465C30.6291 57.4465 27.9202 52.5151 26.2258 48.5312C24.0026 43.2875 21.2397 42.9645 21.2181 42.9645C21.1152 42.9544 21.0185 42.9111 20.9425 42.8412C20.8665 42.7712 20.8155 42.6784 20.7972 42.5769C20.7793 42.4761 20.7963 42.3722 20.8453 42.2822C20.8943 42.1922 20.9725 42.1215 21.067 42.0816C28.3195 38.9268 36.9751 44.8165 37.342 45.0641C37.3879 45.0907 37.4279 45.1264 37.4594 45.169C37.491 45.2116 37.5135 45.2602 37.5255 45.3118C38.2799 47.8562 39.6132 50.1925 41.4215 52.1382C41.5063 52.2371 41.5524 52.3634 41.551 52.4935C41.5327 52.6234 41.4674 52.7421 41.3676 52.8273C40.0546 53.8888 38.9838 55.2176 38.227 56.7251C38.1738 56.8315 38.0807 56.9127 37.968 56.9512L37.7629 57.0266C36.9711 57.2992 36.1399 57.4411 35.3022 57.4465ZM22.6643 42.5338C23.8515 43.1691 25.6214 44.6873 27.1216 48.1974C30.0679 55.1208 33.2733 57.5865 37.5039 56.1759C38.2366 54.7684 39.2204 53.506 40.407 52.4505C38.7081 50.5096 37.4426 48.2303 36.6945 45.764C35.4749 44.9565 28.6109 40.7895 22.6643 42.5338Z" fill="#D05278"/>
<path d="M77.3168 57.4464C76.4792 57.4399 75.6482 57.2981 74.8561 57.0265H74.7266C74.5901 56.9731 74.4708 56.8838 74.3812 56.7681C73.6247 55.2452 72.5502 53.9015 71.2298 52.8273C71.1768 52.7883 71.1329 52.7382 71.1012 52.6806C71.0695 52.6229 71.0508 52.5591 71.0464 52.4935C71.0402 52.4284 71.0487 52.3628 71.0711 52.3013C71.0935 52.2399 71.1293 52.1841 71.1759 52.1382C72.9803 50.1913 74.3099 47.8552 75.0612 45.3117C75.0863 45.2425 75.1269 45.1799 75.1799 45.1287L75.2986 45.0426C75.6116 44.8165 84.2671 38.9268 91.4872 42.0816C91.583 42.1198 91.6624 42.1902 91.7117 42.2807C91.761 42.3711 91.777 42.4759 91.757 42.5769C91.7387 42.6784 91.6877 42.7712 91.6118 42.8411C91.5358 42.9111 91.439 42.9544 91.3361 42.9645C91.3361 42.9645 88.5625 43.2875 86.3284 48.5312C84.688 52.515 82.0223 57.4464 77.3168 57.4464ZM74.9856 56.3697V56.542L75.0612 56.3159L74.9856 56.3697ZM75.1475 56.1005C79.3781 57.511 82.5835 55.0238 85.5298 48.122C87.0407 44.5903 88.7675 43.0937 89.9871 42.4584C83.8894 40.7141 76.9282 45.0533 75.9569 45.6886C75.2022 48.1479 73.9331 50.4196 72.2335 52.3535C73.4334 53.4213 74.4282 54.6984 75.1691 56.1221L75.1475 56.1005Z" fill="#D05278"/>
<path d="M56.0451 71.8746C46.7312 61.3334 52.3648 53.8287 52.4296 53.7533L52.9153 54.1302C52.6886 54.4209 47.5191 61.3334 56.5091 71.4654L56.0451 71.8746Z" fill="#D05278"/>
<path d="M44.2491 51.2446C41.0977 49.3818 39.8673 45.4518 38.7881 41.9847C38.3027 39.9659 37.478 38.0436 36.349 36.2996C33.6509 32.9295 30.8449 32.8433 30.8125 32.8433V32.2296C30.942 32.2296 33.9315 32.3265 36.8131 35.9443C37.9908 37.744 38.8488 39.7328 39.3493 41.8232C40.4285 45.3549 41.5941 48.9942 44.5513 50.7277L44.2491 51.2446Z" fill="#D05278"/>
<path d="M37.7737 54.4318C30.9961 54.4318 25.6862 46.8947 25.438 46.5717L25.956 46.2272C26.01 46.3133 32.248 55.1317 39.4897 53.635L39.6192 54.238C39.0123 54.3652 38.3939 54.4301 37.7737 54.4318Z" fill="#D05278"/>
<path d="M29.0208 71.9821V71.3684C29.1718 71.3684 44.2273 71.0777 47.9938 62.1947L48.5658 62.4424C46.9362 66.2755 43.0293 69.1396 37.277 70.7331C34.5811 71.4596 31.8113 71.8786 29.0208 71.9821Z" fill="#D05278"/>
<path d="M56.3796 71.8746L55.9155 71.4654C64.884 61.3334 59.736 54.4209 59.5094 54.1302L60.0059 53.7533C60.0598 53.8287 65.6935 61.3334 56.3796 71.8746Z" fill="#D05278"/>
<path d="M68.2729 51.2447L67.96 50.7064C70.9171 48.9729 72.0503 45.3228 73.1511 41.8019C73.6516 39.7114 74.5096 37.7226 75.6873 35.923C78.5797 32.3052 81.5584 32.2083 81.6879 32.2083V32.8435C81.6879 32.8435 78.8495 32.9512 76.1622 36.3213C75.0327 38.0638 74.2113 39.9867 73.7339 42.0064C72.6547 45.452 71.4351 49.382 68.2729 51.2447Z" fill="#D05278"/>
<path d="M74.7483 54.4318C74.1282 54.4301 73.5098 54.3652 72.9028 54.238L73.0323 53.635C80.2848 55.1317 86.5121 46.3133 86.5768 46.2272L87.0841 46.5717C86.8359 46.927 81.5368 54.4318 74.7483 54.4318Z" fill="#D05278"/>
<path d="M83.4903 71.9821C80.7033 71.8789 77.9371 71.4599 75.2449 70.7331C69.4818 69.1396 65.5317 66.2755 63.9561 62.4424L64.5173 62.1947C68.2838 71.0777 83.3393 71.3576 83.4903 71.3684V71.9821Z" fill="#D05278"/>
<path d="M0.744677 91.5572C1.15595 91.5572 1.48935 91.2245 1.48935 90.8142C1.48935 90.4039 1.15595 90.0713 0.744677 90.0713C0.333403 90.0713 0 90.4039 0 90.8142C0 91.2245 0.333403 91.5572 0.744677 91.5572Z" fill="#D05278"/>
<path d="M111.874 91.5572C112.285 91.5572 112.619 91.2245 112.619 90.8142C112.619 90.4039 112.285 90.0713 111.874 90.0713C111.463 90.0713 111.129 90.4039 111.129 90.8142C111.129 91.2245 111.463 91.5572 111.874 91.5572Z" fill="#D05278"/>
</svg>
